<svg width="477" height="414" viewBox="0 0 477 414" fill="none" xmlns="http://www.w3.org/2000/svg">
<path fill-rule="evenodd" clip-rule="evenodd" d="M240.624 2.80907C285.1 12.783 304.877 62.6678 338.264 93.6988C366.245 119.705 399.466 137.664 420.222 169.734C447.113 211.28 487.652 256.365 474.412 304.051C461.203 351.628 403.684 370.13 358.843 390.802C321.583 407.98 281.075 418.697 240.624 411.832C204.133 405.639 181.804 370.938 148.36 355.079C102.893 333.519 36.9407 345.728 10.6882 302.799C-15.1112 260.612 11.7851 205.703 28.5629 159.185C44.8413 114.052 66.3594 69.858 104.975 41.3827C143.759 12.7831 193.604 -7.73549 240.624 2.80907Z" fill="#F2F4FF"/>
<path d="M226.909 224.949V218.878L222.547 221.078L214.9 216.65C213.5 215.942 211.952 215.573 210.383 215.573C208.813 215.573 207.266 215.942 205.865 216.65L128.922 261.079L124.551 258.936V264.94C124.55 265.546 124.728 266.139 125.065 266.643C125.401 267.148 125.879 267.541 126.439 267.773L136.597 273.635C137.998 274.343 139.545 274.712 141.115 274.712C142.684 274.712 144.232 274.343 145.632 273.635L225.096 227.753C226.38 226.969 226.994 225.949 226.909 224.949Z" fill="#718BFF"/>
<path d="M128.922 261.079L124.551 258.936V264.94C124.55 265.546 124.728 266.139 125.065 266.643C125.401 267.147 125.879 267.54 126.439 267.772L136.597 273.635C137.949 274.35 139.458 274.717 140.987 274.702V254.14L128.922 261.079Z" fill="#718BFF"/>
<path d="M136.55 267.168C137.949 267.88 139.497 268.251 141.067 268.251C142.637 268.251 144.185 267.88 145.585 267.168L225.049 221.285C227.541 219.841 227.541 217.509 225.049 216.074L214.9 210.211C213.501 209.499 211.953 209.128 210.382 209.128C208.812 209.128 207.264 209.499 205.865 210.211L126.439 256.132C123.946 257.567 123.946 259.908 126.439 261.343L136.55 267.168Z" fill="#8DA1F8"/>
<path d="M160.624 251.374L155.083 248.23V219.888L190.826 199.26L160.624 251.374Z" fill="#718BFF"/>
<path d="M196.358 230.736L160.624 251.373V223.022L196.358 202.394V230.736Z" fill="#8DA1F8"/>
<path d="M255.231 52.6991L250.03 49.7346C249.921 49.6504 249.8 49.5835 249.671 49.5364C249.355 49.4379 249.02 49.4131 248.693 49.4639C248.366 49.5146 248.054 49.6395 247.783 49.829L98.2481 136.185C97.4048 136.736 96.703 137.478 96.1995 138.35C95.696 139.223 95.4049 140.202 95.3497 141.208V256.066C95.3089 256.428 95.3662 256.794 95.5157 257.126C95.6652 257.458 95.9014 257.744 96.1994 257.954C96.2785 257.997 96.3605 258.035 96.4449 258.067L101.609 261.041L102.685 255.443L101.146 256.085L247.811 171.4C248.659 170.851 249.365 170.109 249.871 169.234C250.376 168.359 250.667 167.377 250.719 166.368V55.8335L255.231 52.6991Z" fill="#718BFF"/>
<path d="M250.029 49.7346C249.921 49.6504 249.8 49.5835 249.671 49.5364C249.354 49.4379 249.02 49.4131 248.693 49.4639C248.365 49.5146 248.054 49.6395 247.782 49.829L98.2479 136.185C97.5086 136.644 96.8851 137.268 96.4258 138.007L196.405 201.082L247.811 171.4C248.659 170.851 249.365 170.109 249.871 169.234C250.376 168.359 250.667 167.377 250.719 166.368V55.8335L255.231 52.6991L250.029 49.7346Z" fill="#718BFF"/>
<path d="M256.1 169.426C256.046 170.435 255.754 171.416 255.249 172.291C254.744 173.165 254.039 173.908 253.192 174.458L103.629 260.814C102.024 261.758 100.731 260.984 100.731 259.134V144.276C100.785 143.27 101.075 142.29 101.579 141.418C102.082 140.545 102.785 139.803 103.629 139.253L253.192 52.8596C254.797 51.9155 256.1 52.6896 256.1 54.54V169.426Z" fill="#8DA1F8"/>
<path d="M253.277 161.015L103.544 247.465V144.078L253.277 57.6273V161.015Z" fill="#E6F7FF"/>
<path d="M251.813 58.477V159.882L103.544 245.473V247.465L253.277 161.015V57.6273L251.813 58.477Z" fill="white"/>
<path d="M239.267 83.0327L179.582 117.492V114.074L239.267 79.6151V83.0327Z" fill="#CBE9F4"/>
<path d="M239.268 89.141L146.058 142.954V139.537L239.268 85.7234V89.141Z" fill="#CBE9F4"/>
<path d="M239.268 95.2494L146.058 149.063V145.645L239.268 91.8318V95.2494Z" fill="#CBE9F4"/>
<path d="M239.268 101.358L146.058 155.171V151.753L239.268 97.9399V101.358Z" fill="#CBE9F4"/>
<path d="M239.268 107.466L146.058 161.279V157.861L239.268 104.048V107.466Z" fill="#CBE9F4"/>
<path d="M239.268 113.574L146.058 167.387V163.97L239.268 110.156V113.574Z" fill="#CBE9F4"/>
<path d="M239.267 125.791L179.582 160.25V156.832L239.267 122.373V125.791Z" fill="#CBE9F4"/>
<path d="M239.268 131.899L146.058 185.712V182.294L239.268 128.481V131.899Z" fill="#CBE9F4"/>
<path d="M239.268 138.007L146.058 191.82V188.403L239.268 134.589V138.007Z" fill="#CBE9F4"/>
<path d="M239.268 144.116L146.058 197.929V194.511L239.268 140.698V144.116Z" fill="#CBE9F4"/>
<path d="M239.268 150.224L146.058 204.037V200.619L239.268 146.806V150.224Z" fill="#CBE9F4"/>
<path d="M190.751 184.343L146.058 210.145V206.728L190.751 180.926V184.343Z" fill="#CBE9F4"/>
<path d="M383.704 258.275L303.513 211.977L288.011 102.727L303.513 93.8616L383.704 140.169V258.275Z" fill="#718BFF"/>
<path d="M379.709 256.226L366.256 263.099L288.359 106.729L303.153 98.2704L379.709 142.473V256.226Z" fill="white"/>
<path d="M368.202 267.14L288.011 220.842V102.727L368.202 149.025V267.14Z" fill="#718BFF"/>
<path d="M365.633 268.735L285.442 222.428L269.94 113.178L285.442 104.322L365.633 150.62V268.735Z" fill="#718BFF"/>
<path d="M361.64 266.677L348.187 273.55L270.29 117.181L285.084 108.722L361.64 152.924V266.677Z" fill="white"/>
<path d="M350.131 277.591L269.94 231.293V113.178L350.131 159.476V277.591Z" fill="#8DA1F8"/>
<g style="mix-blend-mode:multiply">
<path d="M269.94 231.293V113.178L350.131 159.476L269.94 231.293Z" fill="#C4DDE8"/>
</g>
<path d="M290.399 118.229L283.583 114.377V99.8566L286.991 104.7L290.399 102.462V118.229Z" fill="#EA4266"/>
<g style="mix-blend-mode:multiply">
<path d="M218.969 333.32L155.177 296.491L127.336 281.443L226.919 226.128L340.219 275.334L239.909 333.33L218.969 333.32Z" fill="#D6EAF2"/>
</g>
<path d="M239.059 332.291L164.778 289.411V272.757L264.427 231.878L338.708 274.759L239.059 332.291Z" fill="#718BFF"/>
<path d="M264.427 226.525L168.47 271.048V286.192L239.059 326.939L338.708 269.406L264.427 226.525Z" fill="#E5E5E5"/>
<path d="M264.427 222.654L248.519 230.037V277.714H168.47V282.321L239.059 323.068L338.708 265.535L264.427 222.654Z" fill="#F4F4F4"/>
<path d="M264.427 219.104L248.519 226.487V277.714H168.47V278.771L239.059 319.527L338.708 261.995L264.427 219.104Z" fill="white"/>
<path d="M239.059 315.647L164.778 272.757L264.427 215.224L338.708 258.114L239.059 315.647Z" fill="#718BFF"/>
<path d="M239.295 309.699L168.725 268.952V253.139L263.398 214.29L333.969 255.037L239.295 309.699Z" fill="#1890C6"/>
<path d="M263.397 209.21L172.227 251.506V265.894L239.295 304.611L333.968 249.948L263.397 209.21Z" fill="#E5E5E5"/>
<path d="M263.397 205.529L248.283 212.543V257.841H172.227V262.221L239.295 300.938L333.968 246.276L263.397 205.529Z" fill="#F4F4F4"/>
<path d="M263.397 202.158L248.283 209.173V257.841H172.227V258.851L239.295 297.568L333.968 242.905L263.397 202.158Z" fill="white"/>
<path d="M239.295 293.876L168.725 253.139L263.398 198.476L333.969 239.223L239.295 293.876Z" fill="#55C3FE"/>
<path d="M239.823 289.817L172.368 250.864V235.749L262.869 198.618L330.324 237.561L239.823 289.817Z" fill="#8DA1F8"/>
<path d="M262.869 193.756L175.72 234.191V247.946L239.824 284.955L330.324 232.709L262.869 193.756Z" fill="#E5E5E5"/>
<path d="M262.869 190.244L248.415 196.947V240.243H175.72V244.425L239.824 281.443L330.324 229.187L262.869 190.244Z" fill="#F4F4F4"/>
<path d="M262.869 187.024L248.415 193.727V240.243H175.72V241.206L239.824 278.214L330.324 225.968L262.869 187.024Z" fill="white"/>
<path d="M239.823 274.693L172.368 235.749L262.869 183.503L330.324 222.447L239.823 274.693Z" fill="#8DA1F8"/>
<g style="mix-blend-mode:multiply">
<path d="M212.766 212.421L262.869 183.503L299.613 204.717L212.766 212.421Z" fill="#EF92A9"/>
</g>
<g style="mix-blend-mode:multiply">
<path d="M348.177 112.205C345.845 108.797 348.649 85.1854 345.298 83.0801C345.33 82.5068 345.311 81.9317 345.241 81.3618C346.044 81.1919 329.239 61.4793 325.878 64.557C322.517 67.6347 325.141 72.8461 325.141 72.8461C325.141 72.8461 325.34 73.7241 324.008 74.3C324.692 74.5557 325.426 74.6494 326.152 74.5738C326.152 74.7815 326.152 74.9798 326.237 75.1875C326.42 76.4596 326.676 77.7204 327.001 78.9638C327.379 80.4083 327.69 81.73 327.945 82.9479L327.521 83.3727L327.464 83.4388C327.38 83.5354 327.301 83.6362 327.228 83.7409C327.048 83.9581 326.869 84.1658 326.699 84.4018C320.695 92.1528 322.658 101.254 318.967 104.313C316.702 106.258 314.155 107.849 311.414 109.033L306.562 110.157L299.717 97.0998L299.849 101.15L299.717 100.971L300.123 111.459C298.386 111.629 297.017 117.124 299.906 118.814C300.085 118.908 306.269 119.352 306.43 119.409L307.374 126.376L307.09 133.117C303.314 136.544 300.038 140.396 299.151 144.012C296.743 153.896 297.602 176.781 297.602 176.781L297.706 176.951C296.507 177.895 292.24 181.199 291.201 182.701C291.106 182.84 291.033 182.992 290.984 183.154C290.893 183.441 290.906 183.751 291.022 184.029C291.138 184.308 291.349 184.536 291.617 184.674L291.853 184.787L291.966 184.834L292.193 184.91L292.381 184.966H292.599H292.854H293.628H293.968H294.232L294.61 184.891L294.874 184.825L295.308 184.693L295.582 184.608L296.082 184.419L296.328 184.315C296.583 184.202 296.838 184.079 297.111 183.937C301.605 181.568 302.559 180.935 303.437 180.444C303.566 180.367 303.684 180.272 303.786 180.161L303.852 180.095C303.93 179.992 303.991 179.877 304.032 179.755C304.071 179.627 304.09 179.493 304.088 179.358C304.088 179.358 304.088 179.311 304.088 179.273C304.088 179.236 304.088 178.915 304.088 178.707L304.286 178.622L308.063 145.116C308.063 145.116 314.152 155.114 318.608 153.302C315.776 156.832 316.409 152.357 315.899 156.077C314.502 166.151 314.473 188.063 314.473 188.063L314.624 188.214C313.161 189.337 309.347 192.349 308.384 193.756C308.282 193.892 308.206 194.046 308.157 194.209C308.065 194.496 308.079 194.806 308.197 195.084C308.315 195.361 308.529 195.587 308.799 195.72C308.871 195.765 308.947 195.803 309.026 195.833L309.149 195.889L309.366 195.956C309.427 195.979 309.49 195.998 309.554 196.012H309.781H310.027H310.801H311.15H311.405L311.783 195.937L312.056 195.871L312.481 195.748L312.755 195.663L313.255 195.465L313.501 195.361C313.756 195.247 314.02 195.125 314.284 194.983C318.778 192.613 319.732 191.99 320.61 191.49C320.741 191.416 320.859 191.32 320.959 191.207C320.983 191.187 321.006 191.165 321.025 191.141C321.103 191.039 321.166 190.928 321.214 190.81C321.251 190.681 321.273 190.548 321.28 190.414V190.329C321.261 189.889 321.216 189.451 321.148 189.016C321.121 188.872 321.04 188.744 320.921 188.658C321.138 188.488 325.491 145.503 325.491 145.503C325.491 145.503 343.325 137.516 345.789 136.176C357.524 129.813 348.177 112.205 348.177 112.205Z" fill="#E2E2E2"/>
</g>
<path d="M322.366 72.61C322.366 72.61 322.46 71.6659 325.047 77.3871C327.634 83.1083 321.422 101.471 319.949 103.482C318.476 105.493 299.991 111.157 295.922 104.888C298.461 103.576 296.007 101.707 296.507 98.7708C304.06 101.414 311.556 95.4004 313.869 93.4839C317.711 90.3023 315.398 80.5498 322.366 72.61Z" fill="#C7EBF9"/>
<path d="M292.948 165.858C292.948 165.858 287.331 170.097 286.122 171.843C284.914 173.59 287.538 175.469 292.032 173.099C296.526 170.729 297.479 170.097 298.348 169.606C299.217 169.115 299.056 168.397 298.896 167.104C298.735 165.811 292.948 165.858 292.948 165.858Z" fill="white"/>
<path d="M298.348 168.794C297.48 169.294 296.517 169.917 292.032 172.297C288.653 174.071 286.368 173.458 285.905 172.297C285.396 173.883 287.926 175.252 292.032 173.09C296.517 170.72 297.48 170.087 298.348 169.596C299.019 169.209 299.075 168.709 298.99 167.916C298.965 168.104 298.893 168.283 298.781 168.436C298.669 168.59 298.52 168.713 298.348 168.794Z" fill="#4C4C4C"/>
<path d="M341.002 111.922C341.002 111.922 340.795 124.611 329.588 127.367C321.67 129.51 313.957 132.354 306.543 135.864L299.207 167.765C298.225 168.227 297.131 168.4 296.054 168.265C295.331 168.169 294.64 167.909 294.033 167.505C293.426 167.101 292.919 166.563 292.552 165.933C292.552 165.933 291.683 143.049 294.09 133.164C296.498 123.279 316.682 111.658 316.682 111.658L341.002 111.922Z" fill="#112F5B"/>
<path d="M310.103 176.904C310.103 176.904 304.438 181.152 303.277 182.899C302.116 184.645 304.693 186.515 309.187 184.145C313.681 181.775 314.634 181.152 315.512 180.652C316.39 180.152 316.22 179.443 316.05 178.16C315.88 176.876 310.103 176.904 310.103 176.904Z" fill="white"/>
<path d="M315.512 179.849C314.634 180.349 313.68 180.973 309.186 183.342C305.806 185.117 303.522 184.513 303.059 183.342C302.549 184.928 305.089 186.297 309.186 184.135C313.68 181.766 314.634 181.143 315.512 180.642C316.172 180.255 316.238 179.755 316.154 178.962C316.125 179.15 316.051 179.329 315.94 179.483C315.828 179.637 315.681 179.763 315.512 179.849Z" fill="#4C4C4C"/>
<path d="M352.077 119.418C352.077 119.418 353.153 132.059 342.286 135.94C334.625 138.867 327.238 142.469 320.214 146.702L316.201 177.48C315.314 178.295 314.139 178.726 312.935 178.679C312.276 178.677 311.625 178.543 311.02 178.283C310.414 178.024 309.868 177.644 309.413 177.168C309.413 177.168 306.892 153.858 308.28 143.785C309.668 133.712 324.962 121.863 324.962 121.863L352.077 119.418Z" fill="#164072"/>
<path d="M315.078 112.715C315.078 112.715 313.87 74.8098 325.463 70.382C337.056 65.9542 347.583 76.4619 352.077 86.6959C356.571 96.9298 355.4 114.66 352.077 121.259C336.244 132.163 314.625 118.002 315.078 112.715Z" fill="#A3B4FA"/>
<path d="M352.076 86.6958C347.554 76.4902 336.971 65.9259 325.396 70.382C325.015 70.5302 324.649 70.7135 324.301 70.9295C332.798 72.0058 340.058 80.1816 343.589 88.1592C348.111 98.3648 346.912 116.123 343.589 122.722C342.065 123.765 340.42 124.618 338.689 125.262C343.458 125.345 348.136 123.946 352.076 121.259C355.428 114.66 356.618 96.9015 352.076 86.6958Z" fill="#879EFF"/>
<path d="M322.167 53.4828C322.167 53.4828 319.288 58.1089 321.875 68.1351C323.971 76.2543 324.282 80.7482 327.672 81.0975C331.061 81.4468 341.219 78.9544 340.105 70.5048C341.115 70.2877 343.183 66.4169 341.559 63.3391C339.935 60.2614 338.783 63.6224 338.783 63.6224C338.783 63.6224 338.85 56.9193 334.11 54.4741C329.371 52.0289 322.167 53.4828 322.167 53.4828Z" fill="url(#paint0_linear)"/>
<path d="M333.308 61.5453C333.308 61.1488 329.692 66.2657 323.867 64.6325C324.403 64.5103 324.903 64.2661 325.329 63.9189C325.754 63.5718 326.094 63.131 326.322 62.631C325.7 63.3904 324.872 63.9551 323.938 64.258C323.005 64.5609 322.003 64.5893 321.054 64.3398C321.815 64.047 322.526 63.636 323.159 63.1219C321.818 63.7895 320.269 63.9048 318.845 63.4429C320.176 62.867 319.978 61.989 319.978 61.989C319.978 61.989 318.797 63.1597 316.513 61.1676C317.457 61.0449 317.353 56.7776 320.714 53.6999C324.075 50.6221 326.803 49.9235 331.316 50.6599C330.862 50.091 330.266 49.6513 329.588 49.3846C328.911 49.1179 328.175 49.0335 327.455 49.1399C329.249 48.1297 333.053 49.933 334.177 51.5946C337.679 50.254 344.269 52.5386 342.088 65.3311C342.088 65.0101 341.758 62.9331 340.521 62.546C339.284 62.1589 338.246 64.5852 338.529 65.1989C338.774 66.6025 338.913 68.0227 338.944 69.4473L337.349 70.2876C337.349 70.2876 337.84 67.1248 336.697 66.1713C335.555 65.2178 333.525 66.3979 333.308 61.5453Z" fill="#112F5B"/>
<path d="M294.628 90.123L301.482 99.309L323.612 94.1543L322.346 122.76L302.209 122.515L295.581 114.452L294.628 90.123Z" fill="white"/>
<path d="M294.628 86.2521L301.482 99.3089L302.209 122.515L295.581 114.452L294.628 86.2521Z" fill="#E6F7FF"/>
<path d="M328.134 109.647C328.134 109.647 327.455 110.695 326.01 109.647C324.566 108.599 324.027 106.814 323.131 106.153C323.027 108.438 323.131 110.034 320.298 109.986C317.466 109.939 315.644 109.543 314.03 109.656C312.415 109.769 314.341 116.869 322.611 117.039C327.181 116.756 329.116 114.207 329.116 114.207L328.134 109.647Z" fill="url(#paint1_linear)"/>
<path d="M295.044 100.612C295.044 100.612 296.564 103.727 297.509 104.086C298.453 104.445 297.716 109.628 294.827 107.966C291.938 106.305 293.298 100.782 295.044 100.612Z" fill="url(#paint2_linear)"/>
<path d="M342.843 85.5062C342.843 85.5062 343.334 77.7175 348.81 80.7858C354.285 83.8541 360.139 102.358 360.139 104.86C360.139 107.362 334.743 119.72 327.756 117.058C328.391 115.721 328.715 114.259 328.705 112.779C328.695 111.3 328.352 109.842 327.7 108.514C335.356 106.191 345.165 103.189 346.836 100.697C348.507 98.2042 341.918 96.0328 342.843 85.5062Z" fill="#A3B4FA"/>
<path d="M187.465 361.596L72.9937 295.51V291.196L224.709 335.776V340.099L187.465 361.596Z" fill="#718BFF"/>
<path d="M187.465 361.596L72.9937 295.51V291.196L187.465 356.848V361.172V361.596Z" fill="#718BFF"/>
<path d="M187.465 357.281L72.9937 291.195L110.238 269.689L224.709 335.775L187.465 357.281Z" fill="#8DA1F8"/>
<path d="M113.561 281.792L106.018 277.431V276.505L118.433 278.054V278.979L113.561 281.792Z" fill="#32A5C4"/>
<path d="M113.561 280.867L106.018 276.505L110.89 273.701L118.433 278.053L113.561 280.867Z" fill="#E6F7FF"/>
<path d="M121.642 286.465L114.099 282.103V281.178L126.504 282.727V283.652L121.642 286.465Z" fill="#32A5C4"/>
<path d="M121.642 285.54L114.099 281.178L118.961 278.375L126.504 282.727L121.642 285.54Z" fill="#E6F7FF"/>
<path d="M129.724 291.129L122.171 286.767V285.852L134.586 287.4V288.316L129.724 291.129Z" fill="#32A5C4"/>
<path d="M129.724 290.204L122.171 285.852L127.043 283.038L134.586 287.4L129.724 290.204Z" fill="#E6F7FF"/>
<path d="M137.796 295.803L130.253 291.441V290.516L142.668 292.064V292.989L137.796 295.803Z" fill="#32A5C4"/>
<path d="M137.796 294.877L130.253 290.516L135.115 287.712L142.668 292.064L137.796 294.877Z" fill="#E6F7FF"/>
<path d="M145.878 300.466L138.325 296.114V295.189L150.74 296.737V297.662L145.878 300.466Z" fill="#32A5C4"/>
<path d="M145.878 299.541L138.325 295.189L143.197 292.375L150.74 296.737L145.878 299.541Z" fill="#E6F7FF"/>
<path d="M153.95 305.14L146.406 300.778V299.862L158.821 301.41V302.326L153.95 305.14Z" fill="#32A5C4"/>
<path d="M153.95 304.214L146.406 299.862L151.268 297.049L158.821 301.411L153.95 304.214Z" fill="#E6F7FF"/>
<path d="M162.031 309.813L154.478 305.451V304.526L166.893 306.074V306.999L162.031 309.813Z" fill="#32A5C4"/>
<path d="M162.031 308.888L154.478 304.526L159.35 301.722L166.893 306.074L162.031 308.888Z" fill="#E6F7FF"/>
<path d="M170.103 314.477L162.56 310.124V309.199L174.975 310.748V311.673L170.103 314.477Z" fill="#32A5C4"/>
<path d="M170.103 313.552L162.56 309.199L167.432 306.386L174.975 310.748L170.103 313.552Z" fill="#E6F7FF"/>
<path d="M178.184 319.15L170.631 314.798V313.873L183.056 315.411V316.337L178.184 319.15Z" fill="#32A5C4"/>
<path d="M178.184 318.224L170.631 313.872L175.503 311.059L183.056 315.411L178.184 318.224Z" fill="#E6F7FF"/>
<path d="M186.256 323.823L178.713 319.461V318.536L191.128 320.084V321.009L186.256 323.823Z" fill="#32A5C4"/>
<path d="M186.256 322.898L178.713 318.536L183.575 315.732L191.128 320.084L186.256 322.898Z" fill="#E6F7FF"/>
<path d="M194.338 328.487L186.785 324.134V323.209L199.209 324.758V325.683L194.338 328.487Z" fill="#32A5C4"/>
<path d="M194.338 327.571L186.785 323.209L191.657 320.396L199.209 324.758L194.338 327.571Z" fill="#E6F7FF"/>
<path d="M202.41 333.16L194.866 328.808V327.883L207.281 329.431V330.347L202.41 333.16Z" fill="#32A5C4"/>
<path d="M202.41 332.235L194.866 327.883L199.738 325.069L207.281 329.431L202.41 332.235Z" fill="#E6F7FF"/>
<path d="M210.491 337.833L202.948 333.472V332.546L215.363 334.095V335.02L210.491 337.833Z" fill="#32A5C4"/>
<path d="M210.491 336.908L202.948 332.547L207.81 329.743L215.363 334.095L210.491 336.908Z" fill="#E6F7FF"/>
<path d="M111.663 288.052L99.7207 281.056V280.14L116.535 284.313V285.238L111.663 288.052Z" fill="#32A5C4"/>
<path d="M111.663 287.126L99.7207 280.14L104.592 277.327L116.535 284.313L111.663 287.126Z" fill="#E6F7FF"/>
<path d="M119.746 292.715L112.193 288.363V287.438L124.608 288.986V289.912L119.746 292.715Z" fill="#32A5C4"/>
<path d="M119.746 291.79L112.193 287.438L117.064 284.624L124.608 288.986L119.746 291.79Z" fill="#E6F7FF"/>
<path d="M127.817 297.389L120.273 293.037V292.111L132.688 293.66V294.575L127.817 297.389Z" fill="#32A5C4"/>
<path d="M127.817 296.463L120.273 292.111L125.135 289.298L132.688 293.659L127.817 296.463Z" fill="#E6F7FF"/>
<path d="M135.889 302.062L128.346 297.7V296.775L140.76 298.323V299.248L135.889 302.062Z" fill="#32A5C4"/>
<path d="M135.889 301.137L128.346 296.775L133.217 293.971L140.76 298.323L135.889 301.137Z" fill="#E6F7FF"/>
<path d="M143.97 306.725L136.427 302.373V301.448L148.842 302.996V303.922L143.97 306.725Z" fill="#32A5C4"/>
<path d="M143.97 305.8L136.427 301.448L141.289 298.635L148.842 302.996L143.97 305.8Z" fill="#E6F7FF"/>
<path d="M152.052 311.399L144.5 307.037V306.112L156.924 307.67V308.585L152.052 311.399Z" fill="#32A5C4"/>
<path d="M152.052 310.474L144.5 306.112L149.371 303.308L156.924 307.67L152.052 310.474Z" fill="#E6F7FF"/>
<path d="M160.133 316.072L152.581 311.71V310.785L164.995 312.333V313.259L160.133 316.072Z" fill="#32A5C4"/>
<path d="M160.133 315.147L152.581 310.785L157.452 307.981L164.995 312.334L160.133 315.147Z" fill="#E6F7FF"/>
<path d="M168.205 320.736L160.662 316.384V315.458L173.076 317.007V317.932L168.205 320.736Z" fill="#32A5C4"/>
<path d="M168.205 319.81L160.662 315.458L165.524 312.645L173.076 317.006L168.205 319.81Z" fill="#E6F7FF"/>
<path d="M176.286 325.409L168.733 321.048V320.132L181.148 321.671V322.596L176.286 325.409Z" fill="#32A5C4"/>
<path d="M176.286 324.484L168.733 320.132L173.605 317.318L181.148 321.67L176.286 324.484Z" fill="#E6F7FF"/>
<path d="M184.359 330.083L176.815 325.721V324.796L189.23 326.344V327.269L184.359 330.083Z" fill="#32A5C4"/>
<path d="M184.359 329.157L176.815 324.795L181.677 321.991L189.23 326.344L184.359 329.157Z" fill="#E6F7FF"/>
<path d="M192.44 334.746L184.888 330.384V329.469L197.302 331.017V331.942L192.44 334.746Z" fill="#32A5C4"/>
<path d="M192.44 333.821L184.888 329.469L189.759 326.655L197.302 331.017L192.44 333.821Z" fill="#E6F7FF"/>
<path d="M204.166 341.563L192.969 335.058V334.142L209.038 337.833V338.749L204.166 341.563Z" fill="#32A5C4"/>
<path d="M204.166 340.637L192.969 334.142L197.831 331.329L209.038 337.833L204.166 340.637Z" fill="#E6F7FF"/>
<path d="M102.317 289.987L93.3384 284.757V283.832L106.537 285.88V286.796L102.317 289.987Z" fill="#32A5C4"/>
<path d="M102.59 289.213L93.3384 283.831L98.2004 281.018L107.462 286.409L102.59 289.213Z" fill="#E6F7FF"/>
<path d="M109.747 294.273L102.204 289.921V288.996L114.618 290.544V291.469L109.747 294.273Z" fill="#32A5C4"/>
<path d="M109.747 293.357L102.204 288.996L107.066 286.182L114.618 290.544L109.747 293.357Z" fill="#E6F7FF"/>
<path d="M117.829 298.946L110.276 294.594V293.669L122.701 295.217V296.142L117.829 298.946Z" fill="#32A5C4"/>
<path d="M117.829 298.021L110.276 293.669L115.148 290.855L122.701 295.217L117.829 298.021Z" fill="#E6F7FF"/>
<path d="M125.909 303.62L118.356 299.258V298.342L130.771 299.881V300.806L125.909 303.62Z" fill="#32A5C4"/>
<path d="M125.909 302.694L118.356 298.342L123.228 295.529L130.771 299.881L125.909 302.694Z" fill="#E6F7FF"/>
<path d="M133.982 308.293L126.438 303.931V303.006L138.853 304.554V305.479L133.982 308.293Z" fill="#32A5C4"/>
<path d="M133.982 307.368L126.438 303.006L131.301 300.202L138.853 304.554L133.982 307.368Z" fill="#E6F7FF"/>
<path d="M142.054 312.957L134.511 308.604V307.679L146.926 309.227V310.153L142.054 312.957Z" fill="#32A5C4"/>
<path d="M142.054 312.031L134.511 307.679L139.382 304.865L146.926 309.227L142.054 312.031Z" fill="#E6F7FF"/>
<path d="M150.136 317.63L142.592 313.268V312.343L155.007 313.891V314.817L150.136 317.63Z" fill="#32A5C4"/>
<path d="M150.136 316.705L142.592 312.343L147.454 309.539L155.007 313.892L150.136 316.705Z" fill="#E6F7FF"/>
<path d="M158.217 322.303L150.665 317.941V317.016L163.079 318.564V319.489L158.217 322.303Z" fill="#32A5C4"/>
<path d="M158.217 321.378L150.665 317.016L155.536 314.203L163.079 318.564L158.217 321.378Z" fill="#E6F7FF"/>
<path d="M166.289 326.967L158.746 322.615V321.69L171.16 323.238V324.163L166.289 326.967Z" fill="#32A5C4"/>
<path d="M166.289 326.042L158.746 321.689L163.608 318.876L171.16 323.238L166.289 326.042Z" fill="#E6F7FF"/>
<path d="M174.37 331.64L166.827 327.278V326.353L179.242 327.901V328.827L174.37 331.64Z" fill="#32A5C4"/>
<path d="M174.37 330.715L166.827 326.353L171.689 323.549L179.242 327.902L174.37 330.715Z" fill="#E6F7FF"/>
<path d="M182.443 336.313L174.899 331.952V331.026L187.314 332.575V333.5L182.443 336.313Z" fill="#32A5C4"/>
<path d="M182.443 335.388L174.899 331.027L179.771 328.223L187.314 332.575L182.443 335.388Z" fill="#E6F7FF"/>
<path d="M190.524 340.977L182.98 336.615V335.7L195.395 337.248V338.164L190.524 340.977Z" fill="#32A5C4"/>
<path d="M190.524 340.052L182.98 335.7L187.843 332.886L195.395 337.248L190.524 340.052Z" fill="#E6F7FF"/>
<path d="M197.774 345.169L191.052 341.289V340.373L202.646 341.44V342.365L197.774 345.169Z" fill="#32A5C4"/>
<path d="M197.774 344.244L191.052 340.373L195.924 337.56L202.646 341.44L197.774 344.244Z" fill="#E6F7FF"/>
<path d="M99.7682 295.868L86.9097 288.448V287.523L104.64 292.13V293.055L99.7682 295.868Z" fill="#32A5C4"/>
<path d="M99.7682 294.943L86.9097 287.523L91.7717 284.709L104.64 292.13L99.7682 294.943Z" fill="#E6F7FF"/>
<path d="M107.849 300.542L100.306 296.18V295.255L112.721 296.803V297.728L107.849 300.542Z" fill="#32A5C4"/>
<path d="M107.849 299.617L100.306 295.255L105.168 292.451L112.721 296.803L107.849 299.617Z" fill="#E6F7FF"/>
<path d="M115.931 305.205L108.378 300.853V299.928L120.793 301.476V302.392L115.931 305.205Z" fill="#32A5C4"/>
<path d="M115.931 304.28L108.378 299.928L113.249 297.115L120.793 301.476L115.931 304.28Z" fill="#E6F7FF"/>
<path d="M124.003 309.879L116.46 305.526V304.592L128.875 306.14V307.065L124.003 309.879Z" fill="#32A5C4"/>
<path d="M124.003 308.954L116.46 304.592L121.322 301.788L128.875 306.14L124.003 308.954Z" fill="#E6F7FF"/>
<path d="M132.084 314.552L124.531 310.19V309.265L136.946 310.813V311.739L132.084 314.552Z" fill="#32A5C4"/>
<path d="M132.084 313.627L124.531 309.265L129.403 306.452L136.946 310.814L132.084 313.627Z" fill="#E6F7FF"/>
<path d="M140.156 319.216L132.613 314.864V313.938L145.028 315.487V316.403L140.156 319.216Z" fill="#32A5C4"/>
<path d="M140.156 318.291L132.613 313.939L137.475 311.125L145.028 315.487L140.156 318.291Z" fill="#E6F7FF"/>
<path d="M148.238 323.889L140.685 319.528V318.612L153.1 320.16V321.076L148.238 323.889Z" fill="#32A5C4"/>
<path d="M148.238 322.964L140.685 318.612L145.557 315.799L153.1 320.16L148.238 322.964Z" fill="#E6F7FF"/>
<path d="M156.309 328.553L148.766 324.201V323.276L161.181 324.824V325.749L156.309 328.553Z" fill="#32A5C4"/>
<path d="M156.309 327.637L148.766 323.275L153.638 320.462L161.181 324.824L156.309 327.637Z" fill="#E6F7FF"/>
<path d="M164.39 333.226L156.847 328.865V327.949L169.262 329.497V330.413L164.39 333.226Z" fill="#32A5C4"/>
<path d="M164.39 332.301L156.847 327.949L161.709 325.135L169.262 329.497L164.39 332.301Z" fill="#E6F7FF"/>
<path d="M172.473 337.899L164.92 333.537V332.612L177.335 334.161V335.086L172.473 337.899Z" fill="#32A5C4"/>
<path d="M172.473 336.974L164.92 332.613L169.791 329.809L177.335 334.161L172.473 336.974Z" fill="#E6F7FF"/>
<path d="M180.545 342.563L172.992 338.211V337.286L185.416 338.834V339.759L180.545 342.563Z" fill="#32A5C4"/>
<path d="M180.545 341.648L172.992 337.286L177.864 334.472L185.416 338.834L180.545 341.648Z" fill="#E6F7FF"/>
<path d="M191.467 348.794L181.073 342.884V341.959L196.329 345.065V345.99L191.467 348.794Z" fill="#32A5C4"/>
<path d="M191.467 347.879L181.073 341.959L185.944 339.146L196.329 345.065L191.467 347.879Z" fill="#E6F7FF"/>
<path d="M89.7791 297.426L80.6309 292.064V291.138L94.6506 293.697V294.613L89.7791 297.426Z" fill="#32A5C4"/>
<path d="M89.7791 296.501L80.6309 291.139L85.5024 288.335L94.6506 293.697L89.7791 296.501Z" fill="#E6F7FF"/>
<path d="M97.8608 302.099L90.3081 297.738V296.822L102.732 298.361V299.286L97.8608 302.099Z" fill="#32A5C4"/>
<path d="M97.8608 301.174L90.3081 296.822L95.1796 294.009L102.732 298.361L97.8608 301.174Z" fill="#E6F7FF"/>
<path d="M105.933 306.763L98.3896 302.411V301.486L110.804 303.034V303.959L105.933 306.763Z" fill="#32A5C4"/>
<path d="M105.933 305.848L98.3896 301.486L103.261 298.673L110.804 303.034L105.933 305.848Z" fill="#E6F7FF"/>
<path d="M154.242 334.765L106.462 307.084V306.159L159.114 331.036V331.952L154.242 334.765Z" fill="#32A5C4"/>
<path d="M154.242 333.84L106.462 306.159L111.333 303.346L159.114 331.036L154.242 333.84Z" fill="#E6F7FF"/>
<path d="M162.475 339.457L154.932 335.105V334.18L167.346 335.728V336.653L162.475 339.457Z" fill="#32A5C4"/>
<path d="M162.475 338.532L154.932 334.18L159.794 331.366L167.346 335.728L162.475 338.532Z" fill="#E6F7FF"/>
<path d="M170.557 344.13L163.004 339.769V338.844L175.419 340.392V341.317L170.557 344.13Z" fill="#32A5C4"/>
<path d="M170.557 343.205L163.004 338.844L167.875 336.04L175.419 340.392L170.557 343.205Z" fill="#E6F7FF"/>
<path d="M178.628 348.794L171.085 344.442V343.517L183.5 345.065V345.99L178.628 348.794Z" fill="#32A5C4"/>
<path d="M178.628 347.879L171.085 343.517L175.947 340.704L183.5 345.065L178.628 347.879Z" fill="#E6F7FF"/>
<path d="M185.133 352.533L179.157 349.106V348.19L190.004 348.794V349.72L185.133 352.533Z" fill="#32A5C4"/>
<path d="M185.133 351.607L179.157 348.19L184.028 345.376L190.004 348.794L185.133 351.607Z" fill="#E6F7FF"/>
<path d="M188.446 205.491V231.293C188.446 236.598 191.949 241.895 198.954 245.936C212.955 254.026 235.66 254.026 249.671 245.936C256.676 241.895 260.178 236.598 260.169 231.293V205.491H188.446Z" fill="#0A253F"/>
<path d="M222.924 239.063L161.455 203.565V201.865H284.394V203.565L222.924 239.063Z" fill="#0B2D4F"/>
<path d="M222.924 237.354L161.455 201.866L222.924 166.377L284.394 201.866L222.924 237.354Z" fill="#164072"/>
<path d="M256.903 240.866H254.778V219.01L222.453 202.819L223.406 200.921L256.903 217.698V240.866Z" fill="#FFD629"/>
<path d="M227.324 202.253C227.324 203.423 225.757 204.377 223.812 204.377C221.867 204.377 220.31 203.433 220.31 202.253C220.31 201.073 221.877 200.128 223.812 200.128C225.748 200.128 227.324 201.082 227.324 202.253Z" fill="#FFD629"/>
<path d="M258.375 250.646V239.789C258.375 239.133 258.115 238.504 257.651 238.04C257.187 237.577 256.558 237.316 255.902 237.316C255.246 237.316 254.617 237.577 254.153 238.04C253.689 238.504 253.428 239.133 253.428 239.789V250.646H258.375Z" fill="#FFF42C"/>
<path d="M327.143 0L262.123 25.4527L290.153 28.7853L327.143 0Z" fill="white"/>
<path d="M289.7 28.7287L294.043 40.8697L327.143 0L289.7 28.7287Z" fill="#97DFFF"/>
<path d="M299 31.5232L294.043 40.8697L327.143 0L299 31.5232Z" fill="#55C3FE"/>
<path d="M327.143 0L318.382 42.8712L299 31.5232L327.143 0Z" fill="white"/>
<path d="M287.982 41.285L286.537 40.0671C288.104 38.179 288.982 37.2349 288.982 37.2349L290.417 38.4622L287.982 41.285Z" fill="#35AFE5"/>
<path d="M309.592 246.908H306.674V245.02C309.195 245.02 311.678 245.02 314.171 245.02L314.227 246.908C312.688 246.88 311.121 246.908 309.592 246.908ZM299.093 246.587C296.894 246.464 294.628 246.285 292.362 246.077L291.541 245.992L291.72 244.104L292.541 244.189C294.779 244.397 297.026 244.567 299.207 244.699L299.093 246.587ZM321.846 246.445L321.695 244.557C324.216 244.359 326.727 244.104 329.153 243.792L329.399 245.681C326.916 245.992 324.376 246.247 321.865 246.445H321.846ZM284.007 245.095C281.477 244.737 278.956 244.321 276.52 243.868L276.869 241.98C279.277 242.433 281.769 242.848 284.271 243.198L284.007 245.095ZM336.876 244.501L336.536 242.612C339 242.15 341.464 241.668 343.853 241.026L344.306 242.858C341.88 243.49 339.387 244.028 336.876 244.51V244.501ZM269.081 242.263C266.588 241.659 264.124 240.979 261.764 240.252L262.321 238.449C264.644 239.166 267.042 239.837 269.534 240.431L269.081 242.263ZM351.623 240.809L351.047 239.015C353.454 238.241 355.767 237.392 358.09 236.485L358.788 238.241C356.475 239.166 354.068 240.026 351.623 240.809ZM254.57 237.769C252.172 236.825 249.85 235.834 247.574 234.767L248.386 233.068C250.586 234.116 252.89 235.097 255.25 236.004L254.57 237.769ZM365.746 235.145L364.906 233.455C367.172 232.341 369.371 231.142 371.515 229.886L372.459 231.5C370.297 232.784 368.05 234.012 365.746 235.145ZM240.843 231.198C238.649 229.914 236.522 228.518 234.47 227.016L235.575 225.496C237.539 226.922 239.635 228.328 241.806 229.574L240.843 231.198ZM378.784 227.28L377.67 225.751C379.672 224.277 381.598 222.702 383.438 221.03L384.704 222.428C382.814 224.145 380.839 225.765 378.784 227.28ZM228.541 222.192C226.657 220.474 224.872 218.649 223.198 216.725L224.624 215.489C226.248 217.359 227.982 219.13 229.816 220.794L228.541 222.192ZM390.085 217.018L388.669 215.762C390.31 213.91 391.836 211.958 393.238 209.918L394.796 210.985C393.35 213.09 391.777 215.105 390.085 217.018ZM218.544 210.655C217.112 208.536 215.816 206.329 214.663 204.046L216.353 203.197C217.477 205.404 218.739 207.538 220.13 209.588L218.544 210.655ZM398.695 204.386L397.005 203.536C398.115 201.33 399.061 199.046 399.837 196.701L401.631 197.287C400.83 199.723 399.849 202.096 398.695 204.386ZM211.633 197.032C210.766 194.631 210.041 192.182 209.461 189.696L211.293 189.262C211.863 191.676 212.569 194.055 213.408 196.39L211.633 197.032ZM403.425 189.819L401.537 189.526C401.886 187.296 402.063 185.043 402.065 182.785V182.2H403.954V182.842C403.953 185.178 403.776 187.51 403.425 189.819ZM208.121 182.2C207.819 179.717 207.63 177.149 207.573 174.581H209.461C209.518 177.083 209.697 179.585 209.99 182.011L208.121 182.2ZM401.329 174.864C400.868 172.448 400.198 170.075 399.327 167.774L401.093 167.104C402.005 169.509 402.706 171.989 403.189 174.515L401.329 174.864ZM209.679 167.095L207.79 166.962C207.96 164.461 208.262 161.911 208.668 159.41L210.557 159.712C210.113 162.129 209.83 164.621 209.65 167.095H209.679ZM396.193 161.1C394.949 158.965 393.548 156.927 392.001 155.001L393.484 153.821C395.081 155.825 396.532 157.942 397.826 160.155L396.193 161.1ZM212.02 152.367L210.188 151.914C210.793 149.459 211.501 146.995 212.303 144.597L214.097 145.192C213.294 147.524 212.586 149.931 211.992 152.338L212.02 152.367ZM216.74 138.205L215.003 137.469C216.004 135.109 217.109 132.749 218.289 130.587L219.95 131.474C218.789 133.608 217.703 135.873 216.721 138.177L216.74 138.205ZM223.755 125.054L222.169 124.025C223.472 122.014 224.878 119.899 226.361 117.719L227.918 118.776C226.427 120.919 225.029 123.024 223.736 125.026L223.755 125.054ZM232.176 112.545L230.637 111.459C232.063 109.429 233.526 107.371 235.027 105.304L236.557 106.408C235.071 108.473 233.611 110.518 232.176 112.545ZM241.003 100.319L239.493 99.205C240.985 97.1846 242.495 95.1548 244.015 93.1439L245.516 94.2768C244.015 96.2877 242.505 98.3081 241.013 100.319H241.003ZM250.114 88.2724L248.613 87.1301C250.161 85.1097 251.703 83.1145 253.239 81.1445L254.731 82.3058C253.182 84.2695 251.634 86.2709 250.114 88.2724ZM259.385 76.3674L257.903 75.1968C259.489 73.1858 261.056 71.2032 262.623 69.2773L264.096 70.4574L259.385 76.3674ZM268.826 64.5663L267.353 63.3862C269.005 61.3469 270.591 59.3832 272.121 57.5139L273.584 58.7129C272.007 60.5728 270.421 62.5365 268.779 64.5663H268.826ZM278.323 52.8596L276.86 51.6606L281.684 45.845L283.138 47.0534C281.703 48.7905 280.079 50.7354 278.323 52.8596Z" fill="#8DA1F8"/>
<path d="M386.847 149.403C385.959 148.562 385.025 147.732 384.071 146.939L385.28 145.485C386.271 146.315 387.234 147.165 388.112 148.034L386.847 149.403Z" fill="#35AFE5"/>
<path d="M94.6512 189.517L92.9141 188.771C93.6421 187.155 94.4552 185.58 95.3498 184.05V187.864C95.1421 188.355 95.2837 187.987 94.6512 189.517Z" fill="#1D6BAA"/>
<path d="M125.796 251.487C124.616 251.487 123.398 251.487 122.162 251.373L122.275 249.485C124.774 249.647 127.281 249.647 129.78 249.485L129.922 251.373C128.591 251.43 127.203 251.487 125.796 251.487ZM114.467 250.543C111.904 250.11 109.379 249.479 106.915 248.655L107.509 246.87C109.88 247.649 112.307 248.246 114.769 248.655L114.467 250.543ZM137.597 250.165L137.144 248.334C139.558 247.752 141.906 246.923 144.149 245.86L144.961 247.569C142.604 248.684 140.14 249.557 137.607 250.174L137.597 250.165ZM99.8338 245.445C97.5691 244.099 95.5063 242.44 93.7067 240.516L95.0851 239.232C96.7669 241.026 98.6928 242.574 100.806 243.83L99.8338 245.445ZM151.636 243.424L150.456 241.951C152.385 240.4 154.136 238.64 155.677 236.702L157.159 237.873C155.524 239.919 153.662 241.771 151.608 243.396L151.636 243.424ZM89.26 233.983C88.131 231.611 87.3093 229.105 86.8148 226.525L88.703 226.157C89.1431 228.585 89.8952 230.946 90.9405 233.181L89.26 233.983ZM161.37 231.293L159.689 230.443C160.816 228.215 161.763 225.901 162.521 223.523L164.315 224.089C163.532 226.567 162.547 228.976 161.37 231.293ZM86.0879 218.774V218.547C86.0964 216.021 86.273 213.498 86.6166 210.995L88.5048 211.24C88.1707 213.652 87.9973 216.084 87.9855 218.519V218.727L86.0879 218.774ZM166.09 216.537L164.202 216.197C164.645 213.722 164.96 211.226 165.146 208.719L167.034 208.852C166.857 211.428 166.542 213.994 166.09 216.537ZM89.8359 203.839L88.0044 203.395C88.5897 200.969 89.3167 198.476 90.1475 195.984L91.9412 196.588C91.1482 199.033 90.4401 201.469 89.8643 203.839H89.8359ZM165.363 201.167C165.363 198.722 165.184 196.182 164.948 193.614L166.836 193.444C167.072 196.059 167.214 198.646 167.251 201.138L165.363 201.167ZM164.013 186.061C163.635 183.616 163.173 181.114 162.625 178.603L164.514 178.206C165.061 180.746 165.533 183.295 165.92 185.759L164.013 186.061ZM160.832 171.239C160.18 168.832 159.453 166.377 158.66 163.96L160.463 163.375C161.256 165.829 161.993 168.303 162.654 170.739L160.832 171.239ZM156.253 156.71C155.488 154.283 154.77 151.8 154.129 149.327L155.951 148.845C156.593 151.29 157.301 153.745 158.056 156.143L156.253 156.71ZM152.391 141.831C151.891 139.329 151.447 136.78 151.07 134.278L152.958 133.995C153.326 136.487 153.76 138.998 154.261 141.472L152.391 141.831ZM150.154 126.621C149.918 124.053 149.757 121.467 149.672 118.936L151.561 118.87C151.646 121.372 151.806 123.921 152.033 126.423L150.154 126.621ZM151.523 111.299L149.635 111.242C149.71 108.646 149.861 106.059 150.097 103.557L151.985 103.737C151.749 106.238 151.598 108.778 151.523 111.337V111.299ZM152.948 96.1933L151.06 95.8818C151.494 93.295 152.004 90.7554 152.646 88.329L154.478 88.7916C153.892 91.2368 153.373 93.7292 152.948 96.2877V96.1933ZM156.725 81.5882L154.95 80.9462C155.83 78.5157 156.851 76.1388 158.009 73.8278L159.699 74.6775C158.564 76.942 157.565 79.2717 156.706 81.6543L156.725 81.5882ZM163.541 68.2577L162.002 67.1625C163.5 65.03 165.198 63.0448 167.072 61.2336L168.375 62.5931C166.58 64.3455 164.955 66.2643 163.522 68.3238L163.541 68.2577ZM209.877 59.2038C207.622 58.1028 205.301 57.1412 202.929 56.3244L203.542 54.54C205.986 55.3811 208.376 56.3711 210.698 57.5045L209.877 59.2038ZM174.238 58.0804L173.294 56.466C175.549 55.1173 177.966 54.0609 180.488 53.3222L181.016 55.1348C178.633 55.849 176.349 56.8609 174.219 58.1465L174.238 58.0804ZM195.687 54.4739C193.241 54.0464 190.758 53.8756 188.276 53.9641L188.201 52.076C190.814 51.9812 193.43 52.1552 196.008 52.5952L195.687 54.4739Z" fill="#8DA1F8"/>
<path d="M219.781 65.0102C218.733 64.3116 217.675 63.6318 216.627 62.9993L217.619 61.3849C218.676 62.0363 219.762 62.7255 220.829 63.443L219.781 65.0102Z" fill="#1D6BAA"/>
<path d="M100.741 56.4283C100.741 56.4283 100.609 63.2069 104.149 64.6797C106.981 64.1132 103.809 56.8154 103.809 56.8154L100.741 56.4283Z" fill="#112F5B"/>
<g style="mix-blend-mode:multiply">
<path d="M144.008 110.959C144.493 110.673 144.889 110.258 145.15 109.76L142.762 111.1C143.179 111.074 143.595 111.027 144.008 110.959Z" fill="#E2E2E2"/>
</g>
<g style="mix-blend-mode:multiply">
<path d="M152.93 175.299C152.881 175.138 152.808 174.985 152.713 174.846C151.674 173.345 147.407 170.012 146.208 169.096C146.247 169.042 146.281 168.985 146.312 168.926C146.312 168.926 147.181 146.042 144.764 136.166C143.886 132.541 140.61 128.689 136.824 125.262L136.541 118.521L137.117 114.263L105.669 131.871C111.485 134.533 118.424 137.639 118.424 137.639C118.424 137.639 122.766 180.633 122.984 180.793C122.869 180.883 122.789 181.01 122.757 181.152C122.688 181.587 122.644 182.025 122.625 182.465C122.625 182.465 122.625 182.521 122.625 182.549C122.624 182.684 122.643 182.817 122.681 182.946C122.729 183.064 122.793 183.175 122.87 183.276L122.936 183.352C123.039 183.46 123.157 183.552 123.286 183.626C124.164 184.126 125.117 184.749 129.611 187.119C129.875 187.261 130.14 187.393 130.395 187.506L130.64 187.6L131.141 187.799L131.414 187.884L131.839 188.016L132.113 188.072L132.491 188.148H132.755H133.095H133.633H133.869H134.114L134.341 188.101L134.53 188.054L134.756 187.978L134.87 187.921C134.951 187.889 135.03 187.851 135.106 187.808C135.374 187.674 135.586 187.447 135.702 187.17C135.818 186.893 135.831 186.583 135.738 186.298C135.69 186.134 135.613 185.981 135.512 185.844C134.568 184.438 130.735 181.426 129.271 180.303L129.422 180.152C129.422 180.152 129.422 158.239 128.006 148.166C127.487 144.389 131.254 147.882 128.393 144.389C132.859 146.202 135.833 137.243 135.833 137.243L139.609 170.748L139.807 170.833C139.794 171.025 139.794 171.218 139.807 171.409V171.494C139.81 171.625 139.829 171.755 139.864 171.881C139.907 172 139.967 172.111 140.043 172.212L140.109 172.278C140.211 172.389 140.329 172.484 140.459 172.561C141.337 173.061 142.29 173.684 146.784 176.054C147.058 176.196 147.313 176.319 147.577 176.432L147.823 176.536L148.314 176.724L148.587 176.819L149.022 176.942L149.286 177.008L149.673 177.083H149.928H150.268H151.042H151.297H151.514L151.712 177.027L151.929 176.96L152.052 176.904L152.279 176.791C152.544 176.657 152.755 176.435 152.874 176.162C152.993 175.89 153.013 175.584 152.93 175.299Z" fill="#E2E2E2"/>
</g>
<path d="M145.585 119.465C145.585 119.465 140.194 119.9 139.051 124.337C138.107 128.113 136.616 125.848 136.927 126.556C137.239 127.264 139.958 132.598 142.592 130.238C145.226 127.877 149.012 125.442 147.529 120.447C147.008 119.914 146.324 119.568 145.585 119.465Z" fill="#0B223D"/>
<path d="M130.923 128.746C130.923 128.746 125.532 129.18 124.399 133.617C123.455 137.441 123.455 137.592 123.767 138.338C124.078 139.084 125.306 141.916 127.902 139.556C130.498 137.195 135.776 136.487 134.294 131.493C133.255 130.511 130.923 128.746 130.923 128.746Z" fill="#112F5B"/>
<path d="M121.595 64.7456C121.595 64.7456 121.5 63.8015 118.913 69.5227C116.327 75.2439 122.539 93.6065 124.012 95.6174C125.484 97.6283 143.97 103.293 148.039 97.0241C145.499 95.7212 147.954 93.8425 147.453 90.9064C139.901 93.5498 129.025 89.0182 126.683 87.0828C122.869 83.9012 128.562 72.6854 121.595 64.7456Z" fill="url(#paint3_linear)"/>
<path d="M150.325 158.012C150.325 158.012 156.631 162.242 157.877 163.988C159.124 165.735 156.461 167.604 151.977 165.235C147.492 162.865 146.52 162.242 145.651 161.741C144.783 161.241 144.839 158.815 145.651 157.361C146.265 156.228 150.325 158.012 150.325 158.012Z" fill="#A3B4FA"/>
<path d="M145.612 160.939C146.481 161.439 147.444 162.063 151.938 164.432C155.308 166.207 157.602 165.593 158.056 164.432C158.565 166.018 156.035 167.387 151.938 165.225C147.444 162.856 146.481 162.232 145.612 161.732C144.942 161.345 144.885 160.845 144.97 160.052C144.997 160.241 145.069 160.42 145.181 160.575C145.293 160.73 145.441 160.855 145.612 160.939Z" fill="#4C4C4C"/>
<path d="M102.959 104.058C102.959 104.058 103.167 116.746 114.374 119.503C125.58 122.26 140.232 126.555 140.232 126.555L145.84 158.654C145.84 158.654 147.728 160.543 149.248 159.929C149.608 159.773 149.907 159.505 150.101 159.164C150.295 158.824 150.373 158.43 150.325 158.041C150.325 158.041 151.099 134.288 149.031 124.337C147.492 116.973 121.473 105.88 121.473 105.88L102.959 104.058Z" fill="url(#paint4_linear)"/>
<path d="M147.492 120.447C141.497 111.95 127.308 103.793 127.308 103.793L102.959 104.058C102.959 104.058 103.167 116.746 114.374 119.503C123.862 121.835 135.597 127.707 138.429 129.019C138.523 123.808 142.489 118.191 147.492 120.447Z" fill="#6782F7"/>
<path d="M133.86 169.04C133.86 169.04 139.477 173.288 140.685 175.035C141.894 176.781 139.269 178.65 134.775 176.281C130.281 173.911 129.328 173.288 128.459 172.788C127.591 172.287 127.581 169.634 128.525 167.944C129.167 166.812 133.86 169.04 133.86 169.04Z" fill="#A3B4FA"/>
<path d="M128.459 171.985C129.328 172.485 130.281 173.108 134.775 175.478C138.155 177.262 140.44 176.649 140.902 175.478C141.412 177.064 138.882 178.433 134.775 176.271C130.281 173.901 129.328 173.278 128.459 172.778C127.789 172.4 127.732 171.89 127.808 171.097C127.837 171.287 127.911 171.466 128.025 171.621C128.138 171.776 128.287 171.9 128.459 171.985Z" fill="#4C4C4C"/>
<path d="M91.8571 111.554C91.8571 111.554 90.7808 124.195 101.647 128.075C112.514 131.956 125.958 136.884 125.958 136.884L128.592 168.728C128.955 169.202 129.426 169.581 129.967 169.834C130.508 170.087 131.101 170.207 131.698 170.182C133.935 170.182 133.86 169.04 133.86 169.04C133.86 169.04 136.239 146.013 134.804 135.94C133.369 125.866 119.009 114.027 119.009 114.027L91.8571 111.554Z" fill="url(#paint5_linear)"/>
<path d="M134.294 131.455C130.168 122.666 119.047 114.027 119.047 114.027L91.8571 111.554C91.8571 111.554 90.7808 124.195 101.647 128.075C111.201 131.484 122.191 138.262 124.419 139.603C125.882 134.788 128.101 130.011 134.294 131.455Z" fill="#6782F7"/>
<path d="M128.893 104.851C128.893 104.851 130.102 66.9455 118.508 62.5177C106.915 58.0899 96.3503 68.626 91.8281 78.8316C87.306 89.0372 88.5049 106.796 91.8281 113.395C107.717 124.308 129.337 110.09 128.893 104.851Z" fill="#A3B4FA"/>
<path d="M91.8571 78.8315C96.3793 68.6258 106.963 58.0615 118.537 62.5176C118.919 62.6638 119.286 62.8472 119.632 63.0651C111.135 64.1414 103.875 72.3172 100.344 80.2948C95.8317 90.5004 97.0213 108.259 100.344 114.858C101.868 115.901 103.514 116.754 105.244 117.398C100.475 117.48 95.798 116.082 91.8571 113.395C88.5339 106.795 87.3443 89.0371 91.8571 78.8315Z" fill="#879EFF"/>
<path d="M121.794 45.6185C121.794 45.6185 124.682 50.2445 122.096 60.2708C119.99 68.3899 119.679 72.8838 116.29 73.2331C112.9 73.5824 102.742 71.09 103.856 62.6404C102.846 62.4233 100.778 58.5525 102.402 55.4748C104.026 52.397 105.178 55.758 105.178 55.758C105.178 55.758 105.111 49.055 109.898 46.6098C114.685 44.1646 121.794 45.6185 121.794 45.6185Z" fill="url(#paint6_linear)"/>
<path d="M110.653 53.6811C110.653 53.2941 114.269 58.4016 120.094 56.7683C119.559 56.6461 119.059 56.402 118.633 56.0548C118.207 55.7076 117.867 55.2669 117.64 54.7668C118.263 55.5253 119.09 56.0893 120.024 56.3922C120.957 56.695 121.958 56.724 122.908 56.4756C122.146 56.1843 121.435 55.7732 120.802 55.2578C122.143 55.9244 123.692 56.0396 125.117 55.5788C123.786 55.0029 123.984 54.1249 123.984 54.1249C123.984 54.1249 125.164 55.305 127.449 53.3035C126.505 53.1902 126.618 48.9135 123.248 45.8357C119.877 42.758 117.158 42.0594 112.645 42.7958C113.101 42.2261 113.699 41.786 114.378 41.5192C115.057 41.2525 115.794 41.1686 116.516 41.2758C114.713 40.2656 110.908 42.0688 109.785 43.7304C106.282 42.3898 99.6926 44.6745 101.873 57.4669C101.873 57.1459 102.204 55.0689 103.441 54.6819C104.677 54.2948 105.716 56.7211 105.433 57.3348C105.187 58.7384 105.048 60.1586 105.017 61.5832L106.622 62.4234C106.622 62.4234 106.122 59.2607 107.264 58.3072C108.407 57.3536 110.436 58.5243 110.653 53.6811Z" fill="#263238"/>
<path d="M149.333 82.2587L142.479 91.4447L120.35 86.2899L121.615 114.896L141.752 114.65L148.38 106.588L149.333 82.2587Z" fill="white"/>
<path d="M149.333 78.3879L142.479 91.4447L141.752 114.65L148.379 106.588L149.333 78.3879Z" fill="#E6F7FF"/>
<path d="M148.918 92.7476C148.918 92.7476 147.398 95.8631 146.454 96.2218C145.509 96.5806 146.265 101.764 149.097 100.064C151.929 98.3649 150.664 92.9175 148.918 92.7476Z" fill="url(#paint7_linear)"/>
<path d="M129.932 101.792C128.318 101.679 126.495 102.066 123.663 102.122C120.831 102.179 120.944 100.574 120.831 98.2892C119.934 98.9595 119.396 100.734 117.951 101.782C116.507 102.83 115.827 101.782 115.827 101.782L115.525 102.009C105.282 100.206 98.05 97.6661 96.4262 95.2304C94.8023 92.7946 99.3245 85.1947 99.7211 78.3878C99.7211 78.3878 100.665 69.891 95.1517 72.9593C89.6382 76.0276 87.835 97.9305 87.835 100.432C87.835 102.934 106.207 106.39 115.808 107.268C117.492 108.301 119.386 108.946 121.35 109.156C129.62 109.014 131.537 101.952 129.932 101.792Z" fill="url(#paint8_linear)"/>
<path d="M101.119 77.6421C101.119 77.6421 100.628 69.8533 95.1519 72.9216C92.3196 74.5077 89.4873 82.9007 87.2876 88.3481C90.3273 90.5844 93.8483 92.0781 97.5687 92.7098C100.282 88.1752 101.522 82.9109 101.119 77.6421Z" fill="#A3B4FA"/>
<defs>
<linearGradient id="paint0_linear" x1="342.616" y1="64.9407" x2="322.176" y2="68.1097" gradientUnits="userSpaceOnUse">
<stop stop-color="#FFE2C4"/>
<stop offset="1" stop-color="#FFB870"/>
</linearGradient>
<linearGradient id="paint1_linear" x1="328.578" y1="110.732" x2="313.869" y2="113.026" gradientUnits="userSpaceOnUse">
<stop stop-color="#FFB870"/>
<stop offset="1" stop-color="#FFE2C4"/>
</linearGradient>
<linearGradient id="paint2_linear" x1="1857.14" y1="1362.61" x2="1833.49" y2="1364.87" gradientUnits="userSpaceOnUse">
<stop stop-color="#FFB870"/>
<stop offset="1" stop-color="#FFE2C4"/>
</linearGradient>
<linearGradient id="paint3_linear" x1="4264.29" y1="5034.59" x2="5201.65" y2="5034.59" gradientUnits="userSpaceOnUse">
<stop stop-color="#FFB870"/>
<stop offset="1" stop-color="#FFE2C4"/>
</linearGradient>
<linearGradient id="paint4_linear" x1="5952.49" y1="10960.7" x2="8343.04" y2="10960.7" gradientUnits="userSpaceOnUse">
<stop stop-color="#FFE2C4"/>
<stop offset="1" stop-color="#FFB870"/>
</linearGradient>
<linearGradient id="paint5_linear" x1="4928.03" y1="12026.6" x2="6926.97" y2="12026.6" gradientUnits="userSpaceOnUse">
<stop stop-color="#FFE2C4"/>
<stop offset="1" stop-color="#FFB870"/>
</linearGradient>
<linearGradient id="paint6_linear" x1="-5711.38" y1="4140.67" x2="-5248.67" y2="4212.41" gradientUnits="userSpaceOnUse">
<stop stop-color="#FFE2C4"/>
<stop offset="1" stop-color="#FFB870"/>
</linearGradient>
<linearGradient id="paint7_linear" x1="-559.097" y1="1286.99" x2="-535.691" y2="1289.22" gradientUnits="userSpaceOnUse">
<stop stop-color="#FFB870"/>
<stop offset="1" stop-color="#FFE2C4"/>
</linearGradient>
<linearGradient id="paint8_linear" x1="4652.43" y1="5606.02" x2="6576.12" y2="5606.02" gradientUnits="userSpaceOnUse">
<stop stop-color="#FFB870"/>
<stop offset="1" stop-color="#FFE2C4"/>
</linearGradient>
</defs>
</svg>
