<svg width="97" height="97" viewBox="0 0 97 97" fill="none" xmlns="http://www.w3.org/2000/svg">
<path d="M40.4381 6.4856C21.6951 6.4856 6.50098 21.6797 6.50098 40.4227C6.50098 59.1657 21.6951 74.3599 40.4381 74.3599C59.1811 74.3599 74.3752 59.1657 74.3752 40.4227C74.3548 21.6882 59.1726 6.506 40.4381 6.4856ZM40.4381 9.7177C50.4205 9.72558 59.7748 14.5907 65.5128 22.7593L61.4727 26.7994C60.4895 26.2045 59.3639 25.8861 58.2147 25.8782C54.6446 25.8782 51.7505 28.7724 51.7505 32.3425C51.7561 33.4929 52.0727 34.6203 52.6668 35.6053L42.0849 46.1872C40.0812 44.9655 37.5629 44.9655 35.5592 46.1872L28.2094 38.8374C28.8035 37.8524 29.1201 36.725 29.1257 35.5746C29.1302 32.0116 26.2455 29.1196 22.6825 29.1152C19.7359 29.1116 17.1613 31.1048 16.4268 33.9585H10.4312C13.491 19.8287 25.9809 9.73891 40.4381 9.7177ZM61.4468 32.3425C61.4468 34.1276 59.9998 35.5746 58.2147 35.5746C56.4296 35.5746 54.9826 34.1276 54.9826 32.3425C54.9826 30.5573 56.4296 29.1103 58.2147 29.1103C59.9998 29.1103 61.4468 30.5573 61.4468 32.3425ZM42.0542 51.7351C42.0542 53.5202 40.6072 54.9672 38.8221 54.9672C37.0369 54.9672 35.5899 53.5202 35.5899 51.7351C35.5899 49.95 37.0369 48.503 38.8221 48.503C40.6072 48.503 42.0542 49.95 42.0542 51.7351ZM25.8936 35.5746C25.8936 37.3597 24.4466 38.8067 22.6615 38.8067C20.8764 38.8067 19.4294 37.3597 19.4294 35.5746C19.4294 33.7894 20.8764 32.3425 22.6615 32.3425C24.4466 32.3425 25.8936 33.7894 25.8936 35.5746ZM55.3571 67.2706C50.7934 69.8046 45.6584 71.1322 40.4381 71.1275C23.4918 71.1391 9.7446 57.4109 9.73308 40.4645C9.73228 39.3709 9.79005 38.2778 9.906 37.1904H16.4268C17.1615 40.0357 19.7229 42.0275 22.6615 42.0386C23.8119 42.0329 24.9393 41.7164 25.9243 41.1223L33.2741 48.4721C32.68 49.4571 32.3635 50.5845 32.3578 51.7349C32.3578 55.305 35.252 58.1991 38.8221 58.1991C42.3921 58.1991 45.2863 55.305 45.2863 51.7349C45.2806 50.5845 44.9641 49.4571 44.37 48.4721L54.9519 37.8902C55.9369 38.4843 57.0643 38.8008 58.2147 38.8065C61.7848 38.8065 64.6789 35.9123 64.6789 32.3423C64.6733 31.1918 64.3567 30.0644 63.7626 29.0794L67.2856 25.5581C75.5103 40.3708 70.1697 59.0461 55.3571 67.2706Z" fill="#4159B4"/>
<path d="M80.8394 16.1826C83.778 16.1715 86.3394 14.1799 87.0741 11.3344H96.9999V8.10231H87.0741C86.3394 5.25684 83.778 3.26525 80.8394 3.25414C77.2693 3.25414 74.3752 6.14829 74.3752 9.71836C74.3808 10.8688 74.6974 11.9962 75.2915 12.9812L72.4521 15.8206C58.8661 -1.87945 33.5038 -5.21458 15.8037 8.37138C-1.8963 21.9573 -5.23143 47.3199 8.35453 65.0199C21.1787 81.7273 44.6865 85.7802 62.3647 74.3314L67.2419 79.2087L69.527 81.4938L82.5363 94.503C85.8449 97.8117 91.209 97.8117 94.5177 94.503C97.8264 91.1944 97.8264 85.8303 94.5177 82.5216L81.5084 69.5124L79.2234 67.2273L74.3461 62.35C83.0039 49.0143 83.0039 31.8326 74.3461 18.4968L77.5782 15.2647C78.5626 15.859 79.6896 16.1761 80.8394 16.1826ZM80.8394 6.48625C82.6245 6.48625 84.0715 7.93323 84.0715 9.71836C84.0715 11.5035 82.6245 12.9505 80.8394 12.9505C79.0543 12.9505 77.6073 11.5035 77.6073 9.71836C77.6073 7.93323 79.0545 6.48625 80.8394 6.48625ZM92.2326 84.8067C94.3023 86.83 94.3401 90.1482 92.3168 92.2179C90.2935 94.2877 86.9754 94.3255 84.9056 92.3022C84.8771 92.2745 84.8492 92.2464 84.8214 92.2179L71.8121 79.2087L79.2234 71.7975L92.2326 84.8067ZM76.9382 69.5124L69.527 76.9236L65.0538 72.4503C65.2816 72.2758 65.495 72.0835 65.7196 71.9041C65.9442 71.7247 66.2044 71.5098 66.4452 71.3078C66.7991 71.0104 67.1482 70.7099 67.4908 70.4012C67.6669 70.2396 67.835 70.078 68.0079 69.9164C68.6705 69.2958 69.3121 68.6542 69.9327 67.9917C70.0943 67.8187 70.2559 67.6507 70.4175 67.4745C70.7261 67.1319 71.0267 66.7829 71.3241 66.4289C71.5267 66.1898 71.7255 65.948 71.9204 65.7033C72.0982 65.4803 72.2905 65.267 72.465 65.0391L76.9382 69.5124ZM70.6712 62.0058C70.1621 62.7169 69.6369 63.4134 69.0826 64.084C68.921 64.2796 68.7481 64.4687 68.5816 64.661C68.0871 65.2363 67.5764 65.7944 67.0496 66.3352C66.8201 66.5722 66.5868 66.8055 66.3499 67.035C65.8111 67.5618 65.2532 68.0725 64.6756 68.567C64.4833 68.7286 64.2942 68.9047 64.0987 69.0679C63.428 69.6223 62.7315 70.1475 62.0205 70.6565C45.2911 82.6083 22.0403 78.7352 10.0886 62.0058C-1.86317 45.2764 2.0099 22.0256 18.7393 10.0739C35.4687 -1.87784 58.7195 1.99504 70.6712 18.7246C79.9193 31.6696 79.9193 49.0608 70.6712 62.0058Z" fill="#4159B4"/>
</svg>
