<svg width="477" height="401" viewBox="0 0 477 401" fill="none" xmlns="http://www.w3.org/2000/svg">
<path fill-rule="evenodd" clip-rule="evenodd" d="M240.472 13.7948C288.129 3.81993 339.593 -10.446 382.943 11.7467C428.677 35.1591 459.894 82.7562 472.554 132.605C484.789 180.781 469.954 230.764 450.141 276.343C431.883 318.345 404.702 356.98 365.073 379.862C327.826 401.367 282.805 404.926 240.472 397.403C202.923 390.729 176.726 360.787 144.335 340.63C108.463 318.306 63.983 308.424 40.7437 273.108C13.5487 231.781 -13.2092 177.296 7.1873 132.214C27.7125 86.8472 91.2044 86.0426 135.566 63.5241C170.94 45.5676 201.652 21.9201 240.472 13.7948Z" fill="#F2F4FF"/>
<path d="M87.5254 168.118V210.948C87.5254 214.67 89.0039 218.239 91.6358 220.871C94.2676 223.503 97.8372 224.981 101.559 224.981H255.122C258.842 224.979 262.41 223.499 265.04 220.868C267.67 218.236 269.147 214.668 269.147 210.948V174.762L288.269 154.678L101.613 154.093C99.7664 154.086 97.9365 154.444 96.2281 155.145C94.5198 155.847 92.9668 156.878 91.658 158.181C90.3493 159.484 89.3105 161.033 88.6014 162.738C87.8922 164.443 87.5266 166.271 87.5254 168.118Z" fill="#F5F5F5"/>
<path d="M246.509 180.039L107.169 179.392L107.178 175.112L246.527 175.751L246.509 180.039Z" fill="#E0E0E0"/>
<path d="M246.509 194.127L107.169 193.488L107.178 189.2L246.527 189.847L246.509 194.127Z" fill="#E0E0E0"/>
<path d="M191.385 203.306L191.364 207.585L246.5 207.855L246.521 203.575L191.385 203.306Z" fill="#E0E0E0"/>
<path d="M229.814 316.098V358.927C229.814 362.649 231.293 366.219 233.925 368.851C236.557 371.483 240.126 372.961 243.848 372.961H397.393C401.114 372.959 404.681 371.479 407.311 368.848C409.941 366.216 411.418 362.648 411.418 358.927V322.742L430.54 302.657L243.875 302.073C242.031 302.069 240.204 302.429 238.499 303.133C236.793 303.836 235.243 304.868 233.938 306.171C232.632 307.473 231.595 309.02 230.888 310.724C230.18 312.427 229.816 314.253 229.814 316.098Z" fill="#F5F5F5"/>
<path d="M389.473 326.904L250.124 326.266L250.133 321.977L389.482 322.625L389.473 326.904Z" fill="#E0E0E0"/>
<path d="M389.473 340.992L250.124 340.354L250.133 336.065L389.482 336.713L389.473 340.992Z" fill="#E0E0E0"/>
<path d="M334.334 350.162L334.313 354.442L389.45 354.711L389.471 350.432L334.334 350.162Z" fill="#E0E0E0"/>
<path d="M222.083 49.86V78.2692C222.083 80.7371 221.103 83.1038 219.358 84.8488C217.613 86.5938 215.246 87.5742 212.778 87.5742H110.954C109.73 87.5777 108.516 87.3397 107.384 86.8738C106.251 86.4079 105.222 85.7232 104.354 84.8589C103.487 83.9946 102.798 82.9677 102.328 81.837C101.857 80.7062 101.615 79.4939 101.613 78.2692V54.2652L88.9731 40.9416L212.778 40.5551C215.246 40.5551 217.613 41.5354 219.358 43.2804C221.103 45.0254 222.083 47.3922 222.083 49.86Z" fill="#E0E0E0"/>
<path d="M116.663 57.7624L209.083 57.3398L209.074 54.4989L116.654 54.9304L116.663 57.7624Z" fill="#F5F5F5"/>
<path d="M116.663 67.1123L209.083 66.6808L209.074 63.8489L116.654 64.2714L116.663 67.1123Z" fill="#F5F5F5"/>
<path d="M152.705 73.7559H116.133V76.5968H152.705V73.7559Z" fill="#F5F5F5"/>
<path d="M415.05 181.576V209.986C415.05 212.453 414.07 214.82 412.325 216.565C410.58 218.31 408.213 219.291 405.745 219.291H303.894C301.426 219.291 299.058 218.311 297.312 216.566C295.565 214.821 294.583 212.454 294.581 209.986V185.982L281.904 172.658L405.709 172.271C406.934 172.268 408.147 172.506 409.28 172.972C410.412 173.438 411.442 174.122 412.309 174.987C413.177 175.851 413.866 176.878 414.336 178.009C414.806 179.139 415.049 180.352 415.05 181.576Z" fill="#E0E0E0"/>
<path d="M309.603 189.488L402.032 189.056L402.014 186.215L309.594 186.647L309.603 189.488Z" fill="#F5F5F5"/>
<path d="M309.603 198.829L402.032 198.406L402.014 195.565L309.594 195.988L309.603 198.829Z" fill="#F5F5F5"/>
<path d="M344.998 206.425H308.425V209.266H344.998V206.425Z" fill="#F5F5F5"/>
<path d="M306.357 356.833L202.52 356.347C196.529 356.312 190.798 353.9 186.584 349.642C182.37 345.384 180.018 339.628 180.044 333.638L181.141 73.3066C181.167 67.3122 183.572 61.5733 187.826 57.3506C192.081 53.1279 197.838 50.7668 203.832 50.7859L307.67 51.2624C313.661 51.3028 319.391 53.7171 323.604 57.9758C327.817 62.2346 330.17 67.9902 330.146 73.9808L329.067 334.303C329.041 340.301 326.634 346.044 322.376 350.269C318.117 354.493 312.356 356.854 306.357 356.833Z" fill="#D4ECFF"/>
<path d="M307.49 60.2526L287.352 60.1537C286.696 60.1654 286.048 60.3063 285.446 60.5684C284.844 60.8305 284.299 61.2086 283.844 61.6811C283.388 62.1537 283.029 62.7114 282.789 63.3224C282.549 63.9334 282.431 64.5858 282.443 65.2422V68.8923C282.455 69.5487 282.338 70.2011 282.097 70.8121C281.857 71.4231 281.499 71.9808 281.043 72.4534C280.587 72.9259 280.043 73.304 279.441 73.5661C278.839 73.8281 278.191 73.9691 277.535 73.9808L238.292 73.801C236.967 73.7633 235.711 73.2018 234.799 72.2395C233.888 71.2772 233.395 69.9927 233.428 68.6675V65.0175C233.462 63.6908 232.968 62.4049 232.054 61.4424C231.141 60.4798 229.882 59.9193 228.556 59.884H221.48L203.859 59.8031C199.656 59.7864 195.619 61.4387 192.633 64.3972C189.648 67.3556 187.959 71.3781 187.938 75.581L186.868 329.673C186.851 333.874 188.502 337.909 191.459 340.893C194.416 343.876 198.436 345.564 202.637 345.586L306.268 346.062C308.348 346.072 310.41 345.671 312.335 344.884C314.261 344.097 316.012 342.938 317.49 341.474C318.968 340.009 320.142 338.268 320.947 336.35C321.752 334.432 322.171 332.374 322.18 330.293L323.25 76.1924C323.266 74.11 322.87 72.045 322.085 70.1159C321.301 68.1867 320.144 66.4314 318.68 64.9505C317.215 63.4697 315.473 62.2924 313.553 61.4862C311.633 60.6801 309.573 60.2608 307.49 60.2526Z" fill="white"/>
<path d="M248.874 321.699C248.94 322.137 248.87 322.584 248.674 322.981C248.478 323.379 248.165 323.706 247.778 323.92C247.39 324.134 246.946 324.223 246.505 324.177C246.065 324.131 245.649 323.951 245.314 323.661C244.979 323.371 244.741 322.986 244.632 322.557C244.523 322.128 244.548 321.675 244.703 321.261C244.859 320.846 245.138 320.489 245.503 320.238C245.867 319.987 246.3 319.853 246.743 319.856C247.269 319.823 247.786 319.998 248.185 320.343C248.583 320.687 248.83 321.174 248.874 321.699Z" fill="#455A64"/>
<path d="M255.499 321.735C255.564 322.172 255.492 322.619 255.295 323.015C255.097 323.412 254.784 323.738 254.395 323.95C254.007 324.162 253.563 324.251 253.123 324.203C252.683 324.156 252.268 323.975 251.934 323.684C251.6 323.394 251.363 323.008 251.255 322.579C251.147 322.15 251.172 321.698 251.328 321.284C251.485 320.87 251.764 320.514 252.129 320.263C252.493 320.013 252.926 319.88 253.369 319.883C253.896 319.85 254.414 320.026 254.813 320.373C255.211 320.719 255.458 321.208 255.499 321.735Z" fill="#455A64"/>
<path d="M262.125 321.762C262.192 322.199 262.122 322.647 261.926 323.044C261.73 323.441 261.417 323.769 261.029 323.983C260.641 324.196 260.197 324.286 259.757 324.24C259.316 324.194 258.901 324.014 258.566 323.724C258.231 323.434 257.993 323.049 257.883 322.619C257.774 322.19 257.799 321.738 257.955 321.323C258.11 320.909 258.389 320.552 258.754 320.301C259.119 320.049 259.552 319.916 259.995 319.918C260.521 319.884 261.04 320.058 261.438 320.403C261.837 320.748 262.084 321.236 262.125 321.762Z" fill="#455A64"/>
<path d="M218.954 182.745C220.644 182.988 322.504 202.964 322.504 202.964V182.745H218.954Z" fill="#EBEBEB"/>
<path d="M186.904 311.126C186.904 311.126 297.718 295.447 296.747 295.933C295.776 296.418 186.904 295.933 186.904 295.933V311.126Z" fill="#EBEBEB"/>
<path d="M420.974 105.42H218.289C217.248 105.42 216.217 105.625 215.256 106.024C214.294 106.422 213.42 107.007 212.685 107.743C211.949 108.479 211.366 109.354 210.968 110.316C210.571 111.278 210.367 112.309 210.368 113.349V176.218C210.367 177.259 210.571 178.29 210.968 179.252C211.366 180.214 211.949 181.088 212.685 181.825C213.42 182.561 214.294 183.145 215.256 183.544C216.217 183.943 217.248 184.148 218.289 184.148H233.392C234.606 190.711 236.026 198.991 236.026 198.991L249.692 184.148H420.974C422.015 184.148 423.046 183.943 424.007 183.544C424.969 183.145 425.842 182.561 426.578 181.825C427.314 181.088 427.897 180.214 428.294 179.252C428.692 178.29 428.896 177.259 428.895 176.218V113.349C428.896 112.309 428.692 111.278 428.294 110.316C427.897 109.354 427.314 108.479 426.578 107.743C425.842 107.007 424.969 106.422 424.007 106.024C423.046 105.625 422.015 105.42 420.974 105.42Z" fill="#A3B4FA"/>
<path d="M337.347 139.502C337.347 139.628 313.226 139.736 283.477 139.736C253.728 139.736 229.598 139.628 229.598 139.502C229.598 139.376 253.719 139.259 283.477 139.259C313.235 139.259 337.347 139.394 337.347 139.502Z" fill="#F5F5F5"/>
<path d="M337.347 129.865C337.347 129.99 313.226 130.098 283.477 130.098C253.728 130.098 229.598 129.99 229.598 129.865C229.598 129.739 253.719 129.631 283.477 129.631C313.235 129.631 337.347 129.73 337.347 129.865Z" fill="#F5F5F5"/>
<path d="M337.347 149.086C337.347 149.212 313.226 149.32 283.477 149.32C253.728 149.32 229.598 149.212 229.598 149.086C229.598 148.96 253.719 148.852 283.477 148.852C313.235 148.852 337.347 148.951 337.347 149.086Z" fill="#F5F5F5"/>
<path d="M300.172 158.984C300.172 159.11 284.376 159.218 264.885 159.218C245.394 159.218 229.598 159.11 229.598 158.984C229.598 158.858 245.394 158.75 264.885 158.75C284.376 158.75 300.172 158.849 300.172 158.984Z" fill="#F5F5F5"/>
<path d="M329.39 218.455H125.05C124.321 218.454 123.598 218.596 122.924 218.875C122.25 219.154 121.638 219.564 121.122 220.08C120.607 220.596 120.198 221.209 119.921 221.884C119.643 222.558 119.501 223.281 119.503 224.011V290.539C119.503 292.01 120.088 293.421 121.128 294.461C122.168 295.501 123.579 296.086 125.05 296.086H273.462L286.947 310.767C286.947 310.767 288.359 302.514 289.554 296.086H329.363C330.834 296.086 332.245 295.501 333.286 294.461C334.326 293.421 334.91 292.01 334.91 290.539V224.011C334.913 223.283 334.772 222.563 334.496 221.89C334.22 221.217 333.814 220.605 333.301 220.089C332.788 219.574 332.179 219.164 331.508 218.883C330.837 218.603 330.118 218.457 329.39 218.455Z" fill="#8DA1F8"/>
<path d="M321.38 252.78C321.38 252.906 297.259 253.013 267.501 253.013C237.743 253.013 213.623 252.906 213.623 252.78C213.623 252.654 237.743 252.546 267.501 252.546C297.259 252.546 321.38 252.618 321.38 252.78Z" fill="#F5F5F5"/>
<path d="M321.38 243.088C321.38 243.214 297.259 243.322 267.501 243.322C237.743 243.322 213.623 243.214 213.623 243.088C213.623 242.962 237.743 242.854 267.501 242.854C297.259 242.854 321.38 242.953 321.38 243.088Z" fill="#F5F5F5"/>
<path d="M321.38 262.309C321.38 262.435 297.259 262.543 267.501 262.543C237.743 262.543 213.623 262.435 213.623 262.309C213.623 262.183 237.743 262.076 267.501 262.076C297.259 262.076 321.38 262.183 321.38 262.309Z" fill="#F5F5F5"/>
<path d="M284.205 272.207C284.205 272.342 268.409 272.441 248.918 272.441C229.427 272.441 213.623 272.342 213.623 272.207C213.623 272.073 229.427 271.974 248.918 271.974C268.409 271.974 284.205 272.082 284.205 272.207Z" fill="#F5F5F5"/>
<path d="M370.018 78.7546C370.143 77.1004 368.669 74.8259 367.32 73.5133C366.539 72.8091 365.981 71.8918 365.714 70.8743C365.447 69.8568 365.484 68.7835 365.819 67.7865C366.368 65.7457 367.662 65.8985 368.175 64.6938C368.424 63.7625 368.524 62.7976 368.471 61.8349C368.578 61.0217 368.851 60.2392 369.274 59.5363C369.696 58.8333 370.259 58.225 370.927 57.7492C371.595 57.2734 372.354 56.9404 373.157 56.771C373.959 56.6016 374.788 56.5993 375.592 56.7644C376.038 55.169 376.954 53.7446 378.22 52.6762C379.486 51.6079 381.045 50.9449 382.692 50.7733C384.34 50.6017 386.002 50.9295 387.461 51.7141C388.92 52.4987 390.109 53.7039 390.875 55.1731C391.806 54.7002 392.839 54.4639 393.882 54.485C394.926 54.5061 395.949 54.7839 396.86 55.294C397.771 55.8042 398.542 56.5308 399.105 57.4097C399.669 58.2887 400.007 59.2929 400.09 60.3336C401.034 59.7316 402.163 59.491 403.27 59.6562C404.377 59.8214 405.387 60.3813 406.114 61.2326C406.796 62.1231 407.201 63.1949 407.277 64.3142C407.354 65.4334 407.099 66.5504 406.545 67.5258C405.975 68.4931 405.194 69.3191 404.26 69.9419C403.326 70.5646 402.263 70.968 401.151 71.1219C398.921 71.4052 396.657 70.9939 394.669 69.9441C392.689 68.9014 390.892 67.5442 389.347 65.9255" fill="#263238"/>
<path d="M384.717 182.071C406.211 182.071 423.636 165.053 423.636 144.06C423.636 123.067 406.211 106.049 384.717 106.049C363.222 106.049 345.798 123.067 345.798 144.06C345.798 165.053 363.222 182.071 384.717 182.071Z" fill="#E0E0E0"/>
<path d="M423.797 144.087L419.49 133.047L404.054 142.747L417.809 163.955C417.809 163.955 423.401 156.691 423.797 144.087Z" fill="#EB996E"/>
<path d="M381.21 120.173C383.87 120.188 386.433 119.18 388.369 117.358C390.306 115.535 391.467 113.038 391.612 110.382C391.837 105.806 392.035 101.392 392.035 101.392C392.035 101.392 400.522 100.781 401.304 92.4739C402.086 84.1668 402.203 64.9726 402.203 64.9726C397.598 62.5558 392.436 61.4016 387.24 61.6274C382.045 61.8532 377.002 63.451 372.625 66.2582L371.816 66.7707L370.836 109.744C370.826 111.112 371.088 112.468 371.605 113.734C372.122 115 372.885 116.151 373.85 117.12C374.814 118.09 375.962 118.859 377.225 119.383C378.488 119.907 379.843 120.175 381.21 120.173Z" fill="#FFBE9D"/>
<path d="M391.999 101.284C388.126 101.045 384.41 99.6652 381.318 97.3195C381.318 97.3195 383.413 103.514 391.846 103.442L391.999 101.284Z" fill="#EB996E"/>
<path d="M371.563 78.9795C371.571 78.6531 371.451 78.3366 371.23 78.0967C371.009 77.8569 370.703 77.7124 370.377 77.6938C368.812 77.6219 366.241 78.1883 365.882 82.4677C365.414 88.5811 371.384 87.1696 371.411 86.9628C371.438 86.756 371.536 81.3619 371.563 78.9795Z" fill="#FFBE9D"/>
<path d="M370.134 84.5624C370.134 84.5624 370.017 84.6344 369.829 84.6973C369.702 84.75 369.566 84.7771 369.428 84.7771C369.291 84.7771 369.155 84.75 369.028 84.6973C368.649 84.4183 368.351 84.0426 368.166 83.6093C367.981 83.1761 367.916 82.7011 367.977 82.234C367.999 81.7087 368.141 81.1954 368.39 80.7326C368.467 80.5431 368.59 80.3753 368.746 80.2437C368.903 80.1122 369.089 80.0207 369.289 79.9774C369.415 79.9523 369.546 79.9729 369.658 80.0355C369.77 80.0981 369.856 80.1987 369.9 80.319C369.972 80.4898 369.9 80.6157 369.954 80.6247C370.008 80.6337 370.098 80.5348 370.062 80.2741C370.04 80.1206 369.963 79.9803 369.847 79.8785C369.689 79.7378 369.482 79.6637 369.271 79.6717C369.011 79.7049 368.764 79.8052 368.554 79.9628C368.345 80.1204 368.18 80.33 368.075 80.5708C367.767 81.0758 367.594 81.6516 367.572 82.243C367.502 82.7865 367.595 83.3386 367.838 83.8297C368.081 84.3208 368.464 84.729 368.939 85.003C369.101 85.0617 369.275 85.084 369.447 85.0685C369.62 85.053 369.787 84.9999 369.936 84.9131C370.107 84.7153 370.152 84.5804 370.134 84.5624Z" fill="#EB996E"/>
<path d="M403.344 67.5797C403.344 67.5797 398.301 70.0251 391.747 66.7526C387.441 64.604 382.433 63.5521 381.327 64.4152C380.221 65.2782 379.988 69.7194 375.726 71.014C375.726 71.014 376.014 79.4649 372.643 79.1682C369.271 78.8715 371.375 65.7817 371.375 65.7817L379.628 61.754L388.618 60.0549L397.096 61.2506L403.659 63.0486L403.344 67.5797Z" fill="#263238"/>
<path d="M346.876 116.559C355.696 107.488 371.213 108.467 371.213 108.467L384.078 117.682L391.369 109.187C396.539 109.891 401.557 111.443 406.221 113.781L406.716 113.934V114.032C412.362 117.098 420.345 124.452 427.96 131.581L418.853 140.032L408.765 149.023C408.788 149.08 408.788 149.145 408.765 149.202C408.667 149.751 410.168 162.058 411.714 171.408C407.324 175.738 401.945 178.934 396.043 180.718C390.141 182.502 383.892 182.821 377.839 181.648C373.712 180.92 371.717 179.922 367.896 178.951C365.143 178.222 362.682 176.66 360.849 174.48C359.016 172.3 357.901 169.607 357.656 166.769C356.973 158.93 356.451 149.22 356.451 149.22" fill="#6782F7"/>
<path d="M399.434 110.778C399.659 111.244 399.845 111.729 399.991 112.226C400.324 113.125 400.764 114.536 401.295 116.235C402.355 119.633 403.713 124.326 404.99 129.658C406.266 134.989 407.228 139.781 407.831 143.287C408.136 145.085 408.361 146.469 408.496 147.458C408.592 147.966 408.649 148.48 408.667 148.996C408.508 148.503 408.391 147.998 408.316 147.485C408.109 146.433 407.84 145.04 407.507 143.35C406.815 139.862 405.808 135.052 404.531 129.766C403.254 124.479 401.96 119.723 400.989 116.334L399.82 112.279C399.656 111.789 399.527 111.287 399.434 110.778Z" fill="#263238"/>
<path d="M407.714 143.188C407.633 143.089 411.481 139.817 416.308 135.888C421.136 131.959 425.11 128.848 425.191 128.947C425.272 129.046 421.433 132.319 416.605 136.247C411.777 140.176 407.804 143.287 407.714 143.188Z" fill="#263238"/>
<path opacity="0.2" d="M358.519 129.001L350.643 154.956L353.583 156.484L356.478 149.148C356.478 149.148 359.427 133.721 358.519 129.001Z" fill="black"/>
<g opacity="0.2">
<path opacity="0.2" d="M398.579 110.796C402.832 113.035 392.169 118.429 387.359 118.285L390.857 109.061C390.857 109.061 397.15 110.041 398.579 110.796Z" fill="black"/>
</g>
<path d="M369.945 109.061V102.183C369.945 102.183 383.368 105.645 383.853 113.673C383.853 113.673 385.561 104.79 392.484 104.368L393.464 116.855L385.373 123.868H377.254L370.79 118.285L369.945 109.618" fill="#6782F7"/>
<path d="M386.883 152.205C386.837 151.715 386.837 151.221 386.883 150.731C386.883 149.778 386.883 148.402 386.928 146.703C386.928 143.314 386.829 138.612 386.407 133.46C385.984 128.309 385.301 123.652 384.735 120.308C384.447 118.698 384.204 117.368 384.024 116.352C383.908 115.871 383.836 115.381 383.809 114.887C383.977 115.352 384.109 115.83 384.204 116.316C384.438 117.215 384.735 118.582 385.058 120.254C385.89 124.609 386.49 129.006 386.856 133.424C387.22 137.844 387.346 142.279 387.234 146.712C387.189 148.411 387.126 149.787 387.045 150.74C387.026 151.231 386.972 151.721 386.883 152.205Z" fill="#263238"/>
<path d="M383.242 111.362C382.974 111.317 382.698 111.342 382.442 111.434C381.783 111.806 381.298 112.423 381.093 113.151C379.985 115.549 379.12 118.052 378.513 120.622L378.441 120.928L378.172 120.766C377.371 120.281 376.544 119.759 375.717 119.202C374.21 118.176 372.758 117.071 371.366 115.893C370.733 115.365 370.226 114.701 369.883 113.952C369.612 113.291 369.46 112.588 369.433 111.875C369.406 110.865 369.506 109.857 369.73 108.872C369.783 108.504 369.883 108.145 370.026 107.802C370.015 108.17 369.976 108.537 369.91 108.899C369.757 109.877 369.709 110.869 369.766 111.857C369.809 112.524 369.97 113.179 370.242 113.79C370.572 114.488 371.054 115.102 371.654 115.588C372.921 116.649 374.396 117.745 375.978 118.824C376.805 119.382 377.614 119.912 378.414 120.398L378.073 120.541C378.673 117.959 379.579 115.457 380.77 113.088C380.953 112.673 381.188 112.284 381.471 111.929C381.692 111.654 381.989 111.451 382.325 111.344C383.008 111.129 383.26 111.353 383.242 111.362Z" fill="#263238"/>
<path d="M392.484 104.368C392.566 104.719 392.608 105.078 392.61 105.438L392.826 108.369C392.925 109.6 393.078 111.066 393.329 112.675C393.545 113.539 393.6 114.435 393.491 115.318C393.151 116.244 392.52 117.036 391.693 117.575C390.642 118.227 389.655 118.976 388.744 119.813L388.385 120.218V119.678C388.222 117.33 387.543 115.046 386.398 112.99C385.544 111.452 384.843 110.67 384.896 110.625C384.95 110.58 385.112 110.787 385.427 111.156C385.879 111.686 386.287 112.251 386.65 112.846C387.9 114.912 388.648 117.243 388.834 119.651L388.439 119.517C389.362 118.645 390.371 117.867 391.45 117.197C392.181 116.717 392.741 116.019 393.051 115.201C393.145 114.378 393.096 113.545 392.907 112.738C392.682 111.111 392.565 109.627 392.502 108.387C392.439 107.146 392.43 106.139 392.439 105.447C392.409 105.087 392.424 104.724 392.484 104.368Z" fill="#263238"/>
<path d="M435.7 106.094C435.152 106.732 415.373 133.209 415.373 133.209L418.16 134.791L438.442 108.719L435.7 106.094Z" fill="#263238"/>
<path d="M356.289 126.987C356.289 126.987 377.084 156.925 378.343 157.509C380.806 158.669 409.251 134.09 411.966 131.734C412.344 131.231 413.117 130.179 414.663 128.084C414.663 128.084 416.911 117.817 419.302 118.6C421.694 119.382 417.99 123.823 419.554 127.725C421.118 131.626 428.256 122.33 428.544 121.485L430.387 119.076C430.387 119.076 432.32 124.551 432.185 126.844C431.763 134.171 424.831 142.882 424.831 142.882C424.831 142.882 393.698 181.451 372.373 182.646C366.233 182.988 355.291 165.565 348.018 152.493C345.894 148.676 345.24 144.214 346.179 139.948C347.118 135.681 349.585 131.906 353.116 129.334L356.289 126.987Z" fill="#FFBE9D"/>
<path d="M428.652 128.138C429.05 127.218 429.494 126.317 429.982 125.441C430.383 124.519 430.833 123.618 431.331 122.744C430.764 124.69 429.851 126.517 428.634 128.138H428.652Z" fill="#EB996E"/>
<path d="M352.774 112.378C352.774 112.378 330.451 120.317 347.047 157.851L372.813 142.298L369.145 133.523L352.774 112.378Z" fill="#6782F7"/>
<path d="M351.066 113.034C351.971 112.95 352.884 113.026 353.763 113.259C354.792 113.526 355.776 113.941 356.685 114.491C357.886 115.239 358.981 116.146 359.939 117.188C362.374 119.907 364.413 122.954 365.999 126.241C367.887 129.891 369.649 134.054 371.456 138.414C371.995 139.727 372.535 141.012 373.038 142.235L373.119 142.433L372.93 142.531C365.477 146.595 358.986 150.398 354.401 153.248C352.1 154.668 350.275 155.837 349.007 156.646L347.569 157.545C347.404 157.66 347.23 157.759 347.047 157.842C347.19 157.703 347.347 157.58 347.515 157.473C347.83 157.24 348.297 156.898 348.917 156.475C350.14 155.576 351.947 154.408 354.222 152.951C358.771 150.029 365.244 146.164 372.706 142.091L372.598 142.379C372.094 141.156 371.555 139.87 371.015 138.558C369.217 134.198 367.419 130.044 365.621 126.403C364.066 123.152 362.076 120.127 359.706 117.413C358.779 116.38 357.721 115.473 356.559 114.716C355.67 114.158 354.708 113.725 353.7 113.43C352.835 113.224 351.954 113.091 351.066 113.034Z" fill="#263238"/>
<path d="M399.074 57.3848C399.131 57.5101 399.167 57.6436 399.182 57.7804C399.25 58.163 399.274 58.5521 399.254 58.9401C399.168 60.4001 398.562 61.781 397.546 62.8329C396.774 63.603 395.809 64.1506 394.752 64.418C393.695 64.6854 392.585 64.6627 391.54 64.3523C390.274 64.0156 389.179 63.2211 388.466 62.1227C388.088 61.5166 387.926 60.8005 388.007 60.0909C388.048 59.721 388.168 59.3642 388.359 59.0447C388.549 58.7252 388.807 58.4504 389.113 58.2389C389.432 58.0377 389.797 57.9193 390.173 57.8942C390.55 57.8691 390.927 57.9381 391.27 58.0951C391.937 58.3778 392.466 58.9103 392.745 59.5784C392.967 60.2017 393.028 60.8707 392.925 61.524C392.821 62.1774 392.555 62.7944 392.152 63.3184C391.477 64.1921 390.515 64.7994 389.436 65.0329C388.357 65.2665 387.23 65.1114 386.254 64.595C385.55 64.2264 384.804 63.9427 384.033 63.7499C383.457 63.6201 382.853 63.6833 382.316 63.9297C381.866 64.1726 381.439 64.4554 381.04 64.7748C381.04 64.7748 381.12 64.658 381.3 64.4602C381.411 64.3366 381.535 64.2251 381.669 64.1275C381.845 63.9814 382.038 63.8576 382.244 63.7589C382.8 63.4813 383.43 63.3869 384.042 63.4892C384.843 63.6622 385.619 63.934 386.353 64.2983C386.769 64.482 387.203 64.6236 387.647 64.7209C388.126 64.8103 388.616 64.8103 389.095 64.7209C390.171 64.55 391.139 63.9663 391.792 63.0936C392.147 62.6291 392.381 62.0832 392.472 61.5055C392.563 60.9278 392.509 60.3365 392.313 59.7852C392.206 59.5065 392.042 59.2534 391.83 59.0423C391.619 58.8313 391.366 58.6671 391.087 58.5602C390.808 58.4534 390.51 58.4064 390.211 58.4223C389.913 58.4382 389.622 58.5166 389.356 58.6525C389.107 58.8302 388.899 59.0581 388.744 59.3213C388.589 59.5846 388.491 59.8774 388.457 60.1808C388.392 60.787 388.532 61.3973 388.852 61.9159C389.504 62.92 390.502 63.6495 391.657 63.9657C392.632 64.2646 393.669 64.298 394.662 64.0625C395.654 63.8271 396.566 63.3312 397.303 62.6261C398.292 61.6414 398.911 60.346 399.056 58.9581C399.094 58.4346 399.1 57.9091 399.074 57.3848Z" fill="#455A64"/>
<path d="M370.638 87.3583C370.683 87.3583 370.934 87.7539 370.638 88.3742C370.544 88.5494 370.416 88.704 370.262 88.829C370.107 88.9541 369.93 89.047 369.739 89.1025C369.494 89.1573 369.24 89.1524 368.997 89.0882C368.754 89.0241 368.531 88.9025 368.345 88.7339C368.142 88.5683 367.981 88.3579 367.873 88.1192C367.765 87.8805 367.715 87.62 367.725 87.3583C367.74 86.963 367.886 86.5838 368.138 86.2795C368.57 85.7761 369.037 85.7221 369.037 85.7761C369.037 85.83 368.714 86.0008 368.426 86.4773C368.242 86.7536 368.163 87.0865 368.202 87.4162C368.242 87.7458 368.398 88.0505 368.642 88.2754C368.774 88.3956 368.932 88.4846 369.103 88.5359C369.274 88.5873 369.454 88.5996 369.631 88.572C369.927 88.5053 370.19 88.3327 370.368 88.0866C370.656 87.718 370.566 87.3583 370.638 87.3583Z" fill="#263238"/>
<path d="M400.557 60.3876C400.853 60.8877 401.003 61.4608 400.989 62.0418C401.06 63.4616 400.579 64.8539 399.648 65.9278C398.716 67.0017 397.406 67.6741 395.99 67.8045C395.417 67.9027 394.827 67.834 394.291 67.6068C394.291 67.5258 394.947 67.6068 395.945 67.4719C397.241 67.2728 398.424 66.6222 399.286 65.6351C400.148 64.6481 400.633 63.388 400.656 62.0777C400.683 61.0529 400.476 60.4325 400.557 60.3876Z" fill="#455A64"/>
<path d="M370.152 135.636C370.206 135.753 364.281 138.801 356.909 142.442C349.537 146.083 343.523 148.951 343.424 148.834C343.325 148.717 349.286 145.669 356.658 142.019C364.03 138.369 370.098 135.519 370.152 135.636Z" fill="#E0E0E0"/>
<path d="M364.749 125.441C364.812 125.549 359.535 128.507 352.963 132.031C346.391 135.555 341.015 138.324 340.961 138.207C340.907 138.09 346.175 135.142 352.747 131.618C359.319 128.093 364.686 125.324 364.749 125.441Z" fill="#E0E0E0"/>
<path d="M359.526 117.197C358.687 117.778 357.806 118.298 356.892 118.752L350.437 122.348L344.018 126.016C343.155 126.566 342.254 127.052 341.321 127.473C342.115 126.823 342.963 126.243 343.856 125.738C345.456 124.722 347.695 123.373 350.212 121.944C352.729 120.514 355.049 119.31 356.748 118.465C357.636 117.963 358.566 117.539 359.526 117.197Z" fill="#E0E0E0"/>
<path d="M379.277 115.228C378.669 115.2 378.074 115.04 377.533 114.761C376.216 114.17 375.001 113.372 373.937 112.396C372.87 111.422 371.889 110.357 371.006 109.214C370.603 108.773 370.261 108.28 369.99 107.748C370.044 107.748 370.512 108.189 371.258 109.007C372.004 109.825 373.011 110.94 374.252 112.046C375.297 112.995 376.46 113.805 377.713 114.455C378.639 114.967 379.295 115.174 379.277 115.228Z" fill="#E0E0E0"/>
<path d="M392.385 110.373C392.088 111.457 391.432 112.408 390.524 113.07C389.719 113.856 388.669 114.342 387.548 114.446C388.48 113.92 389.381 113.341 390.245 112.711C390.997 111.968 391.711 111.188 392.385 110.373Z" fill="#E0E0E0"/>
<path d="M415.769 123.904C415.605 123.954 415.436 123.984 415.265 123.994L413.818 124.173C412.559 124.317 410.734 124.488 408.487 124.668C403.992 125.028 397.698 125.378 390.839 125.63C383.979 125.882 377.695 125.962 373.164 125.927C370.907 125.927 369.073 125.864 367.815 125.819L366.358 125.747C366.189 125.747 366.02 125.726 365.855 125.684C366.022 125.662 366.191 125.662 366.358 125.684H367.815L373.164 125.639C377.659 125.594 383.952 125.45 390.821 125.207C397.69 124.965 403.947 124.65 408.46 124.38L413.8 124.039L415.257 123.949C415.424 123.91 415.597 123.895 415.769 123.904Z" fill="#E0E0E0"/>
<path d="M408.667 134.566C408.181 134.677 407.688 134.755 407.192 134.8C406.23 134.917 404.846 135.061 403.137 135.222C399.712 135.537 394.974 135.861 389.733 136.077C384.492 136.292 379.736 136.337 376.248 136.301C374.53 136.301 373.137 136.247 372.175 136.211C371.675 136.215 371.176 136.176 370.683 136.095C371.178 136.035 371.676 136.011 372.175 136.023L376.248 135.969C379.682 135.969 384.429 135.816 389.661 135.609C394.893 135.402 399.64 135.124 403.066 134.89L407.129 134.611C407.639 134.548 408.154 134.533 408.667 134.566Z" fill="#E0E0E0"/>
<path d="M392.547 147.71C391.569 147.936 390.573 148.077 389.571 148.133C387.719 148.321 385.166 148.528 382.334 148.672C379.502 148.816 376.94 148.861 375.079 148.852C374.077 148.899 373.072 148.86 372.076 148.735C373.067 148.584 374.068 148.512 375.07 148.519L382.307 148.204L389.499 147.8C390.512 147.7 391.53 147.67 392.547 147.71Z" fill="#E0E0E0"/>
<path d="M371.95 116.514C371.95 116.649 369.19 116.676 365.792 116.819C362.394 116.963 359.652 117.152 359.634 117.017C363.698 116.299 367.841 116.129 371.95 116.514Z" fill="#E0E0E0"/>
<path d="M409.871 116.028C407.216 116.247 404.551 116.313 401.888 116.226C399.221 116.296 396.552 116.209 393.896 115.965C396.553 115.741 399.222 115.672 401.888 115.759C404.552 115.688 407.218 115.778 409.871 116.028Z" fill="#E0E0E0"/>
<path d="M411.256 170.734C411.003 170.922 410.728 171.079 410.437 171.202C409.898 171.48 409.098 171.849 408.1 172.271C405.478 173.351 402.772 174.214 400.009 174.852C397.247 175.482 394.439 175.887 391.612 176.065C390.533 176.128 389.652 176.146 389.041 176.128C388.74 176.142 388.438 176.121 388.142 176.065C388.142 175.993 389.472 175.939 391.621 175.733C394.419 175.464 397.196 175.016 399.937 174.393C402.685 173.762 405.388 172.948 408.028 171.957C409.979 171.202 411.229 170.662 411.256 170.734Z" fill="#E0E0E0"/>
<path d="M168.402 293.101C189.896 293.101 207.321 276.477 207.321 255.971C207.321 235.465 189.896 218.841 168.402 218.841C146.907 218.841 129.483 235.465 129.483 255.971C129.483 276.477 146.907 293.101 168.402 293.101Z" fill="#E0E0E0"/>
<path d="M160.473 166.473C154.305 166.797 151.878 173.234 151.141 174.672C150.508 176.163 150.172 177.763 150.152 179.383C150.133 181.005 149.726 182.599 148.965 184.031C147.608 186.198 144.749 187.321 143.976 189.758C143.077 192.518 145.351 195.467 144.749 198.299C144.425 199.818 143.319 201.068 142.951 202.569C142.611 204.174 142.911 205.848 143.787 207.235C145.81 210.723 150.017 212.467 154.045 212.629C158.072 212.791 162.01 211.568 165.867 210.381" fill="#263238"/>
<path d="M187.641 174.456C187.404 175.138 187.363 175.872 187.522 176.576C187.681 177.28 188.033 177.925 188.54 178.439C189.575 179.432 190.694 180.334 191.884 181.136C192.479 181.546 192.986 182.069 193.378 182.675C193.77 183.281 194.038 183.959 194.168 184.669C194.285 185.982 193.619 187.294 193.799 188.598C194.267 191.969 199.634 192.976 199.913 196.357C200.11 198.613 197.791 200.69 198.438 202.856C198.788 203.669 199.242 204.434 199.787 205.131C201.315 207.666 200.281 211.155 198.07 213.114C195.858 215.074 192.801 215.767 189.852 215.901C187.371 216.009 184.548 215.605 183.092 213.6C181.752 211.757 182.031 209.258 182.292 207.001C183.541 196.464 183.326 185.82 183.119 175.211" fill="#263238"/>
<path d="M162.1 223.211C162.144 217.673 162.1 211.847 162.1 211.847C162.1 211.847 154.988 210.579 153.613 201.265C152.309 192.374 154.512 173.261 154.512 173.261C164.824 169.188 176.439 170.761 183.658 179.059L182.525 224.011C182.4 229.225 177.806 233.271 172.223 233.091C166.586 232.902 162.055 228.506 162.1 223.211Z" fill="#FFBE9D"/>
<path d="M162.091 211.847C166.47 211.965 170.796 210.866 174.587 208.673C174.587 208.673 171.495 215.029 162.19 214.067L162.091 211.847Z" fill="#EB996E"/>
<path d="M179.613 172.424C176.214 177.279 167.197 182.269 160.733 183.429C161.479 182.44 165.444 179.994 166.199 179.005C163.277 181.181 159.088 184.112 155.213 184.301C154.756 184.368 154.289 184.296 153.874 184.094C153.656 183.92 153.482 183.698 153.365 183.445C153.248 183.192 153.191 182.916 153.199 182.637C152.979 179.825 153.069 176.997 153.469 174.205C153.777 171.845 154.977 169.692 156.822 168.19C159.313 166.266 162.864 165.799 166.217 165.718C169.024 165.535 171.839 165.914 174.497 166.833C177.069 167.839 179.271 169.844 179.649 172.227" fill="#263238"/>
<path d="M189.376 194.172C189.802 192.118 190.102 190.041 190.275 187.951C190.554 183.15 189.169 165.475 172.618 166.859L171.944 171.903C171.944 171.903 169.391 189.155 180.098 189.281C180.818 193.133 182.7 196.672 185.492 199.422C185.492 199.422 188.297 199.341 189.304 194.172" fill="#263238"/>
<path d="M180.125 189.281C181.125 189.085 182.16 189.162 183.119 189.506C184.08 189.868 184.859 190.595 185.286 191.529C185.659 192.482 185.659 193.542 185.286 194.496C184.901 195.44 184.311 196.287 183.56 196.977C183.064 197.509 182.447 197.913 181.762 198.155C181.416 198.274 181.045 198.305 180.684 198.245C180.323 198.186 179.983 198.037 179.694 197.813" fill="#FFBE9D"/>
<path d="M180.602 195.323C180.485 195.323 180.916 195.961 181.824 195.727C182.069 195.65 182.295 195.524 182.49 195.357C182.684 195.19 182.843 194.986 182.957 194.756C183.239 194.251 183.416 193.695 183.479 193.12C183.565 192.492 183.421 191.853 183.074 191.322C182.934 191.1 182.744 190.914 182.519 190.778C182.294 190.642 182.041 190.561 181.779 190.54C180.88 190.54 180.548 191.151 180.647 191.169C180.746 191.187 181.087 190.917 181.699 191.07C182.073 191.216 182.381 191.491 182.568 191.847C182.755 192.202 182.807 192.613 182.714 193.003C182.598 194.028 182.193 194.963 181.645 195.188C181.096 195.413 180.665 195.242 180.602 195.323Z" fill="#EB996E"/>
<path d="M181.933 170.608C183.216 171.337 184.733 171.533 186.159 171.157C187.586 170.781 188.808 169.861 189.565 168.595C190.089 167.8 190.277 166.83 190.087 165.897C189.874 165.288 189.506 164.745 189.019 164.323C188.531 163.9 187.942 163.612 187.309 163.488C186.404 163.252 185.455 163.242 184.545 163.46C183.636 163.678 182.794 164.117 182.094 164.738C181.41 165.378 180.921 166.199 180.682 167.106C180.443 168.012 180.466 168.968 180.746 169.862C181.064 170.741 181.647 171.499 182.416 172.031C183.184 172.563 184.1 172.842 185.034 172.829" fill="#263238"/>
<path d="M183.425 197.435C182.478 198.064 181.614 198.81 180.854 199.656C180.093 200.516 179.696 201.638 179.748 202.785C179.887 203.404 179.956 204.037 179.955 204.672C179.681 205.504 179.237 206.27 178.651 206.92C178.108 207.915 177.896 209.057 178.047 210.181C178.197 211.305 178.702 212.351 179.487 213.168C181.119 214.773 183.321 215.665 185.609 215.65C186.926 215.762 188.244 215.447 189.367 214.751C190.914 213.672 191.507 211.64 191.552 209.743" fill="#263238"/>
<path d="M184.558 174.321C184.329 174.934 184.001 175.505 183.587 176.012C182.673 177.303 181.601 178.475 180.395 179.5C179.199 180.536 177.879 181.421 176.467 182.134C175.907 182.462 175.301 182.702 174.668 182.844C176.579 181.758 178.4 180.522 180.117 179.149C181.721 177.658 183.206 176.044 184.558 174.321Z" fill="#455A64"/>
<path d="M186.275 174.222C186.3 174.992 186.2 175.76 185.978 176.497C185.535 178.297 184.826 180.021 183.874 181.612C182.917 183.199 181.726 184.633 180.341 185.865C179.793 186.406 179.162 186.855 178.471 187.195C180.393 185.489 182.075 183.529 183.47 181.37C184.728 179.127 185.672 176.722 186.275 174.222Z" fill="#455A64"/>
<path d="M150.341 181.756C150.476 181.756 150.656 183.303 151.24 185.146C151.824 186.989 152.445 188.4 152.319 188.463C150.927 186.512 150.231 184.15 150.341 181.756Z" fill="#455A64"/>
<path d="M189.996 213.528C190.404 213.795 190.876 213.948 191.363 213.968C191.929 213.961 192.479 213.786 192.945 213.465C193.543 213.025 193.966 212.388 194.141 211.667C194.356 210.781 194.356 209.856 194.141 208.97C193.952 207.99 193.575 206.983 193.242 205.877C192.835 204.725 192.696 203.495 192.837 202.281C193.044 200.968 193.898 199.899 194.312 198.685C194.507 198.106 194.585 197.493 194.54 196.883C194.495 196.273 194.329 195.678 194.051 195.134C193.539 194.101 192.661 193.297 191.588 192.877C191.061 192.68 190.544 192.455 190.041 192.203C189.539 191.955 189.114 191.576 188.81 191.106C188.363 190.233 188.17 189.252 188.252 188.274C188.313 187.512 188.282 186.746 188.162 185.991C188.063 185.429 187.832 184.899 187.488 184.444C187.178 184.065 186.751 183.8 186.274 183.689C186.404 183.657 186.54 183.657 186.67 183.689C187.043 183.786 187.378 183.993 187.632 184.282C188.013 184.752 188.284 185.303 188.423 185.892C188.577 186.664 188.631 187.452 188.585 188.238C188.522 189.145 188.715 190.052 189.142 190.854C189.646 191.681 190.689 192.023 191.749 192.446C192.923 192.894 193.886 193.766 194.447 194.891C194.755 195.49 194.94 196.144 194.993 196.816C195.045 197.487 194.964 198.162 194.752 198.802C194.285 200.087 193.458 201.112 193.278 202.29C193.141 203.445 193.267 204.616 193.646 205.715C193.961 206.794 194.33 207.828 194.545 208.844C194.746 209.796 194.718 210.782 194.465 211.721C194.251 212.511 193.763 213.199 193.089 213.663C192.575 213.999 191.967 214.162 191.354 214.13C190.969 214.113 190.596 213.992 190.275 213.78C190.165 213.716 190.071 213.63 189.996 213.528Z" fill="#455A64"/>
<path d="M183.506 212.89C183.506 212.89 183.623 213.177 184.054 213.384C184.357 213.509 184.692 213.531 185.008 213.444C185.324 213.358 185.602 213.169 185.799 212.908C186.03 212.469 186.14 211.976 186.114 211.481C186.089 210.985 185.93 210.506 185.655 210.094C185.142 209.078 184.126 208.08 183.857 206.596C183.783 206.235 183.789 205.862 183.875 205.503C183.96 205.145 184.123 204.809 184.351 204.52C184.792 203.98 185.313 203.621 185.646 203.18C186.221 202.339 186.447 201.307 186.275 200.303C186.164 199.609 185.992 198.926 185.763 198.262C185.658 198.021 185.585 197.767 185.547 197.507C185.547 197.507 185.718 197.741 185.924 198.199C186.238 198.853 186.465 199.545 186.599 200.258C186.714 200.801 186.72 201.361 186.616 201.906C186.513 202.45 186.302 202.969 185.996 203.432C185.61 203.953 185.097 204.331 184.72 204.807C184.531 205.047 184.397 205.324 184.327 205.621C184.257 205.918 184.253 206.226 184.315 206.524C184.531 207.81 185.484 208.79 186.032 209.896C186.328 210.379 186.484 210.934 186.484 211.501C186.484 212.067 186.328 212.622 186.032 213.105C185.896 213.283 185.724 213.43 185.527 213.537C185.33 213.643 185.114 213.708 184.89 213.726C184.562 213.765 184.229 213.702 183.938 213.546C183.488 213.222 183.488 212.881 183.506 212.89Z" fill="#455A64"/>
<path d="M148.264 210.525C147.988 210.315 147.74 210.07 147.526 209.797C146.885 209.095 146.357 208.298 145.962 207.433C145.696 206.814 145.567 206.146 145.585 205.473C145.589 204.675 145.868 203.903 146.376 203.288C146.933 202.65 147.742 202.308 148.228 201.706C148.463 201.375 148.619 200.994 148.683 200.594C148.747 200.193 148.717 199.783 148.596 199.395C148.377 198.564 148.047 197.766 147.616 197.022C147.195 196.286 146.891 195.488 146.717 194.657C146.572 193.871 146.736 193.059 147.176 192.392C147.568 191.859 148.028 191.379 148.542 190.962C149.286 190.424 149.827 189.652 150.08 188.769C150.141 188.442 150.141 188.107 150.08 187.78C150.08 187.78 150.152 187.852 150.215 188.014C150.305 188.264 150.332 188.532 150.295 188.796C150.101 189.751 149.572 190.606 148.803 191.205C148.329 191.62 147.904 192.087 147.535 192.599C147.163 193.189 147.034 193.902 147.176 194.585C147.361 195.367 147.664 196.116 148.075 196.806C148.529 197.583 148.876 198.418 149.109 199.287C149.242 199.743 149.269 200.223 149.188 200.69C149.107 201.158 148.92 201.6 148.641 201.984C148.03 202.704 147.221 203.018 146.753 203.567C146.298 204.099 146.041 204.772 146.025 205.473C145.998 206.086 146.099 206.699 146.322 207.271C146.675 208.124 147.147 208.923 147.724 209.644C147.932 209.92 148.113 210.215 148.264 210.525Z" fill="#455A64"/>
<path d="M185.753 171.777C185.111 170.906 184.375 170.107 183.56 169.395C182.654 168.805 181.686 168.317 180.674 167.938C181.818 167.956 182.927 168.338 183.84 169.028C184.754 169.718 185.423 170.681 185.753 171.777Z" fill="#E8505B"/>
<path d="M187.021 163.173C187.075 163.173 187.371 163.497 187.614 164.189C187.925 165.11 187.953 166.103 187.695 167.041C187.437 167.978 186.905 168.816 186.167 169.449C185.591 169.925 185.16 170.069 185.133 170.024C185.106 169.979 185.465 169.718 185.933 169.215C186.555 168.572 187.006 167.784 187.245 166.921C187.484 166.059 187.503 165.151 187.299 164.279C187.175 163.919 187.081 163.549 187.021 163.173Z" fill="#455A64"/>
<path opacity="0.3" d="M141.395 273.763C141.395 273.763 163.736 294.98 177.014 291.132C190.293 287.284 194.213 277.332 194.213 277.332L194.537 273.736L193.206 272.837L142.069 268.755L141.395 273.763Z" fill="black"/>
<path d="M128.188 253.894L132.495 242.89L147.931 252.591L134.176 273.799C134.176 273.799 128.584 266.499 128.188 253.894Z" fill="#EB996E"/>
<path d="M145.603 223.381C152.795 219.623 162.091 218.544 162.091 218.544C164.788 223.939 173.302 224.631 178.453 220.945L182.804 218.005C183.405 217.996 184.005 218.023 184.602 218.086C189.565 218.552 194.245 220.604 197.95 223.938C201.655 227.272 204.187 231.711 205.172 236.597C206.03 240.431 206.396 244.358 206.26 248.284C205.694 258.111 195.526 259.001 195.526 259.001C195.526 259.001 195.004 268.701 194.312 276.55C194.163 279.284 193.251 281.921 191.679 284.163C190.108 286.405 187.94 288.162 185.42 289.235C181.859 291.016 178.029 292.198 174.084 292.732C167.924 293.696 161.623 293.135 155.731 291.097C149.839 289.059 144.537 285.608 140.289 281.045C141.836 271.695 143.31 259.585 143.202 259.037C143.185 258.978 143.185 258.916 143.202 258.857L133.124 249.912L127.406 245.111C127.406 245.111 139.993 226.501 145.585 223.444" fill="#A3B4FA"/>
<path d="M158.099 229.405C157.339 228.973 156.483 228.735 155.609 228.713C154.674 228.71 153.767 229.028 153.038 229.612C152.623 229.992 152.238 230.404 151.887 230.843C151.486 231.38 150.911 231.762 150.26 231.922C149.586 232.007 148.906 231.826 148.363 231.419C147.841 231.086 147.401 230.726 146.942 230.466C146.548 230.234 146.107 230.092 145.651 230.052C145.196 230.012 144.737 230.073 144.308 230.232C143.707 230.436 143.175 230.804 142.771 231.293C142.492 231.643 142.393 231.877 142.348 231.859C142.382 231.614 142.478 231.382 142.627 231.185C143.004 230.612 143.551 230.171 144.191 229.926C144.665 229.723 145.179 229.633 145.693 229.661C146.208 229.689 146.709 229.835 147.158 230.088C147.661 230.358 148.111 230.726 148.605 231.032C149.056 231.371 149.618 231.525 150.179 231.464C150.724 231.324 151.207 231.008 151.554 230.565C151.919 230.108 152.325 229.687 152.768 229.306C153.579 228.68 154.585 228.361 155.609 228.407C156.285 228.431 156.946 228.619 157.533 228.955C157.946 229.207 158.117 229.405 158.099 229.405Z" fill="#FAFAFA"/>
<path d="M168.339 242.89C167.758 242.234 167.023 241.733 166.199 241.434C165.325 241.134 164.376 241.134 163.502 241.434C162.993 241.666 162.5 241.934 162.028 242.234C161.475 242.613 160.808 242.79 160.14 242.737C159.473 242.602 158.886 242.212 158.504 241.65C158.117 241.173 157.811 240.688 157.461 240.292C157.161 239.947 156.789 239.673 156.371 239.49C155.953 239.306 155.499 239.218 155.042 239.231C154.408 239.237 153.787 239.414 153.244 239.744C152.867 239.986 152.696 240.175 152.66 240.148C152.624 240.121 152.777 239.896 153.145 239.591C153.833 239.074 154.688 238.831 155.544 238.907C156.401 238.983 157.199 239.374 157.784 240.004C158.171 240.427 158.486 240.903 158.854 241.362C159.178 241.817 159.658 242.137 160.203 242.261C160.77 242.291 161.331 242.136 161.803 241.82C162.295 241.503 162.816 241.232 163.358 241.011C164.331 240.679 165.39 240.708 166.343 241.092C166.981 241.325 167.549 241.715 167.997 242.225C168.267 242.594 168.357 242.836 168.339 242.89Z" fill="#FAFAFA"/>
<path d="M191.093 223.202C190.258 222.942 189.373 222.89 188.513 223.049C187.598 223.243 186.776 223.744 186.184 224.469C185.866 224.928 185.58 225.408 185.33 225.908C185.049 226.52 184.567 227.018 183.964 227.319C183.321 227.533 182.622 227.498 182.004 227.22C181.429 227.004 180.916 226.744 180.413 226.582C179.977 226.441 179.516 226.398 179.062 226.458C178.608 226.517 178.172 226.676 177.787 226.923C177.248 227.253 176.807 227.722 176.511 228.281C176.313 228.677 176.259 228.937 176.223 228.928C176.187 228.919 176.223 228.659 176.349 228.2C176.675 227.403 177.284 226.755 178.06 226.382C178.835 226.008 179.721 225.935 180.547 226.177C181.096 226.339 181.617 226.591 182.157 226.789C182.667 227.027 183.25 227.06 183.784 226.879C184.29 226.619 184.694 226.198 184.935 225.683C185.189 225.162 185.49 224.666 185.834 224.199C186.499 223.417 187.419 222.894 188.432 222.725C189.098 222.601 189.785 222.647 190.428 222.86C190.675 222.915 190.904 223.032 191.093 223.202Z" fill="#FAFAFA"/>
<path d="M180.593 237.946C180.145 237.45 179.596 237.058 178.983 236.795C178.322 236.537 177.592 236.515 176.916 236.732C176.514 236.886 176.127 237.072 175.756 237.289C175.305 237.568 174.772 237.686 174.245 237.622C173.726 237.495 173.275 237.173 172.987 236.723C172.708 236.336 172.492 235.95 172.241 235.635C172.027 235.36 171.755 235.137 171.444 234.981C171.132 234.826 170.79 234.742 170.443 234.736C169.778 234.74 169.129 234.943 168.582 235.32C168.582 235.32 168.671 235.123 168.959 234.898C169.508 234.514 170.181 234.348 170.846 234.433C171.511 234.518 172.12 234.847 172.555 235.356C172.843 235.698 173.077 236.085 173.337 236.435C173.56 236.796 173.91 237.059 174.317 237.172C175.144 237.316 175.9 236.57 176.763 236.327C177.534 236.103 178.361 236.163 179.091 236.498C180.359 237.064 180.646 237.964 180.593 237.946Z" fill="#FAFAFA"/>
<path d="M157.443 250.37C156.991 249.876 156.439 249.484 155.825 249.219C155.16 248.97 154.43 248.958 153.757 249.183C153.356 249.339 152.969 249.525 152.597 249.741C152.14 250.031 151.596 250.152 151.06 250.082C150.544 249.953 150.097 249.631 149.81 249.183C149.522 248.797 149.307 248.41 149.064 248.104C148.849 247.831 148.576 247.609 148.266 247.454C147.955 247.298 147.613 247.213 147.266 247.205C146.6 247.205 145.951 247.409 145.405 247.79C145.405 247.79 145.486 247.592 145.782 247.367C146.213 247.051 146.732 246.878 147.266 246.873C147.67 246.857 148.073 246.935 148.442 247.1C148.812 247.266 149.138 247.514 149.396 247.826C149.684 248.167 149.909 248.554 150.179 248.905C150.397 249.265 150.744 249.529 151.15 249.642C151.977 249.786 152.741 249.039 153.604 248.797C154.372 248.572 155.196 248.633 155.923 248.968C157.2 249.489 157.488 250.388 157.443 250.37Z" fill="#FAFAFA"/>
<path d="M179.083 250.658C178.503 250.321 177.854 250.124 177.186 250.082C176.476 250.057 175.779 250.272 175.208 250.694C174.884 250.969 174.584 251.269 174.309 251.593C173.971 252.001 173.505 252.283 172.987 252.393C172.451 252.432 171.92 252.265 171.504 251.925C171.108 251.656 170.785 251.359 170.443 251.143C170.152 250.956 169.822 250.835 169.479 250.79C169.135 250.745 168.786 250.777 168.456 250.883C167.828 251.104 167.28 251.508 166.883 252.042C166.883 252.042 166.883 251.827 167.108 251.512C167.416 251.075 167.853 250.745 168.357 250.568C168.734 250.422 169.14 250.366 169.542 250.403C169.945 250.441 170.333 250.571 170.677 250.784C171.054 251.008 171.396 251.305 171.765 251.548C172.088 251.818 172.503 251.954 172.924 251.925C173.751 251.8 174.228 250.847 174.965 250.334C175.623 249.875 176.423 249.664 177.222 249.741C177.581 249.744 177.935 249.828 178.257 249.987C178.579 250.146 178.861 250.375 179.083 250.658Z" fill="#FAFAFA"/>
<path d="M171.935 260.529C171.351 260.204 170.704 260.008 170.038 259.954C169.326 259.929 168.626 260.144 168.051 260.565C167.73 260.842 167.429 261.143 167.152 261.464C166.815 261.873 166.349 262.156 165.83 262.264C165.296 262.302 164.767 262.139 164.347 261.806C163.952 261.527 163.628 261.23 163.286 261.024C162.996 260.833 162.667 260.71 162.323 260.663C161.98 260.616 161.63 260.647 161.299 260.754C160.669 260.972 160.121 261.376 159.726 261.914C159.746 261.72 159.821 261.536 159.942 261.383C160.339 260.831 160.93 260.448 161.597 260.313C162.264 260.178 162.957 260.3 163.538 260.655C163.925 260.88 164.266 261.176 164.635 261.419C164.958 261.69 165.374 261.825 165.795 261.797C166.622 261.671 167.098 260.718 167.835 260.205C168.495 259.749 169.293 259.539 170.092 259.612C170.448 259.62 170.797 259.706 171.116 259.865C171.434 260.023 171.714 260.25 171.935 260.529Z" fill="#FAFAFA"/>
<path d="M156.841 285.037C156.381 284.548 155.823 284.162 155.204 283.904C154.535 283.668 153.806 283.668 153.137 283.904C152.738 284.068 152.354 284.263 151.986 284.488C151.54 284.771 151.009 284.892 150.485 284.83C149.961 284.706 149.507 284.384 149.217 283.931C148.929 283.553 148.705 283.167 148.453 282.861C148.237 282.589 147.964 282.368 147.653 282.212C147.343 282.057 147.002 281.972 146.655 281.962C145.988 281.971 145.341 282.188 144.803 282.582C144.803 282.582 144.884 282.375 145.171 282.142C145.602 281.826 146.12 281.65 146.655 281.638C147.056 281.615 147.458 281.684 147.829 281.839C148.2 281.995 148.53 282.234 148.794 282.537C149.082 282.879 149.316 283.265 149.586 283.607C149.811 283.964 150.165 284.222 150.574 284.326C151.402 284.461 152.148 283.706 153.011 283.427C153.779 283.196 154.605 283.247 155.339 283.571C156.58 284.155 156.886 285.046 156.841 285.037Z" fill="#FAFAFA"/>
<path d="M174.507 290.251C173.935 289.915 173.297 289.706 172.637 289.64C171.927 289.605 171.227 289.811 170.65 290.224C170.326 290.499 170.025 290.799 169.751 291.123C169.408 291.524 168.938 291.797 168.42 291.896C167.885 291.934 167.357 291.764 166.946 291.42C166.55 291.141 166.226 290.835 165.894 290.62C165.605 290.427 165.277 290.301 164.933 290.25C164.59 290.198 164.24 290.223 163.907 290.323C163.277 290.536 162.726 290.934 162.325 291.465C162.325 291.465 162.325 291.249 162.549 290.943C162.868 290.523 163.307 290.21 163.808 290.044C164.189 289.91 164.595 289.863 164.996 289.906C165.398 289.95 165.784 290.083 166.128 290.296C166.505 290.53 166.847 290.826 167.206 291.078C167.53 291.35 167.944 291.491 168.366 291.474C169.193 291.348 169.688 290.413 170.425 289.909C171.091 289.462 171.892 289.261 172.69 289.343C173.041 289.354 173.385 289.44 173.698 289.597C174.012 289.754 174.288 289.977 174.507 290.251Z" fill="#FAFAFA"/>
<path d="M116.285 215.919C116.825 216.558 136.594 242.989 136.594 242.989L133.816 244.571L113.525 218.5L116.285 215.919Z" fill="#263238"/>
<path d="M193.431 234.799C193.431 234.799 174.893 266.777 173.652 267.362C171.18 268.521 142.735 243.933 140.02 241.587C139.651 241.083 138.878 240.031 137.322 237.936C137.322 237.936 135.084 227.661 132.684 228.452C130.283 229.243 133.996 233.675 132.441 237.577C130.885 241.479 123.738 232.183 123.451 231.338L121.652 228.928C121.652 228.928 119.72 234.403 119.854 236.696C120.268 244.023 127.199 252.734 127.199 252.734C127.199 252.734 155.375 288.03 176.7 289.226C182.84 289.577 194.573 271.893 201.873 258.821C206.278 250.927 204.228 242.917 196.928 237.586L193.431 234.799Z" fill="#FFBE9D"/>
<path d="M123.334 237.946C122.117 236.325 121.203 234.497 120.637 232.552C120.709 232.552 121.239 233.765 121.985 235.249C122.731 236.732 123.397 237.91 123.334 237.946Z" fill="#EB996E"/>
<path d="M192.559 225.863C191.831 226.303 174.579 258.308 174.579 258.308L196.776 275.687C200.169 267.258 203.11 258.654 205.586 249.912C206.413 246.774 205.991 238.386 204.822 235.15C203.168 230.556 200.668 231.697 196.919 229.009L192.559 225.863Z" fill="#A3B4FA"/>
<g opacity="0.7">
<path opacity="0.7" d="M199.85 225.863C199.85 225.863 199.634 225.737 199.221 225.53C198.618 225.223 197.945 225.084 197.27 225.125C196.205 225.226 195.196 225.646 194.375 226.33C193.276 227.209 192.313 228.245 191.516 229.405C190.539 230.855 189.639 232.356 188.819 233.9C187.92 235.527 186.895 237.271 185.852 239.105C183.757 242.764 181.447 246.792 179.038 251.017C177.554 253.58 176.125 256.07 174.776 258.407L174.722 258.12L189.736 269.987L194.096 273.484L195.247 274.437C195.388 274.54 195.517 274.658 195.634 274.788C195.48 274.707 195.336 274.61 195.202 274.5L193.997 273.601L189.556 270.203L174.444 258.515L174.282 258.389L174.435 258.174C175.783 255.836 177.213 253.346 178.678 250.775C181.105 246.558 183.425 242.549 185.529 238.89L188.531 233.702C189.35 232.157 190.251 230.657 191.228 229.207C192.062 228.016 193.075 226.961 194.231 226.078C195.101 225.386 196.161 224.972 197.27 224.892C197.973 224.867 198.669 225.044 199.275 225.404C199.432 225.491 199.582 225.59 199.724 225.701C199.814 225.809 199.859 225.854 199.85 225.863Z" fill="black"/>
</g>
<path d="M193.224 255.872C192.78 255.374 192.23 254.981 191.615 254.721C190.954 254.465 190.225 254.44 189.547 254.649C189.146 254.807 188.758 254.996 188.388 255.216C187.935 255.491 187.404 255.608 186.877 255.548C186.358 255.422 185.907 255.1 185.619 254.649C185.34 254.263 185.124 253.876 184.872 253.562C184.659 253.287 184.387 253.064 184.075 252.908C183.764 252.752 183.422 252.669 183.074 252.663C182.409 252.666 181.761 252.87 181.213 253.247C181.213 253.247 181.303 253.049 181.591 252.815C182.029 252.509 182.549 252.34 183.083 252.33C183.487 252.314 183.888 252.392 184.256 252.558C184.624 252.723 184.949 252.971 185.205 253.283C185.493 253.624 185.727 254.011 185.987 254.362C186.212 254.72 186.561 254.982 186.967 255.099C187.794 255.243 188.549 254.497 189.413 254.254C190.183 254.026 191.009 254.084 191.741 254.416C192.991 254.982 193.314 255.881 193.224 255.872Z" fill="#FAFAFA"/>
<path d="M203.365 251.737C203.079 251.128 202.654 250.596 202.125 250.181C201.556 249.761 200.863 249.543 200.156 249.561C199.729 249.61 199.305 249.688 198.888 249.795C198.377 249.938 197.833 249.907 197.342 249.705C196.876 249.436 196.531 248.998 196.38 248.482C196.218 248.033 196.11 247.583 195.957 247.241C195.824 246.92 195.621 246.632 195.363 246.399C195.105 246.166 194.798 245.993 194.465 245.893C193.823 245.717 193.143 245.739 192.514 245.956C192.514 245.956 192.649 245.785 192.991 245.65C193.491 245.46 194.039 245.435 194.555 245.578C194.949 245.672 195.317 245.855 195.629 246.114C195.94 246.373 196.188 246.7 196.353 247.071C196.533 247.475 196.65 247.907 196.812 248.32C196.927 248.725 197.194 249.069 197.558 249.282C198.313 249.651 199.239 249.138 200.138 249.129C200.939 249.128 201.715 249.408 202.332 249.921C202.629 250.126 202.877 250.396 203.056 250.711C203.235 251.025 203.34 251.376 203.365 251.737Z" fill="#FAFAFA"/>
<path d="M203.886 238.503C203.595 237.9 203.171 237.371 202.646 236.957C202.079 236.532 201.385 236.314 200.677 236.336C200.248 236.377 199.824 236.455 199.409 236.57C198.898 236.715 198.352 236.68 197.863 236.471C197.399 236.204 197.055 235.77 196.901 235.257C196.739 234.808 196.631 234.358 196.478 234.008C196.342 233.688 196.138 233.402 195.88 233.17C195.623 232.937 195.318 232.763 194.986 232.659C194.344 232.484 193.664 232.505 193.035 232.722C193.035 232.722 193.17 232.56 193.512 232.417C194.013 232.23 194.56 232.205 195.076 232.345C195.468 232.443 195.834 232.628 196.145 232.886C196.456 233.144 196.705 233.469 196.874 233.837C197.054 234.242 197.171 234.682 197.333 235.087C197.448 235.494 197.715 235.841 198.079 236.058C198.834 236.417 199.76 235.905 200.659 235.905C201.462 235.895 202.241 236.176 202.853 236.696C203.149 236.901 203.395 237.17 203.574 237.482C203.753 237.795 203.86 238.144 203.886 238.503Z" fill="#FAFAFA"/>
<path d="M198.978 268.962C198.683 268.362 198.259 267.834 197.737 267.416C197.167 266.99 196.47 266.771 195.759 266.795C195.334 266.836 194.912 266.914 194.501 267.029C193.99 267.173 193.445 267.141 192.954 266.939C192.492 266.667 192.148 266.23 191.992 265.717C191.821 265.267 191.723 264.817 191.561 264.467C191.426 264.148 191.224 263.862 190.968 263.629C190.712 263.396 190.408 263.222 190.077 263.118C189.436 262.937 188.753 262.962 188.126 263.19C188.126 263.19 188.261 263.019 188.603 262.876C189.238 262.65 189.935 262.671 190.556 262.934C191.176 263.197 191.676 263.683 191.956 264.296C192.145 264.701 192.262 265.141 192.424 265.546C192.539 265.951 192.802 266.297 193.161 266.517C193.925 266.876 194.851 266.364 195.75 266.364C196.553 266.354 197.332 266.635 197.944 267.155C198.24 267.36 198.486 267.629 198.665 267.942C198.844 268.254 198.951 268.603 198.978 268.962Z" fill="#FAFAFA"/>
</svg>
