<svg width="100" height="100" viewBox="0 0 100 100" fill="none" xmlns="http://www.w3.org/2000/svg">
<path d="M73.7133 24.4757L77.6657 17.6007C77.8463 17.2863 77.8947 16.9131 77.8002 16.5631C77.7057 16.2131 77.4761 15.915 77.1618 15.7343L71.5735 12.5241C71.2591 12.3436 70.8858 12.2953 70.5358 12.3899C70.1857 12.4846 69.8877 12.7144 69.7071 13.0288L65.761 19.8968C62.203 18.362 58.4388 17.3581 54.5891 16.9171V12.7382H57.3626C57.7252 12.7382 58.0729 12.5941 58.3293 12.3377C58.5857 12.0813 58.7297 11.7336 58.7297 11.371V4.92725C58.7298 4.74768 58.6945 4.56985 58.6259 4.40392C58.5572 4.238 58.4565 4.08725 58.3295 3.96027C58.2025 3.83329 58.0518 3.73259 57.8859 3.66392C57.7199 3.59525 57.5421 3.55996 57.3626 3.56006H42.6375C42.458 3.55996 42.2801 3.59525 42.1142 3.66392C41.9483 3.73259 41.7975 3.83329 41.6706 3.96027C41.5436 4.08725 41.4429 4.238 41.3742 4.40392C41.3056 4.56985 41.2703 4.74768 41.2704 4.92725V11.371C41.2704 11.7336 41.4144 12.0813 41.6708 12.3377C41.9272 12.5941 42.2749 12.7382 42.6375 12.7382H45.411V16.9132C41.5612 17.3542 37.7971 18.3581 34.2391 19.8929L30.293 13.0249C30.2037 12.8691 30.0845 12.7325 29.9423 12.6228C29.8002 12.5132 29.6378 12.4326 29.4644 12.3857C29.2911 12.3388 29.1102 12.3266 28.9321 12.3497C28.7541 12.3728 28.5823 12.4307 28.4266 12.5202L22.8383 15.7304C22.524 15.9111 22.2944 16.2092 22.1999 16.5592C22.1054 16.9092 22.1538 17.2824 22.3344 17.5968L26.2868 24.4757C19.5327 29.467 14.5259 36.4622 11.9793 44.4651C9.43277 52.4679 9.47639 61.0703 12.104 69.0469C14.7315 77.0235 19.8091 83.9676 26.6134 88.8901C33.4177 93.8127 41.6018 96.4627 50 96.4627C58.3983 96.4627 66.5824 93.8127 73.3867 88.8901C80.191 83.9676 85.2686 77.0235 87.8961 69.0469C90.5237 61.0703 90.5673 52.4679 88.0208 44.4651C85.4742 36.4622 80.4674 29.467 73.7133 24.4757ZM71.3969 15.5694L74.6133 17.4218L71.4508 22.9265C70.4092 22.2608 69.3381 21.6431 68.2375 21.0733L71.3969 15.5694ZM44.0047 6.29443H55.9954V10.0038H44.0047V6.29443ZM48.1454 12.7382H51.8547V16.689C51.2399 16.6601 50.625 16.6405 50 16.6405C49.375 16.6405 48.7602 16.6593 48.1454 16.6882V12.7382ZM25.3868 17.4218L28.6032 15.5741L31.7625 21.0733C30.661 21.6421 29.5899 22.2598 28.5493 22.9265L25.3868 17.4218ZM50 93.7054C42.6495 93.7054 35.464 91.5257 29.3523 87.4419C23.2405 83.3581 18.477 77.5537 15.6641 70.7627C12.8512 63.9717 12.1153 56.499 13.5494 49.2897C14.9835 42.0804 18.5231 35.4583 23.7208 30.2607C28.9185 25.0632 35.5407 21.5236 42.75 20.0897C49.9594 18.6558 57.432 19.3919 64.223 22.2049C71.0139 25.018 76.8182 29.7816 80.9019 35.8934C84.9855 42.0052 87.165 49.1908 87.1649 56.5413C87.1535 66.3945 83.2343 75.8408 76.267 82.808C69.2996 89.7752 59.8532 93.6942 50 93.7054Z" fill="#4159B4"/>
<path d="M76.8812 71.9226C79.5851 67.2173 81.0009 61.8823 80.9861 56.4554C80.9713 51.0286 79.5263 45.7014 76.7968 41.0109C76.7787 40.9641 76.7579 40.9185 76.7343 40.8742C76.7101 40.8377 76.684 40.8025 76.6562 40.7687C73.9663 36.2435 70.1752 32.4723 65.6359 29.8062C65.5986 29.7755 65.5595 29.747 65.5187 29.7211C65.4744 29.6981 65.4287 29.6777 65.382 29.6601C60.677 26.9561 55.3423 25.5401 49.9157 25.5548C44.489 25.5695 39.1621 27.0143 34.4718 29.7437C34.4243 29.7625 34.3779 29.7839 34.3328 29.8078C34.2968 29.832 34.2621 29.8581 34.2289 29.8859C29.7029 32.5758 25.931 36.3668 23.264 40.9062C23.1992 40.9801 23.1498 41.0661 23.1187 41.1593C20.4148 45.8646 18.999 51.1994 19.0138 56.6261C19.0286 62.0529 20.4736 67.3799 23.2031 72.0703C23.2213 72.1172 23.2422 72.1632 23.2656 72.2078C23.2828 72.2375 23.3086 72.2593 23.3273 72.2859C26.0176 76.822 29.8136 80.6022 34.3609 83.2734C34.3991 83.3045 34.439 83.3334 34.4804 83.3601C34.5148 83.3797 34.5523 83.3875 34.5875 83.4047C39.301 86.1195 44.6481 87.5412 50.0876 87.5257C55.5271 87.5102 60.866 86.0581 65.564 83.3164C65.5976 83.3 65.6335 83.2929 65.6664 83.2734C65.6992 83.2539 65.7351 83.2226 65.7703 83.1953C70.3064 80.4996 74.0851 76.6978 76.7531 72.1453C76.7742 72.1148 76.8007 72.0922 76.8195 72.0593C76.8431 72.0152 76.8637 71.9695 76.8812 71.9226ZM65.4398 80.182L63.6828 77.1875C63.4994 76.8746 63.1992 76.6474 62.8483 76.5558C62.4974 76.4642 62.1245 76.5158 61.8117 76.6992C61.4988 76.8826 61.2716 77.1827 61.18 77.5336C61.0884 77.8845 61.14 78.2574 61.3234 78.5703L63.0828 81.5718C59.4563 83.478 55.4563 84.5665 51.364 84.7609V81.2726C51.364 80.91 51.22 80.5623 50.9636 80.3059C50.7072 80.0495 50.3594 79.9054 49.9968 79.9054C49.6342 79.9054 49.2865 80.0495 49.0301 80.3059C48.7737 80.5623 48.6296 80.91 48.6296 81.2726V84.7609C44.592 84.5672 40.644 83.5028 37.0562 81.6406L38.7984 78.6304C38.9743 78.317 39.0197 77.9468 38.9247 77.6001C38.8298 77.2534 38.6021 76.9581 38.2909 76.778C37.9798 76.598 37.6103 76.5477 37.2624 76.6381C36.9145 76.7284 36.6161 76.9522 36.432 77.2609L34.6921 80.2679C31.3681 78.1151 28.5298 75.2925 26.3585 71.9804L29.3562 70.2242C29.6674 70.0401 29.8929 69.7402 29.9835 69.3902C30.0741 69.0402 30.0224 68.6685 29.8397 68.3565C29.6569 68.0446 29.3581 67.8177 29.0084 67.7255C28.6588 67.6334 28.287 67.6834 27.9742 67.8648L24.9726 69.6242C23.0662 65.9978 21.9774 61.9978 21.7828 57.9054H25.2711C25.6337 57.9054 25.9814 57.7614 26.2378 57.505C26.4942 57.2486 26.6382 56.9009 26.6382 56.5383C26.6382 56.1757 26.4942 55.8279 26.2378 55.5715C25.9814 55.3151 25.6337 55.1711 25.2711 55.1711H21.7828C21.9755 51.1326 23.0392 47.1835 24.9007 43.5945L27.9117 45.3359C28.2249 45.5082 28.5932 45.551 28.9376 45.455C29.282 45.359 29.5751 45.132 29.7541 44.8225C29.9331 44.5131 29.9838 44.1458 29.8952 43.7994C29.8067 43.453 29.586 43.1551 29.2804 42.9695L26.2742 41.2297C28.4268 37.9069 31.2489 35.0696 34.5601 32.8992L36.3171 35.8968C36.5013 36.208 36.8011 36.4336 37.1512 36.5242C37.5012 36.6148 37.8728 36.5631 38.1848 36.3803C38.4968 36.1976 38.7237 35.8987 38.8158 35.5491C38.908 35.1995 38.8579 34.8276 38.6765 34.5148L36.9171 31.5133C40.5434 29.6067 44.5435 28.5181 48.6359 28.3242V31.8117C48.6359 32.1743 48.7799 32.522 49.0363 32.7784C49.2927 33.0348 49.6405 33.1789 50.0031 33.1789C50.3657 33.1789 50.7134 33.0348 50.9698 32.7784C51.2262 32.522 51.3703 32.1743 51.3703 31.8117V28.3242C55.4087 28.5167 59.3578 29.5801 62.9468 31.4414L61.2015 34.4531C61.1087 34.6086 61.0478 34.781 61.0222 34.9602C60.9966 35.1395 61.0069 35.322 61.0524 35.4973C61.0979 35.6725 61.1778 35.837 61.2874 35.9811C61.397 36.1252 61.5341 36.2462 61.6908 36.3368C61.8475 36.4275 62.0207 36.4862 62.2003 36.5094C62.3798 36.5327 62.5622 36.52 62.7369 36.4721C62.9115 36.4243 63.0749 36.3423 63.2176 36.2308C63.3602 36.1193 63.4793 35.9805 63.5679 35.8226L65.3078 32.8125C68.6319 34.9658 71.4703 37.7889 73.6414 41.1015L70.6437 42.8578C70.4879 42.9481 70.3516 43.0683 70.2424 43.2115C70.1332 43.3546 70.0534 43.518 70.0075 43.6921C69.9616 43.8662 69.9505 44.0476 69.975 44.226C69.9994 44.4044 70.0588 44.5762 70.1498 44.7315C70.2408 44.8869 70.3616 45.0228 70.5053 45.1313C70.6489 45.2399 70.8126 45.319 70.9869 45.3641C71.1612 45.4092 71.3427 45.4195 71.521 45.3942C71.6992 45.369 71.8708 45.3088 72.0257 45.2172L75.0281 43.4578C76.9339 47.0844 78.0224 51.0843 78.2171 55.1765H74.7289C74.3663 55.1765 74.0185 55.3206 73.7621 55.577C73.5057 55.8334 73.3617 56.1811 73.3617 56.5437C73.3617 56.9063 73.5057 57.2541 73.7621 57.5105C74.0185 57.7669 74.3663 57.9109 74.7289 57.9109H78.2171C78.0239 61.9483 76.9603 65.8963 75.0992 69.4843L72.089 67.7422C71.7751 67.5605 71.4019 67.5111 71.0515 67.6046C70.7011 67.6982 70.4023 67.9271 70.2207 68.241C70.039 68.5549 69.9896 68.9281 70.0831 69.2785C70.1767 69.6289 70.4056 69.9277 70.7195 70.1093L73.7257 71.8492C71.5734 75.1729 68.7513 78.0109 65.4398 80.182Z" fill="#4159B4"/>
<path d="M70.6203 56.5412C70.6203 56.1786 70.4763 55.8309 70.2199 55.5745C69.9635 55.3181 69.6157 55.174 69.2531 55.174H56.089C55.828 54.0214 55.2461 52.9662 54.4105 52.1305C53.5749 51.2947 52.5198 50.7126 51.3672 50.4514V37.2881C51.3672 36.9255 51.2231 36.5777 50.9667 36.3213C50.7103 36.0649 50.3626 35.9209 50 35.9209C49.6374 35.9209 49.2896 36.0649 49.0332 36.3213C48.7768 36.5777 48.6328 36.9255 48.6328 37.2881V50.4514C47.542 50.6957 46.5368 51.2283 45.7222 51.9937C44.9076 52.7592 44.3134 53.7293 44.0017 54.8028C43.6901 55.8762 43.6723 57.0137 43.9504 58.0964C44.2284 59.179 44.7921 60.1672 45.5824 60.9576C46.3728 61.7481 47.3609 62.3118 48.4435 62.59C49.5262 62.8682 50.6637 62.8506 51.7372 62.539C52.8107 62.2275 53.7809 61.6334 54.5464 60.8188C55.3119 60.0043 55.8446 58.9992 56.089 57.9084H69.2531C69.6156 57.9082 69.9633 57.7641 70.2196 57.5077C70.476 57.2514 70.6201 56.9038 70.6203 56.5412ZM50 60.0514C49.3055 60.0515 48.6266 59.8457 48.0491 59.46C47.4716 59.0743 47.0215 58.5259 46.7557 57.8844C46.4898 57.2428 46.4202 56.5368 46.5557 55.8557C46.6911 55.1745 47.0255 54.5489 47.5166 54.0578C48.0077 53.5668 48.6333 53.2324 49.3144 53.0969C49.9956 52.9615 50.7016 53.0311 51.3431 53.2969C51.9847 53.5627 52.533 54.0129 52.9188 54.5903C53.3045 55.1678 53.5103 55.8467 53.5101 56.5412C53.5087 57.4717 53.1384 58.3637 52.4804 59.0217C51.8225 59.6796 50.9305 60.0499 50 60.0514Z" fill="#4159B4"/>
</svg>
