<svg width="591" height="565" viewBox="0 0 591 565" fill="none" xmlns="http://www.w3.org/2000/svg">
<path opacity="0.5" d="M340.757 516.872L140.615 401.322C139.59 400.729 138.739 399.877 138.147 398.852C137.555 397.826 137.243 396.663 137.243 395.478C137.243 394.294 137.555 393.131 138.147 392.105C138.739 391.08 139.59 390.228 140.615 389.635L330.913 279.735L543.84 402.668C544.866 403.261 545.717 404.113 546.309 405.138C546.901 406.164 547.212 407.327 547.212 408.512C547.212 409.696 546.901 410.859 546.309 411.885C545.717 412.911 544.866 413.762 543.84 414.355L366.313 516.825C362.432 519.075 358.027 520.264 353.541 520.272C349.055 520.28 344.646 519.108 340.757 516.872Z" fill="#173D7A"/>
<path d="M334.984 218.253C334.984 205.545 326.052 200.359 315.031 206.706L127.861 314.594C126.252 315.625 124.91 317.022 123.944 318.671C122.978 320.32 122.416 322.174 122.304 324.082C122.304 327.58 124.749 329.004 127.783 327.178L314.969 219.336C319.923 216.473 323.963 218.81 323.963 224.537V245.465C327.585 245.248 331.238 245.233 334.922 245.31L334.984 218.253Z" fill="#8DA1F8"/>
<path d="M127.768 364.9L314.954 296.684C325.959 290.338 334.937 274.844 334.953 262.136V245.387C331.269 245.31 327.616 245.387 323.994 245.542V268.451C323.821 271.574 322.916 274.612 321.35 277.32C319.785 280.028 317.605 282.33 314.985 284.038L127.783 352.238C126.189 353.278 124.862 354.679 123.91 356.328C122.958 357.976 122.408 359.826 122.304 361.727C122.304 365.302 124.749 366.634 127.768 364.9Z" fill="#8DA1F8"/>
<path d="M123.712 365.147L351.407 496.904L544.196 381.942L559.49 359.111L557.895 367.191L553.793 346.016L195.937 359.668L132.891 355.612L123.712 365.147Z" fill="#8DA1F8"/>
<path d="M131.267 325.382L131.205 353.414L351.268 480.728L357.212 454.027L131.267 325.382Z" fill="#8A9DF9"/>
<path d="M556.657 337.007L329.319 205.483L124.347 324.686L123.929 327.611L351.593 459.321L556.657 337.007Z" fill="#8DA1F8"/>
<path d="M484.185 404.557L537.633 372.84C539.98 371.093 541.915 368.853 543.303 366.278C544.691 363.703 545.498 360.855 545.667 357.934V353.739C545.667 350.35 544.243 348.152 542.06 347.548L436.804 406.089L351.113 452.433V480.759L484.185 404.557Z" fill="white"/>
<path d="M358.883 454.987L132.984 324.299L128.201 321.528L123.852 318.99C122.958 320.543 122.459 322.291 122.397 324.082C122.325 324.752 122.43 325.429 122.702 326.045C122.974 326.662 123.402 327.196 123.945 327.596L351.562 459.275L358.883 454.987Z" fill="#8DA1F8"/>
<path d="M348.574 495.263L351.407 496.904L351.933 496.006L350.169 494.613L348.574 495.263Z" fill="white"/>
<path d="M348.651 457.618L351.561 459.306L350.834 457.711L348.651 457.618Z" fill="white"/>
<path d="M355.524 446.319L542.71 338.477C553.716 332.131 562.663 337.301 562.663 350.009V354.219C562.663 366.928 553.685 382.422 542.664 388.768L355.447 496.61C352.351 498.359 349.967 496.935 349.967 493.514C350.07 491.613 350.62 489.763 351.572 488.114C352.524 486.466 353.852 485.065 355.447 484.025L542.633 376.138C545.254 374.432 547.436 372.134 549.004 369.429C550.572 366.724 551.481 363.687 551.657 360.566V356.356C551.657 350.628 547.633 348.291 542.664 351.155L355.509 458.965C352.49 460.714 350.029 459.29 350.029 455.869C350.127 453.957 350.675 452.094 351.63 450.434C352.585 448.775 353.92 447.364 355.524 446.319Z" fill="#8DA1F8"/>
<path d="M349.967 493.452C350.07 491.551 350.62 489.701 351.572 488.052C352.524 486.403 353.852 485.003 355.447 483.963L542.633 376.137C545.254 374.432 547.436 372.134 549.004 369.429C550.572 366.724 551.481 363.687 551.657 360.566V356.355C551.657 352.61 549.924 350.319 547.339 349.994C548.283 351.351 548.746 352.986 548.654 354.637V358.848C548.481 361.97 547.574 365.008 546.006 367.713C544.438 370.419 542.253 372.717 539.63 374.419L352.459 482.23C350.862 483.264 349.531 484.661 348.576 486.307C347.621 487.954 347.069 489.802 346.964 491.703C346.964 494.365 348.373 495.805 350.37 495.604C350.094 494.92 349.957 494.189 349.967 493.452Z" fill="white"/>
<path d="M350.029 455.807C350.136 453.906 350.689 452.056 351.644 450.407C352.598 448.759 353.928 447.358 355.524 446.319L542.71 338.477C547.447 335.738 551.796 335.149 555.233 336.372C551.564 333.276 545.945 333.122 539.754 336.744L352.521 444.585C350.927 445.625 349.6 447.026 348.648 448.675C347.696 450.323 347.146 452.173 347.042 454.074C347.042 456.721 348.45 458.16 350.447 457.959C350.159 457.279 350.016 456.546 350.029 455.807Z" fill="white"/>
<path d="M564.288 143.784L362.335 27.1815C361.325 26.5513 360.189 26.1499 359.007 26.0055C357.825 25.8611 356.625 25.9772 355.493 26.3457L355.122 26.485H355.029L347.738 29.2712L354.301 32.5063L354.208 32.8623L321.316 182.652C319.66 190.143 322.957 198.904 328.668 202.201L525.776 315.925L525.064 324.283L533.051 321.188C534.563 320.361 535.864 319.199 536.854 317.79C537.844 316.381 538.497 314.763 538.763 313.061L571.656 163.334C573.297 155.827 570 147.05 564.288 143.784Z" fill="#E3E8FD"/>
<path d="M564.288 143.784L362.335 27.1815C361.325 26.5513 360.189 26.1499 359.007 26.0055C357.825 25.8611 356.625 25.9772 355.493 26.3457L355.122 26.485H355.029L347.738 29.2712L354.301 32.5063L354.208 32.8623L332.522 131.571L431.34 208.563L570.65 151.864C569.501 148.53 567.259 145.683 564.288 143.784Z" fill="#E3E8FD"/>
<path d="M556.672 166.801L572.043 160.253C572.225 157.389 571.763 154.521 570.692 151.858C569.62 149.196 567.966 146.807 565.851 144.867L541.519 155.099L556.672 166.801Z" fill="#E3E8FD"/>
<path d="M518.053 323.509L316.1 206.891C310.388 203.594 307.091 194.849 308.732 187.341L341.624 37.6142C343.281 30.1224 349.24 26.779 354.952 30.0141L556.905 146.617C562.617 149.914 565.914 158.659 564.273 166.151L531.38 315.894C529.739 323.385 523.765 326.791 518.053 323.509Z" fill="#D4ECFF"/>
<path d="M558.809 145.905L356.886 29.3021C355.709 28.5542 354.355 28.129 352.962 28.0692C351.568 28.0095 350.183 28.3172 348.946 28.9616C351.009 28.5374 353.156 28.9137 354.952 30.0141L556.905 146.617C562.616 149.914 565.913 158.659 564.273 166.151L531.38 315.894C531.115 317.528 530.498 319.085 529.57 320.456C528.643 321.828 527.427 322.981 526.009 323.834C529.414 323.091 532.2 319.996 533.315 315.182L566.207 165.439C567.864 157.885 564.567 149.202 558.809 145.905Z" fill="white"/>
<path d="M513.672 312.349L323.746 202.774C318.514 199.756 315.496 191.753 316.997 184.896L347.104 47.8768C348.652 41.0197 354.069 37.9084 359.301 40.9268L549.227 150.533C554.459 153.629 557.477 161.554 555.976 168.411L525.869 305.399C524.368 312.256 518.904 315.367 513.672 312.349Z" fill="white"/>
<path d="M513.672 312.349L323.746 202.774C318.514 199.756 315.496 191.753 316.997 184.896L347.104 47.8768C348.652 41.0197 354.069 37.9084 359.301 40.9268L549.227 150.533C554.459 153.629 557.477 161.554 555.976 168.411L525.869 305.399C524.368 312.256 518.904 315.367 513.672 312.349Z" fill="#8DA1F8"/>
<path d="M515.329 311.683L325.403 202.077C320.171 198.982 317.153 191.041 318.654 184.184L348.76 47.1647C348.999 45.6914 349.549 44.286 350.374 43.0421C351.199 41.7983 352.279 40.7446 353.543 39.9516C350.541 40.7255 348.048 43.5581 347.104 47.8458L316.998 184.865C315.45 191.722 318.546 199.725 323.747 202.743L513.672 312.349C514.773 313.048 516.041 313.441 517.344 313.487C518.647 313.533 519.939 313.231 521.087 312.612C520.113 312.845 519.103 312.883 518.115 312.723C517.127 312.564 516.18 312.211 515.329 311.683Z" fill="#5793CE"/>
<path d="M520.839 328.571L493.24 324.918L315.032 222.03C309.32 218.733 299.336 219.151 292.742 222.958L166.465 295.833L149.779 293.635V303.108C149.671 305.291 150.909 307.396 153.618 308.959L355.571 425.562C361.283 428.859 371.266 428.441 377.86 424.633L515.468 345.257C519.183 343.121 521.025 340.366 520.916 337.765L520.839 328.571Z" fill="#5793CE"/>
<path d="M386.993 263.56L374.331 256.238H235.099L166.465 295.833L149.779 293.635V303.108C149.671 305.291 150.909 307.396 153.618 308.959L355.571 425.562C359.124 427.353 363.112 428.099 367.072 427.713L386.993 263.56Z" fill="#5793CE"/>
<path d="M157.178 294.61L149.779 293.635V303.108C149.671 305.291 150.909 307.396 153.618 308.959L157.162 311.018L157.178 294.61Z" fill="#5793CE"/>
<path d="M357.583 426.506C363.82 428.523 370.59 428.103 376.529 425.33V404.201H357.583V426.506Z" fill="#5793CE"/>
<path d="M355.586 416.104L153.633 299.502C147.906 296.205 148.634 290.431 155.181 286.623L292.696 207.263C299.29 203.455 309.273 203.037 314.985 206.334L517.016 322.937C522.727 326.234 522.015 331.992 515.468 335.8L377.953 415.175C371.282 418.983 361.298 419.478 355.586 416.104Z" fill="#D4ECFF"/>
<path d="M515.468 332.348L377.876 411.739C371.282 415.547 361.298 415.965 355.586 412.668L153.633 296.034C152.018 295.208 150.755 293.829 150.073 292.149C149.175 294.858 150.321 297.582 153.633 299.501L355.586 416.104C361.298 419.401 371.282 418.983 377.876 415.175L515.468 335.799C519.894 333.245 521.659 329.809 520.622 326.822C519.63 329.227 517.798 331.191 515.468 332.348Z" fill="white"/>
<path d="M239.525 260.897L230.377 255.619C229.65 255.201 229.742 254.458 230.594 253.963L241.429 247.771C241.864 247.528 242.349 247.391 242.846 247.369C243.343 247.348 243.839 247.443 244.293 247.647L253.441 252.925C254.168 253.359 254.075 254.086 253.224 254.582L242.389 260.773C241.954 261.016 241.469 261.154 240.972 261.175C240.474 261.197 239.979 261.101 239.525 260.897Z" fill="#5793CE"/>
<path d="M253.627 269.039L244.494 263.761C243.767 263.343 243.86 262.6 244.695 262.12L255.531 255.929C255.966 255.687 256.452 255.552 256.95 255.533C257.447 255.514 257.942 255.612 258.394 255.82L267.527 261.098C268.27 261.516 268.177 262.259 267.326 262.739L256.49 268.931C256.055 269.172 255.569 269.308 255.071 269.327C254.574 269.345 254.079 269.247 253.627 269.039Z" fill="#5793CE"/>
<path d="M267.805 277.197L258.673 271.918C257.93 271.485 258.023 270.757 258.874 270.262L269.709 264.07C270.144 263.828 270.629 263.69 271.126 263.669C271.624 263.647 272.119 263.742 272.573 263.947L281.705 269.225C282.433 269.643 282.34 270.386 281.504 270.881L270.669 277.073C270.234 277.315 269.749 277.453 269.252 277.474C268.755 277.496 268.259 277.401 267.805 277.197Z" fill="#5793CE"/>
<path d="M287.262 270.463L278.13 265.185C277.387 264.767 277.48 264.024 278.331 263.529L287.386 258.312C287.821 258.07 288.306 257.932 288.803 257.91C289.301 257.889 289.796 257.984 290.25 258.188L299.382 263.467C300.11 263.885 300.017 264.628 299.181 265.123L290.126 270.339C289.691 270.582 289.206 270.72 288.709 270.741C288.212 270.763 287.716 270.667 287.262 270.463Z" fill="#5793CE"/>
<path d="M301.379 278.621L292.231 273.342C291.504 272.924 291.596 272.181 292.432 271.702L301.487 266.47C301.922 266.227 302.407 266.089 302.905 266.068C303.402 266.046 303.897 266.142 304.351 266.346L313.499 271.624C314.227 272.042 314.134 272.785 313.282 273.28L304.227 278.512C303.796 278.757 303.312 278.895 302.816 278.914C302.321 278.933 301.828 278.832 301.379 278.621Z" fill="#5793CE"/>
<path d="M315.48 286.762L306.348 281.484C305.605 281.051 305.697 280.323 306.549 279.828L315.604 274.596C316.039 274.355 316.525 274.219 317.023 274.2C317.52 274.181 318.015 274.28 318.468 274.488L327.6 279.751C328.343 280.184 328.25 280.927 327.399 281.407L318.344 286.639C317.909 286.881 317.424 287.019 316.927 287.04C316.429 287.062 315.934 286.967 315.48 286.762Z" fill="#5793CE"/>
<path d="M329.597 294.904L320.465 289.626C319.722 289.208 319.815 288.465 320.666 287.97L329.721 282.753C330.156 282.511 330.641 282.373 331.138 282.352C331.635 282.33 332.131 282.425 332.585 282.63L341.717 287.908C342.445 288.326 342.352 289.069 341.516 289.564L332.461 294.781C332.026 295.023 331.541 295.161 331.044 295.182C330.547 295.204 330.051 295.109 329.597 294.904Z" fill="#5793CE"/>
<path d="M343.652 303.046L334.504 297.768C333.777 297.35 333.869 296.607 334.705 296.127L343.76 290.895C344.195 290.653 344.68 290.515 345.177 290.494C345.675 290.472 346.17 290.567 346.624 290.772L355.772 296.05C356.5 296.483 356.407 297.211 355.555 297.706L346.5 302.938C346.069 303.183 345.585 303.321 345.089 303.339C344.594 303.358 344.101 303.258 343.652 303.046Z" fill="#5793CE"/>
<path d="M357.815 311.204L348.683 305.925C347.94 305.492 348.032 304.764 348.884 304.269L357.939 299.037C358.374 298.796 358.86 298.66 359.358 298.641C359.855 298.623 360.35 298.721 360.802 298.929L369.935 304.207C370.678 304.625 370.585 305.368 369.734 305.848L360.679 311.126C360.24 311.362 359.753 311.491 359.256 311.505C358.759 311.518 358.265 311.415 357.815 311.204Z" fill="#5793CE"/>
<path d="M371.932 319.346L362.784 314.067C362.056 313.649 362.149 312.906 363.001 312.411L372.056 307.195C372.49 306.952 372.976 306.814 373.473 306.793C373.97 306.771 374.465 306.866 374.919 307.071L384.052 312.349C384.779 312.767 384.686 313.51 383.851 314.005L374.795 319.222C374.361 319.464 373.876 319.602 373.378 319.623C372.881 319.645 372.386 319.55 371.932 319.346Z" fill="#5793CE"/>
<path d="M386.033 327.487L376.9 322.209C376.173 321.791 376.266 321.048 377.102 320.568L386.157 315.337C386.591 315.094 387.077 314.956 387.574 314.935C388.071 314.913 388.567 315.008 389.02 315.213L398.168 320.491C398.896 320.924 398.803 321.652 397.952 322.147L388.897 327.379C388.461 327.621 387.975 327.756 387.478 327.775C386.98 327.794 386.485 327.695 386.033 327.487Z" fill="#5793CE"/>
<path d="M400.15 335.645L391.017 330.366C390.274 329.933 390.367 329.206 391.219 328.71L400.274 323.478C400.709 323.237 401.195 323.101 401.693 323.083C402.19 323.064 402.685 323.162 403.137 323.37L412.27 328.648C413.013 329.066 412.92 329.809 412.069 330.289L403.014 335.521C402.579 335.764 402.094 335.901 401.597 335.923C401.099 335.944 400.604 335.849 400.15 335.645Z" fill="#5793CE"/>
<path d="M414.267 343.787L405.119 338.508C404.391 338.09 404.484 337.347 405.336 336.852L414.391 331.636C414.825 331.393 415.311 331.255 415.808 331.234C416.305 331.212 416.8 331.308 417.254 331.512L426.387 336.79C427.114 337.208 427.021 337.951 426.186 338.446L417.13 343.632C416.698 343.88 416.214 344.023 415.717 344.049C415.22 344.076 414.723 343.986 414.267 343.787Z" fill="#5793CE"/>
<path d="M308.05 266.609L298.918 261.331C298.175 260.913 298.268 260.17 299.119 259.674L308.174 254.443C308.61 254.201 309.096 254.066 309.593 254.047C310.091 254.028 310.585 254.126 311.038 254.334L320.17 259.613C320.913 260.03 320.82 260.773 319.969 261.253L310.914 266.485C310.479 266.728 309.994 266.865 309.497 266.887C309 266.908 308.504 266.813 308.05 266.609Z" fill="#5793CE"/>
<path d="M293.733 258.343L284.6 253.065C283.857 252.631 283.95 251.904 284.801 251.409L293.856 246.177C294.292 245.935 294.778 245.8 295.275 245.781C295.773 245.762 296.268 245.861 296.72 246.068L305.853 251.331C306.58 251.765 306.487 252.508 305.651 252.987L296.596 258.219C296.16 258.459 295.675 258.594 295.179 258.616C294.682 258.637 294.187 258.544 293.733 258.343Z" fill="#5793CE"/>
<path d="M279.384 250.047L259.71 238.685C258.967 238.267 259.06 237.524 259.911 237.044L268.966 231.812C269.401 231.57 269.886 231.432 270.383 231.411C270.881 231.389 271.376 231.484 271.83 231.689L291.503 243.019C292.246 243.453 292.154 244.18 291.302 244.675L282.247 249.907C281.814 250.154 281.329 250.295 280.832 250.319C280.334 250.343 279.838 250.25 279.384 250.047Z" fill="#5793CE"/>
<path d="M289.476 239.923L273.502 230.636C272.774 230.218 272.867 229.475 273.703 228.98L282.758 223.763C283.192 223.521 283.678 223.383 284.175 223.361C284.672 223.34 285.168 223.435 285.622 223.639L301.596 232.927C302.323 233.345 302.246 234.088 301.395 234.568L292.277 239.923C291.841 240.137 291.362 240.247 290.877 240.247C290.391 240.247 289.912 240.137 289.476 239.923Z" fill="#5793CE"/>
<path d="M322.167 274.751L313.019 269.473C312.292 269.055 312.385 268.312 313.236 267.816L322.291 262.6C322.726 262.357 323.211 262.22 323.708 262.198C324.205 262.177 324.701 262.272 325.155 262.476L334.365 267.785C335.092 268.203 334.999 268.946 334.163 269.442L325.077 274.627C324.637 274.877 324.143 275.019 323.637 275.041C323.131 275.062 322.627 274.963 322.167 274.751Z" fill="#5793CE"/>
<path d="M336.268 282.893L327.136 277.63C326.408 277.196 326.501 276.453 327.337 275.974L336.392 270.742C336.828 270.503 337.313 270.367 337.81 270.345C338.306 270.324 338.801 270.417 339.256 270.618L348.404 275.896C349.131 276.33 349.038 277.057 348.187 277.552L339.132 282.784C338.697 283.026 338.211 283.161 337.713 283.18C337.216 283.199 336.721 283.101 336.268 282.893Z" fill="#5793CE"/>
<path d="M350.385 291.004L341.253 285.725C340.51 285.308 340.603 284.565 341.454 284.069L350.509 278.837C350.945 278.596 351.431 278.46 351.928 278.442C352.426 278.423 352.92 278.521 353.373 278.729L362.505 284.007C363.248 284.425 363.155 285.168 362.304 285.648L353.249 291.004C352.805 291.227 352.314 291.343 351.817 291.343C351.32 291.343 350.83 291.227 350.385 291.004Z" fill="#5793CE"/>
<path d="M364.502 299.192L355.354 293.914C354.627 293.496 354.72 292.753 355.571 292.273L364.626 287.041C365.061 286.798 365.546 286.661 366.043 286.639C366.54 286.618 367.036 286.713 367.49 286.917L376.622 292.196C377.35 292.614 377.257 293.357 376.421 293.852L367.366 299.068C366.931 299.311 366.446 299.449 365.949 299.47C365.451 299.492 364.956 299.396 364.502 299.192Z" fill="#5793CE"/>
<path d="M378.603 307.334L369.471 302.071C368.743 301.638 368.836 300.895 369.672 300.415L378.727 295.183C379.163 294.944 379.648 294.808 380.145 294.787C380.641 294.765 381.136 294.858 381.591 295.059L390.739 300.337C391.466 300.771 391.373 301.498 390.522 301.994L381.467 307.225C381.032 307.467 380.546 307.603 380.048 307.621C379.551 307.64 379.056 307.542 378.603 307.334Z" fill="#5793CE"/>
<path d="M392.72 315.491L383.587 310.213C382.844 309.795 382.937 309.052 383.789 308.557L392.844 303.325C393.279 303.084 393.765 302.948 394.263 302.929C394.76 302.91 395.255 303.009 395.707 303.217L404.84 308.495C405.583 308.913 405.49 309.656 404.639 310.136L395.583 315.368C395.149 315.61 394.664 315.748 394.166 315.769C393.669 315.791 393.174 315.696 392.72 315.491Z" fill="#5793CE"/>
<path d="M406.837 323.633L397.689 318.355C396.961 317.937 397.054 317.194 397.905 316.714L406.96 311.482C407.395 311.24 407.88 311.102 408.378 311.08C408.875 311.059 409.37 311.154 409.824 311.358L418.957 316.637C419.684 317.055 419.591 317.798 418.755 318.293L409.7 323.509C409.268 323.759 408.782 323.901 408.284 323.923C407.785 323.944 407.289 323.845 406.837 323.633Z" fill="#5793CE"/>
<path d="M420.938 331.775L411.805 326.512C411.078 326.079 411.171 325.336 412.007 324.856L421.062 319.624C421.497 319.383 421.983 319.247 422.481 319.228C422.978 319.209 423.473 319.308 423.925 319.516L433.073 324.779C433.801 325.212 433.708 325.955 432.857 326.435L423.801 331.667C423.366 331.908 422.88 332.044 422.383 332.063C421.885 332.081 421.39 331.983 420.938 331.775Z" fill="#5793CE"/>
<path d="M435.055 339.932L425.922 334.654C425.179 334.236 425.272 333.493 426.123 332.998L435.179 327.782C435.611 327.532 436.097 327.39 436.595 327.368C437.094 327.347 437.59 327.446 438.042 327.658L447.175 332.936C447.918 333.354 447.825 334.097 446.974 334.577L437.918 339.809C437.484 340.051 436.999 340.189 436.501 340.21C436.004 340.232 435.509 340.137 435.055 339.932Z" fill="#5793CE"/>
<path d="M460.146 354.467L440.209 342.951C439.466 342.533 439.559 341.79 440.411 341.295L449.466 336.063C449.901 335.821 450.387 335.686 450.885 335.667C451.382 335.648 451.877 335.747 452.329 335.954L472.266 347.455C472.994 347.889 472.901 348.632 472.065 349.111L463.01 354.343C462.574 354.583 462.089 354.718 461.592 354.74C461.096 354.761 460.601 354.668 460.146 354.467Z" fill="#5793CE"/>
<path d="M487.606 338.555L470.765 328.834C470.037 328.416 470.13 327.673 470.982 327.178L480.037 321.961C480.471 321.719 480.957 321.581 481.454 321.56C481.951 321.538 482.446 321.633 482.9 321.838L499.726 331.558C500.453 331.976 500.36 332.719 499.509 333.199L490.469 338.431C490.035 338.674 489.55 338.811 489.052 338.833C488.555 338.854 488.06 338.759 487.606 338.555Z" fill="#5793CE"/>
<path d="M346.871 273.156L337.739 267.878C337.011 267.46 337.104 266.717 337.94 266.222L346.995 261.005C347.43 260.763 347.915 260.625 348.412 260.604C348.91 260.582 349.405 260.677 349.859 260.882L358.991 266.16C359.734 266.578 359.642 267.321 358.79 267.816L349.735 273.033C349.3 273.275 348.815 273.413 348.318 273.434C347.821 273.456 347.325 273.361 346.871 273.156Z" fill="#5793CE"/>
<path d="M332.414 264.813L323.282 259.535C322.539 259.102 322.632 258.374 323.483 257.879L332.538 252.647C332.973 252.406 333.459 252.27 333.957 252.251C334.454 252.232 334.949 252.331 335.402 252.539L344.534 257.817C345.277 258.235 345.184 258.978 344.333 259.458L335.278 264.69C334.843 264.932 334.358 265.07 333.861 265.091C333.363 265.113 332.868 265.018 332.414 264.813Z" fill="#5793CE"/>
<path d="M317.957 256.455L308.809 251.176C308.082 250.758 308.175 250.015 309.026 249.536L318.081 244.304C318.511 244.056 318.994 243.916 319.49 243.895C319.986 243.873 320.479 243.971 320.929 244.18L330.077 249.458C330.805 249.876 330.712 250.619 329.876 251.114L320.821 256.346C320.385 256.588 319.899 256.723 319.402 256.742C318.905 256.761 318.41 256.663 317.957 256.455Z" fill="#5793CE"/>
<path d="M303.484 248.112L294.352 242.833C293.624 242.415 293.717 241.672 294.553 241.177L303.608 235.945C304.043 235.704 304.529 235.568 305.027 235.549C305.524 235.53 306.019 235.629 306.472 235.837L315.604 241.115C316.347 241.533 316.254 242.276 315.403 242.756L306.348 247.988C305.913 248.23 305.428 248.368 304.931 248.39C304.433 248.411 303.938 248.316 303.484 248.112Z" fill="#5793CE"/>
<path d="M360.988 281.298L351.856 276.036C351.113 275.602 351.206 274.859 352.057 274.379L361.112 269.147C361.548 268.908 362.033 268.773 362.53 268.751C363.026 268.73 363.521 268.823 363.976 269.024L373.108 274.302C373.836 274.735 373.758 275.463 372.907 275.958L363.852 281.19C363.417 281.431 362.931 281.567 362.433 281.586C361.936 281.605 361.441 281.506 360.988 281.298Z" fill="#5793CE"/>
<path d="M375.105 289.456L365.957 284.178C365.23 283.76 365.323 283.017 366.174 282.521L375.214 277.289C375.649 277.048 376.135 276.912 376.632 276.894C377.13 276.875 377.625 276.973 378.077 277.181L387.225 282.459C387.953 282.877 387.86 283.62 387.008 284.1L377.969 289.332C377.534 289.575 377.049 289.712 376.552 289.734C376.054 289.755 375.559 289.66 375.105 289.456Z" fill="#5793CE"/>
<path d="M389.206 297.598L380.074 292.319C379.346 291.902 379.424 291.159 380.275 290.679L389.33 285.447C389.765 285.204 390.25 285.067 390.747 285.045C391.244 285.024 391.74 285.119 392.194 285.323L401.326 290.601C402.069 291.019 401.976 291.762 401.125 292.258L392.07 297.474C391.635 297.717 391.15 297.854 390.653 297.876C390.155 297.897 389.66 297.802 389.206 297.598Z" fill="#5793CE"/>
<path d="M403.323 305.74L394.19 300.477C393.447 300.043 393.54 299.3 394.392 298.821L403.447 293.589C403.882 293.347 404.368 293.212 404.866 293.193C405.363 293.174 405.858 293.272 406.31 293.48L415.443 298.743C416.17 299.177 416.093 299.904 415.242 300.399L406.186 305.631C405.751 305.873 405.265 306.008 404.768 306.027C404.27 306.046 403.775 305.947 403.323 305.74Z" fill="#5793CE"/>
<path d="M417.44 313.897L408.292 308.619C407.564 308.201 407.657 307.458 408.508 306.962L417.548 301.746C417.98 301.496 418.466 301.354 418.965 301.333C419.463 301.311 419.96 301.411 420.412 301.622L429.56 306.901C430.287 307.318 430.194 308.061 429.343 308.541L420.303 313.773C419.869 314.016 419.383 314.153 418.886 314.175C418.389 314.196 417.894 314.101 417.44 313.897Z" fill="#5793CE"/>
<path d="M431.541 322.039L422.409 316.76C421.681 316.342 421.759 315.6 422.61 315.12L431.665 309.888C432.1 309.645 432.585 309.507 433.082 309.486C433.579 309.464 434.075 309.56 434.529 309.764L443.661 315.042C444.404 315.46 444.311 316.203 443.46 316.699L434.405 321.961C433.969 322.204 433.481 322.338 432.982 322.351C432.484 322.365 431.989 322.257 431.541 322.039Z" fill="#5793CE"/>
<path d="M445.658 330.181L436.525 324.918C435.782 324.485 435.875 323.757 436.727 323.262L445.782 318.03C446.217 317.788 446.703 317.653 447.201 317.634C447.698 317.615 448.193 317.714 448.645 317.922L457.778 323.184C458.505 323.618 458.412 324.361 457.577 324.841L448.521 330.072C448.086 330.314 447.6 330.449 447.103 330.468C446.605 330.487 446.11 330.389 445.658 330.181Z" fill="#5793CE"/>
<path d="M459.743 338.338L450.595 333.06C449.868 332.642 449.961 331.899 450.797 331.404L459.852 326.187C460.286 325.945 460.772 325.807 461.269 325.785C461.766 325.764 462.261 325.859 462.715 326.063L471.863 331.342C472.591 331.76 472.498 332.503 471.647 332.982L462.591 338.214C462.161 338.462 461.678 338.602 461.182 338.624C460.687 338.645 460.193 338.547 459.743 338.338Z" fill="#5793CE"/>
<path d="M473.876 346.48L464.744 341.202C464.001 340.784 464.093 340.041 464.945 339.561L474 334.329C474.434 334.086 474.92 333.949 475.417 333.927C475.914 333.906 476.41 334.001 476.864 334.205L485.996 339.484C486.739 339.902 486.646 340.645 485.795 341.14L476.771 346.372C476.331 346.618 475.84 346.757 475.336 346.775C474.833 346.794 474.333 346.693 473.876 346.48Z" fill="#5793CE"/>
<path d="M339.442 253.003L330.309 247.725C329.582 247.307 329.659 246.564 330.51 246.084L339.565 240.852C340 240.609 340.485 240.472 340.983 240.45C341.48 240.429 341.975 240.524 342.429 240.728L351.562 246.006C352.305 246.424 352.212 247.167 351.36 247.663L342.305 252.895C341.87 253.136 341.384 253.272 340.886 253.29C340.389 253.309 339.894 253.211 339.442 253.003Z" fill="#5793CE"/>
<path d="M325.402 244.892L316.27 239.629C315.527 239.196 315.62 238.453 316.471 237.973L325.526 232.741C325.962 232.5 326.448 232.364 326.945 232.345C327.443 232.326 327.938 232.425 328.39 232.633L337.522 237.895C338.265 238.329 338.173 239.072 337.321 239.552L328.266 244.784C327.831 245.025 327.345 245.161 326.847 245.179C326.35 245.198 325.855 245.1 325.402 244.892Z" fill="#5793CE"/>
<path d="M311.363 236.828L302.23 231.549C301.487 231.131 301.58 230.388 302.432 229.893L311.487 224.661C311.922 224.42 312.408 224.284 312.906 224.265C313.403 224.247 313.898 224.345 314.35 224.553L323.483 229.831C324.226 230.249 324.133 230.992 323.282 231.472L314.242 236.673C313.808 236.923 313.321 237.067 312.821 237.094C312.321 237.121 311.821 237.03 311.363 236.828Z" fill="#5793CE"/>
<path d="M297.324 228.686L288.191 223.407C287.448 222.989 287.541 222.246 288.393 221.751L297.448 216.535C297.882 216.292 298.368 216.154 298.865 216.133C299.362 216.111 299.857 216.207 300.311 216.411L309.444 221.689C310.171 222.107 310.078 222.85 309.243 223.345L300.187 228.562C299.753 228.804 299.268 228.942 298.77 228.964C298.273 228.985 297.778 228.89 297.324 228.686Z" fill="#5793CE"/>
<path d="M311.765 220.342L302.617 215.08C301.89 214.646 301.983 213.903 302.834 213.423L305.821 211.69C306.257 211.448 306.743 211.313 307.24 211.294C307.738 211.275 308.233 211.374 308.685 211.581L317.818 216.844C318.561 217.278 318.468 218.021 317.616 218.5L314.629 220.234C314.194 220.475 313.708 220.611 313.21 220.63C312.713 220.649 312.218 220.55 311.765 220.342Z" fill="#5793CE"/>
<path d="M330.092 230.93L320.944 225.652C320.217 225.234 320.31 224.491 321.146 223.996L324.149 222.278C324.583 222.035 325.068 221.897 325.566 221.876C326.063 221.854 326.558 221.949 327.012 222.154L336.145 227.432C336.872 227.85 336.795 228.593 335.943 229.088L332.941 230.806C332.511 231.054 332.027 231.194 331.532 231.216C331.036 231.237 330.542 231.139 330.092 230.93Z" fill="#5793CE"/>
<path d="M344.07 238.995L334.937 233.732C334.194 233.298 334.287 232.571 335.139 232.075L338.126 230.342C338.561 230.1 339.047 229.965 339.545 229.946C340.042 229.927 340.537 230.026 340.99 230.234L350.122 235.496C350.865 235.93 350.772 236.673 349.921 237.153L346.934 238.886C346.498 239.128 346.012 239.263 345.515 239.282C345.017 239.301 344.522 239.202 344.07 238.995Z" fill="#5793CE"/>
<path d="M358.047 247.074L348.915 241.796C348.172 241.378 348.265 240.635 349.116 240.14L352.104 238.422C352.538 238.179 353.023 238.041 353.521 238.02C354.018 237.998 354.513 238.094 354.967 238.298L364.115 243.576C364.843 243.994 364.75 244.737 363.899 245.232L360.911 246.951C360.477 247.193 359.991 247.331 359.494 247.352C358.997 247.374 358.501 247.279 358.047 247.074Z" fill="#5793CE"/>
<path d="M372.04 255.155L362.892 249.876C362.165 249.443 362.258 248.715 363.093 248.22L366.096 246.486C366.532 246.245 367.018 246.109 367.515 246.091C368.013 246.072 368.508 246.17 368.96 246.378L378.092 251.656C378.82 252.074 378.743 252.817 377.891 253.297L374.888 255.031C374.458 255.278 373.975 255.418 373.479 255.44C372.984 255.462 372.49 255.364 372.04 255.155Z" fill="#5793CE"/>
<path d="M450.1 300.291L440.952 295.013C440.225 294.595 440.318 293.852 441.169 293.372L444.156 291.638C444.591 291.396 445.076 291.258 445.574 291.236C446.071 291.215 446.566 291.31 447.02 291.514L456.153 296.793C456.896 297.226 456.803 297.954 455.951 298.449L452.964 300.183C452.529 300.424 452.042 300.56 451.545 300.578C451.048 300.597 450.553 300.499 450.1 300.291Z" fill="#5793CE"/>
<path d="M464.078 308.293L454.945 303.015C454.202 302.597 454.295 301.854 455.146 301.359L458.134 299.641C458.568 299.398 459.054 299.261 459.551 299.239C460.048 299.217 460.544 299.313 460.997 299.517L470.145 304.795C470.873 305.213 470.78 305.956 469.929 306.452L466.941 308.17C466.507 308.412 466.022 308.55 465.524 308.571C465.027 308.593 464.532 308.498 464.078 308.293Z" fill="#5793CE"/>
<path d="M478.055 316.358L468.922 311.095C468.195 310.662 468.288 309.919 469.124 309.439L472.127 307.705C472.562 307.466 473.047 307.33 473.544 307.309C474.041 307.288 474.535 307.381 474.99 307.582L484.123 312.86C484.85 313.293 484.757 314.021 483.922 314.516L480.919 316.25C480.483 316.491 479.997 316.627 479.5 316.646C479.002 316.664 478.507 316.566 478.055 316.358Z" fill="#5793CE"/>
<path d="M492.048 324.438L482.962 319.16C482.235 318.742 482.327 317.999 483.179 317.503L486.058 315.77C486.492 315.527 486.978 315.39 487.475 315.368C487.972 315.346 488.468 315.442 488.921 315.646L498.054 320.924C498.797 321.342 498.704 322.085 497.853 322.581L494.865 324.299C494.438 324.536 493.961 324.673 493.473 324.697C492.984 324.721 492.497 324.632 492.048 324.438Z" fill="#5793CE"/>
<path d="M353.559 261.16L344.426 255.882C343.683 255.449 343.776 254.721 344.627 254.226L353.683 248.994C354.118 248.753 354.604 248.617 355.101 248.598C355.599 248.579 356.094 248.678 356.546 248.886L365.679 254.149C366.406 254.582 366.329 255.325 365.477 255.805L356.422 261.037C355.987 261.276 355.502 261.412 355.005 261.433C354.508 261.454 354.013 261.361 353.559 261.16Z" fill="#5793CE"/>
<path d="M367.676 269.333L358.527 264.055C357.8 263.637 357.893 262.894 358.744 262.399L367.784 257.182C368.218 256.94 368.704 256.802 369.201 256.78C369.698 256.759 370.194 256.854 370.647 257.058L379.795 262.337C380.523 262.755 380.43 263.498 379.579 263.993L370.539 269.209C370.105 269.452 369.619 269.59 369.122 269.611C368.625 269.633 368.129 269.537 367.676 269.333Z" fill="#5793CE"/>
<path d="M381.777 277.444L372.644 272.166C371.916 271.748 371.994 271.005 372.845 270.525L381.9 265.293C382.335 265.05 382.82 264.913 383.317 264.891C383.815 264.87 384.31 264.965 384.764 265.169L393.897 270.448C394.64 270.866 394.547 271.609 393.695 272.104L384.64 277.336C384.205 277.577 383.719 277.713 383.221 277.732C382.724 277.75 382.229 277.652 381.777 277.444Z" fill="#5793CE"/>
<path d="M395.893 285.602L386.761 280.323C386.018 279.89 386.111 279.162 386.962 278.667L396.017 273.435C396.452 273.194 396.938 273.058 397.436 273.039C397.933 273.021 398.428 273.119 398.881 273.327L408.013 278.59C408.741 279.023 408.648 279.766 407.812 280.246L398.757 285.478C398.322 285.72 397.837 285.858 397.34 285.88C396.842 285.901 396.347 285.806 395.893 285.602Z" fill="#5793CE"/>
<path d="M410.01 293.744L400.924 288.465C400.196 288.047 400.289 287.304 401.125 286.809L410.18 281.593C410.615 281.35 411.1 281.212 411.597 281.191C412.095 281.169 412.59 281.264 413.044 281.469L422.192 286.747C422.919 287.165 422.827 287.908 421.975 288.403L412.92 293.62C412.482 293.877 411.988 294.024 411.481 294.045C410.973 294.067 410.468 293.963 410.01 293.744Z" fill="#5793CE"/>
<path d="M424.142 301.839L415.01 296.561C414.267 296.143 414.36 295.4 415.211 294.92L424.266 289.688C424.701 289.445 425.186 289.308 425.683 289.286C426.18 289.265 426.676 289.36 427.13 289.564L436.262 294.842C437.005 295.276 436.912 296.003 436.061 296.499L426.975 301.839C426.535 302.058 426.05 302.172 425.559 302.172C425.067 302.172 424.582 302.058 424.142 301.839Z" fill="#5793CE"/>
<path d="M438.228 310.043L429.096 304.764C428.353 304.331 428.445 303.603 429.297 303.108L438.352 297.876C438.787 297.635 439.273 297.499 439.771 297.48C440.268 297.462 440.763 297.56 441.216 297.768L450.348 303.031C451.076 303.464 450.983 304.207 450.147 304.687L441.169 309.919C440.725 310.174 440.226 310.319 439.714 310.34C439.202 310.362 438.692 310.26 438.228 310.043Z" fill="#5793CE"/>
<path d="M452.345 318.184L443.197 312.906C442.469 312.488 442.562 311.745 443.398 311.25L452.453 306.034C452.888 305.791 453.373 305.653 453.87 305.632C454.368 305.61 454.863 305.705 455.317 305.91L464.465 311.188C465.192 311.606 465.1 312.349 464.248 312.844L455.193 318.061C454.763 318.308 454.28 318.448 453.784 318.47C453.288 318.491 452.795 318.394 452.345 318.184Z" fill="#5793CE"/>
<path d="M466.446 326.326L457.314 321.048C456.571 320.63 456.664 319.887 457.515 319.407L466.57 314.176C467.005 313.933 467.49 313.795 467.987 313.774C468.485 313.752 468.98 313.847 469.434 314.052L478.566 319.33C479.309 319.763 479.216 320.491 478.365 320.986L469.31 326.218C468.875 326.459 468.389 326.595 467.891 326.614C467.394 326.633 466.899 326.534 466.446 326.326Z" fill="#5793CE"/>
<path d="M272.883 262.167L245.965 246.688C245.237 246.254 245.33 245.527 246.182 245.031L255.221 239.8C255.657 239.558 256.143 239.423 256.64 239.404C257.138 239.385 257.633 239.483 258.085 239.691L285.003 255.17C285.73 255.604 285.637 256.347 284.802 256.826L275.746 262.058C275.309 262.295 274.824 262.428 274.327 262.447C273.831 262.466 273.336 262.37 272.883 262.167Z" fill="#5793CE"/>
<path d="M446.246 362.206L419.328 346.728C418.601 346.31 418.694 345.567 419.529 345.071L428.585 339.855C429.019 339.612 429.504 339.475 430.002 339.453C430.499 339.432 430.994 339.527 431.448 339.731L458.366 355.21C459.093 355.628 459.001 356.371 458.165 356.851L449.11 362.206C448.665 362.43 448.175 362.546 447.678 362.546C447.181 362.546 446.69 362.43 446.246 362.206Z" fill="#5793CE"/>
<path d="M389.81 347.672L380.678 342.394C379.935 341.96 380.028 341.233 380.879 340.737L391.714 334.546C392.149 334.303 392.634 334.166 393.131 334.144C393.628 334.122 394.124 334.218 394.578 334.422L403.71 339.7C404.438 340.118 404.345 340.861 403.509 341.357L392.674 347.548C392.238 347.787 391.753 347.923 391.256 347.944C390.76 347.966 390.265 347.873 389.81 347.672Z" fill="#5793CE"/>
<path d="M287.324 288.496L272.712 280.06C271.985 279.642 272.077 278.899 272.929 278.404L283.764 272.212C284.199 271.97 284.684 271.832 285.181 271.811C285.678 271.789 286.174 271.884 286.628 272.089L301.24 280.525C301.983 280.958 301.89 281.701 301.038 282.181L290.203 288.372C289.767 288.619 289.279 288.758 288.779 288.78C288.278 288.801 287.78 288.704 287.324 288.496Z" fill="#5793CE"/>
<path d="M376.157 339.809L361.53 331.373C360.802 330.955 360.895 330.212 361.747 329.732L372.582 323.54C373.017 323.299 373.503 323.163 374.001 323.144C374.498 323.126 374.993 323.224 375.445 323.432L390.073 331.868C390.801 332.286 390.708 333.029 389.856 333.509L379.021 339.7C378.588 339.948 378.101 340.087 377.603 340.106C377.104 340.125 376.608 340.023 376.157 339.809Z" fill="#5793CE"/>
<path d="M307.694 300.291L293.082 291.855C292.339 291.422 292.432 290.679 293.284 290.199L304.119 284.007C304.554 283.766 305.04 283.63 305.538 283.611C306.035 283.592 306.53 283.691 306.982 283.899L321.595 292.335C322.322 292.753 322.229 293.496 321.393 293.991L310.558 300.183C310.122 300.423 309.636 300.558 309.139 300.577C308.642 300.595 308.147 300.498 307.694 300.291Z" fill="#5793CE"/>
<path d="M307.029 283.868L370.493 320.553C370.662 320.615 370.808 320.728 370.912 320.876C371.015 321.024 371.07 321.2 371.07 321.381C371.07 321.562 371.015 321.738 370.912 321.886C370.808 322.034 370.662 322.147 370.493 322.209L359.487 328.555C359.045 328.777 358.558 328.893 358.063 328.893C357.569 328.893 357.081 328.777 356.639 328.555L293.098 291.87L307.029 283.868Z" fill="#5793CE"/>
<path d="M429.25 362.439L439.42 368.305C440.023 368.661 439.946 369.265 439.265 369.667L434.838 372.221C434.482 372.415 434.085 372.524 433.68 372.54C433.275 372.556 432.871 372.479 432.501 372.314L422.316 366.432C421.712 366.092 421.789 365.488 422.486 365.086L426.897 362.532C427.254 362.331 427.653 362.218 428.063 362.202C428.472 362.186 428.879 362.267 429.25 362.439Z" fill="#5793CE"/>
<path d="M415.025 354.219L425.195 360.101C425.798 360.442 425.721 361.046 425.024 361.448L420.613 364.002C420.259 364.203 419.862 364.316 419.455 364.332C419.049 364.348 418.644 364.267 418.276 364.095L408.09 358.213C407.487 357.872 407.564 357.269 408.261 356.866L412.672 354.312C413.032 354.12 413.43 354.011 413.838 353.995C414.246 353.979 414.651 354.056 415.025 354.219Z" fill="#5793CE"/>
<path d="M400.924 346.078L411.109 351.944C411.697 352.3 411.635 352.904 410.939 353.306L406.527 355.86C406.168 356.053 405.769 356.161 405.362 356.177C404.954 356.193 404.548 356.117 404.175 355.953L393.989 350.071C393.401 349.731 393.463 349.127 394.16 348.724L398.571 346.17C398.928 345.97 399.327 345.857 399.736 345.841C400.145 345.824 400.552 345.906 400.924 346.078Z" fill="#5793CE"/>
<path d="M422.811 349.715L432.996 355.597C433.585 355.953 433.523 356.557 432.826 356.959L428.415 359.498C428.058 359.698 427.658 359.811 427.249 359.828C426.84 359.844 426.433 359.763 426.062 359.591L415.892 353.724C415.289 353.368 415.366 352.764 416.047 352.362L420.458 349.823C420.816 349.625 421.214 349.512 421.622 349.493C422.03 349.474 422.437 349.55 422.811 349.715Z" fill="#5793CE"/>
<path d="M478.55 190.747L402.549 146.864L403.524 141.926L479.525 185.809L478.55 190.747Z" fill="#D4ECFF"/>
<path d="M451.323 199.09L398.277 168.457L399.252 163.52L452.314 194.152L451.323 199.09Z" fill="#D4ECFF"/>
<path d="M446.308 184.153L400.413 157.653L401.388 152.715L447.283 179.215L446.308 184.153Z" fill="white"/>
<path d="M476.414 201.551L453.459 188.286L454.45 183.348L477.389 196.598L476.414 201.551Z" fill="#D4ECFF"/>
<path d="M394.454 103.755L371.499 90.5056L372.474 85.5523L395.429 98.8177L394.454 103.755Z" fill="#D4ECFF"/>
<path d="M391.962 115.241L369.006 101.991L369.982 97.0378L392.937 110.288L391.962 115.241Z" fill="white"/>
<path d="M504.602 274.519L481.646 261.269L482.637 256.331L505.592 269.581L504.602 274.519Z" fill="#D4ECFF"/>
<path d="M386.977 138.196L364.022 124.946L364.997 120.008L387.952 133.258L386.977 138.196Z" fill="#D4ECFF"/>
<path d="M436.525 141.756C436.359 142.131 436.115 142.465 435.808 142.738C435.501 143.01 435.14 143.213 434.748 143.333C434.356 143.453 433.943 143.488 433.537 143.435C433.131 143.382 432.74 143.242 432.392 143.025C431.64 142.583 431.075 141.881 430.804 141.052C430.533 140.222 430.575 139.322 430.922 138.521C431.086 138.147 431.329 137.812 431.635 137.54C431.94 137.269 432.3 137.065 432.69 136.945C433.081 136.825 433.493 136.79 433.898 136.843C434.304 136.896 434.693 137.035 435.039 137.252C435.792 137.694 436.358 138.395 436.632 139.224C436.905 140.053 436.867 140.953 436.525 141.756Z" fill="#D4ECFF"/>
<path d="M446.447 147.468C446.283 147.842 446.04 148.177 445.735 148.449C445.43 148.721 445.069 148.924 444.679 149.044C444.288 149.164 443.876 149.199 443.471 149.146C443.066 149.093 442.676 148.954 442.33 148.737C441.566 148.305 440.987 147.608 440.702 146.779C440.417 145.949 440.445 145.043 440.782 144.233C440.948 143.858 441.193 143.524 441.499 143.252C441.806 142.98 442.167 142.777 442.559 142.656C442.951 142.536 443.364 142.501 443.77 142.554C444.177 142.607 444.567 142.747 444.915 142.964C445.678 143.396 446.256 144.093 446.539 144.924C446.822 145.754 446.789 146.66 446.447 147.468Z" fill="white"/>
<path d="M456.339 153.242C456.172 153.616 455.928 153.951 455.621 154.223C455.315 154.495 454.953 154.698 454.561 154.818C454.17 154.939 453.757 154.973 453.35 154.92C452.944 154.867 452.553 154.728 452.206 154.511C451.456 154.067 450.893 153.364 450.622 152.536C450.352 151.707 450.392 150.808 450.735 150.007C450.9 149.632 451.143 149.298 451.448 149.026C451.753 148.754 452.113 148.551 452.504 148.431C452.894 148.31 453.306 148.275 453.712 148.328C454.117 148.381 454.506 148.521 454.853 148.737C455.605 149.179 456.172 149.88 456.445 150.709C456.719 151.538 456.681 152.439 456.339 153.242Z" fill="#D4ECFF"/>
<path d="M466.229 158.876C466.062 159.25 465.818 159.585 465.512 159.857C465.206 160.129 464.845 160.333 464.454 160.454C464.062 160.576 463.65 160.612 463.243 160.562C462.837 160.511 462.446 160.374 462.096 160.161C461.342 159.716 460.777 159.011 460.506 158.179C460.235 157.347 460.278 156.444 460.626 155.641C460.792 155.268 461.036 154.936 461.342 154.665C461.647 154.395 462.007 154.193 462.397 154.073C462.786 153.952 463.198 153.917 463.602 153.968C464.007 154.02 464.396 154.157 464.743 154.372C465.496 154.813 466.062 155.514 466.336 156.343C466.609 157.173 466.571 158.073 466.229 158.876Z" fill="#D4ECFF"/>
<path opacity="0.5" d="M566.022 474.289C564.299 473.411 562.392 472.954 560.457 472.954C558.523 472.954 556.616 473.411 554.893 474.289L411.357 557.241C408.261 559.021 408.261 561.884 411.357 563.664C413.081 564.542 414.987 565 416.922 565C418.856 565 420.763 564.542 422.486 563.664L566.022 480.759C569.102 478.933 569.102 476.054 566.022 474.289Z" fill="#173D7A"/>
<path d="M590.556 429.369C590.488 429.258 590.388 429.17 590.269 429.117C590.15 429.065 590.018 429.05 589.89 429.075L581.207 430.964L584.612 436.784L590.494 430.112C590.579 430.01 590.631 429.883 590.642 429.751C590.653 429.618 590.623 429.485 590.556 429.369Z" fill="#D4ECFF"/>
<path d="M587.135 433.673C587.085 432.994 586.877 432.337 586.528 431.754C586.178 431.171 585.697 430.677 585.122 430.314C584.936 430.182 584.72 430.098 584.493 430.068C584.267 430.038 584.037 430.064 583.822 430.143C573.787 430.069 563.919 432.711 555.264 437.79L554.645 438.161L565.48 456.519L568.576 454.399C575.321 449.931 581.006 444.04 585.231 437.14L586.67 434.957C586.85 434.8 586.987 434.6 587.069 434.375C587.15 434.15 587.173 433.909 587.135 433.673Z" fill="#5793CE"/>
<path d="M567.616 451.597C567.453 448.985 566.677 446.449 565.351 444.193C564.025 441.937 562.187 440.024 559.985 438.61C555.806 436.258 552.462 438.223 552.493 443.022C552.654 445.632 553.429 448.167 554.755 450.421C556.081 452.675 557.921 454.584 560.124 455.993C564.288 458.361 567.647 456.396 567.616 451.597Z" fill="#D4ECFF"/>
<path d="M501.428 496.362L565.449 456.473L554.66 438.13L488.689 474.676L501.428 496.362Z" fill="#D4ECFF"/>
<path d="M503.998 490.588C503.805 487.504 502.89 484.508 501.325 481.843C499.76 479.178 497.589 476.919 494.989 475.249C490.051 472.463 486.089 474.785 486.135 480.45C486.324 483.535 487.238 486.532 488.803 489.198C490.369 491.863 492.541 494.122 495.144 495.789C500.082 498.576 504.044 496.254 503.998 490.588Z" fill="#D4ECFF"/>
<path d="M500.344 492.724C500.15 489.643 499.233 486.65 497.668 483.988C496.103 481.326 493.934 479.069 491.336 477.4C486.398 474.599 482.435 476.936 482.482 482.601C482.672 485.684 483.587 488.679 485.152 491.342C486.717 494.004 488.889 496.26 491.491 497.925C496.428 500.727 500.391 498.421 500.344 492.724Z" fill="#D4ECFF"/>
<path d="M485.048 476.795L400.368 526.576L413.115 548.26L497.795 498.479L485.048 476.795Z" fill="#D4ECFF"/>
<path d="M415.66 542.505C415.468 539.422 414.552 536.429 412.987 533.766C411.421 531.104 409.251 528.848 406.651 527.181C401.713 524.379 397.751 526.716 397.797 532.381C397.987 535.464 398.902 538.459 400.467 541.122C402.033 543.785 404.204 546.04 406.806 547.706C411.759 550.507 415.706 548.185 415.66 542.505Z" fill="#D4ECFF"/>
<path d="M412.456 540.694C412.195 538.791 411.514 536.97 410.462 535.364C409.41 533.757 408.013 532.405 406.373 531.406C403.277 529.611 400.8 530.865 400.986 534.208C401.254 536.11 401.94 537.929 402.995 539.535C404.049 541.141 405.446 542.493 407.085 543.495C410.211 545.306 412.657 544.037 412.456 540.694Z" fill="#396CAA"/>
<path d="M504.633 490.201C504.443 487.118 503.528 484.124 501.963 481.461C500.397 478.798 498.226 476.543 495.624 474.877C494.854 474.37 493.991 474.02 493.085 473.85C492.178 473.68 491.247 473.693 490.346 473.887C491.894 472.215 494.571 472.014 497.559 473.716C500.16 475.382 502.332 477.637 503.898 480.3C505.463 482.963 506.378 485.958 506.568 489.041C506.568 492.43 505.19 494.613 503.007 495.232C504.183 493.831 504.766 492.026 504.633 490.201Z" fill="white"/>
<path d="M504.632 490.202C504.442 487.119 503.527 484.124 501.962 481.461C500.397 478.798 498.225 476.543 495.623 474.877C493.162 473.469 490.98 473.33 489.339 474.305L484.541 477.122L486.816 481.007C487.142 483.768 488.037 486.431 489.443 488.829C490.85 491.226 492.738 493.306 494.989 494.938L497.28 498.839L502.078 496.006C503.672 495.046 504.632 493.034 504.632 490.202Z" fill="#5793CE"/>
<path d="M499.834 493.019C499.643 489.936 498.727 486.942 497.162 484.279C495.597 481.617 493.426 479.361 490.825 477.694C485.887 474.893 481.925 477.23 481.971 482.895C482.166 485.979 483.083 488.974 484.648 491.639C486.212 494.303 488.381 496.563 490.98 498.235C495.918 501.021 499.88 498.699 499.834 493.019Z" fill="#D4ECFF"/>
<path d="M408.478 543.217L402.967 533.852L385.027 544.409C383.786 545.138 382.885 546.33 382.523 547.723C382.16 549.116 382.365 550.596 383.092 551.838C383.824 553.077 385.018 553.974 386.41 554.334C387.803 554.694 389.282 554.487 390.522 553.758L408.478 543.217Z" fill="#5793CE"/>
<path d="M409.577 540.725C409.494 539.393 409.099 538.1 408.424 536.949C407.749 535.798 406.813 534.822 405.692 534.1C403.555 532.892 401.853 533.898 401.868 536.344C401.952 537.676 402.347 538.969 403.021 540.12C403.696 541.27 404.632 542.246 405.753 542.969C407.89 544.176 409.592 543.17 409.577 540.725Z" fill="#1B0071"/>
<path d="M429.529 507.708L426.835 506.16C425.908 505.739 424.884 505.575 423.872 505.683C422.859 505.792 421.894 506.171 421.077 506.779L411.79 512.197C410.879 512.81 410.125 513.628 409.587 514.585C409.05 515.542 408.744 516.611 408.694 517.708V522.351C408.66 523.209 408.332 524.028 407.765 524.673L408.121 526.809L405.815 525.493C405.627 525.379 405.476 525.213 405.38 525.016C405.284 524.818 405.247 524.597 405.273 524.379V519.735C405.382 517.439 406.028 515.201 407.16 513.201C408.292 511.201 409.878 509.494 411.79 508.219L421.077 502.801C424.173 500.99 427.068 500.681 429.266 501.919L431.959 503.467C432.887 503.885 433.91 504.048 434.922 503.939C435.934 503.83 436.899 503.453 437.717 502.848L474.866 480.992C475.04 480.862 475.245 480.782 475.461 480.76C475.676 480.738 475.893 480.775 476.089 480.868L478.396 482.183L476.43 482.942C476.158 483.773 475.612 484.488 474.882 484.97L437.732 506.826C434.637 508.637 431.727 508.946 429.529 507.708Z" fill="#5793CE"/>
<path d="M429.173 507.507C428.245 507.089 427.222 506.926 426.21 507.035C425.198 507.144 424.233 507.52 423.415 508.126L414.127 513.544C413.21 514.154 412.452 514.973 411.913 515.933C411.375 516.894 411.073 517.969 411.032 519.07V523.713C411.001 524.31 410.831 524.89 410.535 525.409C410.239 525.928 409.826 526.37 409.329 526.701C408.385 527.258 407.611 526.825 407.595 525.726V521.082C407.704 518.784 408.352 516.545 409.487 514.544C410.622 512.544 412.211 510.838 414.127 509.566L423.415 504.148C426.51 502.337 429.405 502.027 431.603 503.266L434.281 504.814C435.208 505.235 436.232 505.399 437.244 505.29C438.257 505.181 439.222 504.803 440.039 504.194L477.188 482.338C478.132 481.781 478.906 482.23 478.906 483.329C478.882 483.925 478.717 484.507 478.423 485.026C478.13 485.546 477.717 485.988 477.219 486.316L440.07 508.172C436.974 509.983 434.08 510.293 431.882 509.055L429.173 507.507Z" fill="#5793CE"/>
<path d="M410.938 519.828V524.472C410.938 524.472 410.938 524.472 410.938 524.565C411.029 524.29 411.076 524.003 411.078 523.713V519.07C411.07 518.936 411.07 518.801 411.078 518.667C410.994 519.049 410.948 519.437 410.938 519.828Z" fill="white"/>
<path opacity="0.5" d="M70.1867 460.312C70.6974 461.993 71.4537 463.589 72.4311 465.048C60.6362 474.97 62.3698 488.638 77.6475 497.461C94.8755 507.414 122.83 507.414 140.074 497.461C152.782 490.124 156.11 479.428 150.073 470.311C151.7 468.953 153.146 467.392 154.376 465.667C165.366 476.332 164.144 490.031 150.723 500.031L165.041 508.405C170.428 506.485 177.084 506.625 181.186 508.993L233.179 539.006C238.102 541.839 237.482 546.746 231.802 550.089C226.121 553.433 217.53 553.711 212.608 550.879L160.614 520.865C156.884 518.714 156.358 515.339 158.788 512.398L144.361 503.947C123.542 514.89 91.3463 514.581 71.2237 502.972C50.8845 491.223 50.544 472.308 70.1867 460.312Z" fill="#173D7A"/>
<path opacity="0.5" d="M75.8669 433.224C94.6583 422.388 125.121 422.388 143.974 433.224C151.713 437.728 156.357 443.378 157.642 449.229C156.465 454.399 152.782 459.414 146.574 463.609C144.925 462.263 143.17 461.052 141.327 459.987C122.536 449.151 92.0733 449.151 73.22 459.987C72.2913 460.528 71.4245 461.086 70.5886 461.643C66.4735 458.578 63.5122 454.216 62.1836 449.26C63.5922 443.378 68.1275 437.728 75.8669 433.224Z" fill="#D4ECFF"/>
<path d="M158.803 457.897L151.451 448.331L129.161 437.96L109.921 436.258L87.4299 439.013L71.8272 447.077L61.9362 453.439L60.1406 443.084L63.4841 431.15C63.4841 431.15 72.0129 425.515 72.5237 424.958C73.0345 424.401 92.4605 417.482 92.4605 417.482L111.871 416.166L127.474 418.132L143.34 422.853L153.819 430.314L161.682 440.267L162.564 452.727L158.803 457.897Z" fill="#1B0071"/>
<path d="M54.7075 445.607V465.76L60.0942 457.03L54.7075 445.607Z" fill="#8DA1F8"/>
<path d="M143.974 446.644C125.168 435.809 94.7052 435.809 75.8673 446.644C70.7641 449.335 66.5452 453.441 63.7164 458.47C62.0602 456.922 59.9241 455.823 59.0728 453.826C62.269 449.691 66.2844 446.261 70.8677 443.749C92.4298 431.289 127.412 431.289 148.99 443.749C153.206 446.084 156.958 449.175 160.057 452.866C159.146 454.993 157.802 456.907 156.11 458.485C153.295 453.448 149.079 449.335 143.974 446.644Z" fill="#2F00C6"/>
<path opacity="0.5" d="M76.1664 431.484C94.9578 420.648 125.42 420.648 144.274 431.484C152.013 435.988 156.657 441.638 157.941 447.489C156.657 453.34 152.013 459.005 144.274 463.509C125.482 474.345 95.0197 474.345 76.1664 463.509C68.427 459.005 63.7833 453.355 62.4985 447.504C63.8916 441.638 68.427 435.988 76.1664 431.484Z" fill="#D4ECFF"/>
<path d="M59.1036 453.826C59.5054 454.665 60.0805 455.409 60.7908 456.009V455.807L65.775 458.779L71.8892 464.46L80.3716 468.206L92.0736 472.416L102.491 474.862L116.824 475.466L126.112 474.506L144.47 469.692L156.435 459.12C156.342 458.919 156.265 458.702 156.156 458.485C157.848 456.907 159.192 454.993 160.103 452.866C160.428 453.269 160.722 453.687 161.017 454.089L165.211 445.359V466.271C165.211 474.444 159.825 482.617 149.036 488.855C127.458 501.238 92.4761 501.238 70.8985 488.855C54.4909 479.382 50.5747 465.451 59.1036 453.826Z" fill="#8DA1F8"/>
<path d="M152.116 462.943L156.419 459.12C156.326 458.919 156.249 458.702 156.141 458.485C157.832 456.907 159.177 454.993 160.088 452.866C160.413 453.269 160.707 453.687 161.001 454.089L165.196 445.359V466.271C165.196 473.624 160.831 480.961 152.116 486.905V462.943Z" fill="#8DA1F8"/>
<path d="M70.8831 468.159C92.4606 480.62 127.443 480.62 149.021 468.159C170.598 455.699 170.598 435.499 149.021 423.054C127.443 410.609 92.4606 410.593 70.8985 423.054C49.3365 435.514 49.321 455.699 70.8831 468.159ZM75.8673 425.964C94.6586 415.129 125.121 415.129 143.974 425.964C162.828 436.799 162.766 454.399 143.974 465.249C125.183 476.1 94.7206 476.085 75.8673 465.249C57.014 454.414 57.1378 436.815 75.8673 425.964Z" fill="#8DA1F8"/>
<path d="M185.148 491.006L154.531 473.19L150.46 479.784L181.217 497.709L185.148 491.006Z" fill="#D4ECFF"/>
<path d="M180.442 495.944C180.442 497.693 181.681 498.405 183.182 497.492C183.983 496.972 184.65 496.271 185.128 495.446C185.607 494.62 185.884 493.693 185.937 492.74C185.937 490.991 184.699 490.279 183.182 491.192C182.385 491.714 181.722 492.416 181.246 493.242C180.77 494.067 180.495 494.993 180.442 495.944Z" fill="#983BE9"/>
<path d="M180.442 495.944C180.442 497.693 181.681 498.405 183.182 497.492C183.983 496.972 184.65 496.271 185.128 495.446C185.607 494.62 185.884 493.693 185.937 492.74C185.937 490.991 184.699 490.279 183.182 491.192C182.385 491.714 181.722 492.416 181.246 493.242C180.77 494.067 180.495 494.993 180.442 495.944Z" fill="#983BE9"/>
<path d="M149.81 478.128C149.81 479.877 151.048 480.574 152.565 479.676C153.363 479.155 154.026 478.453 154.502 477.627C154.978 476.802 155.253 475.875 155.305 474.924C155.305 473.175 154.082 472.463 152.565 473.376C151.765 473.896 151.099 474.598 150.62 475.423C150.142 476.249 149.864 477.175 149.81 478.128Z" fill="#D4ECFF"/>
<path d="M165.382 497.244C165.599 493.14 166.781 489.145 168.833 485.583C170.886 482.022 173.75 478.996 177.192 476.75C180.536 474.831 183.539 474.692 185.69 476.023L250.423 513.637L233.504 542.443L169.453 505.139C169.016 504.956 168.604 504.717 168.23 504.427C167.24 503.525 166.468 502.41 165.975 501.165C165.481 499.92 165.278 498.579 165.382 497.244Z" fill="#5793CE"/>
<path d="M245.748 521.639L173.291 479.846C174.452 478.649 175.763 477.609 177.192 476.75C180.535 474.831 183.538 474.692 185.69 476.023L250.422 513.637L245.748 521.639Z" fill="#D4ECFF"/>
<path d="M250.322 532.879C254.934 524.891 254.933 516.256 250.321 513.593C245.709 510.93 238.231 515.247 233.619 523.236C229.007 531.224 229.007 539.859 233.619 542.522C238.232 545.184 245.71 540.867 250.322 532.879Z" fill="#D4ECFF"/>
<path d="M239.742 531.375C239.742 532.906 240.196 534.402 241.047 535.675C241.897 536.948 243.106 537.94 244.52 538.526C245.934 539.111 247.49 539.265 248.992 538.966C250.493 538.667 251.872 537.93 252.954 536.848C254.037 535.766 254.774 534.386 255.072 532.885C255.371 531.384 255.218 529.828 254.632 528.414C254.046 526.999 253.054 525.791 251.781 524.94C250.509 524.09 249.012 523.636 247.482 523.636C245.429 523.636 243.46 524.451 242.009 525.903C240.558 527.354 239.742 529.323 239.742 531.375Z" fill="#5793CE"/>
<path d="M251.119 530.818C252.376 530.818 253.395 529.799 253.395 528.543C253.395 527.286 252.376 526.267 251.119 526.267C249.862 526.267 248.844 527.286 248.844 528.543C248.844 529.799 249.862 530.818 251.119 530.818Z" fill="white"/>
<path d="M241.104 513.9C244.587 511.887 247.714 511.841 249.881 513.358C247.776 512.383 245.021 512.646 241.971 514.395C238.532 516.637 235.67 519.658 233.618 523.213C231.566 526.769 230.381 530.759 230.161 534.858C230.161 538.356 231.306 540.879 233.257 542.211C230.857 541.096 229.356 538.372 229.356 534.347C229.569 530.255 230.744 526.272 232.786 522.719C234.827 519.166 237.677 516.145 241.104 513.9Z" fill="white"/>
<path d="M75.8676 425.964C94.659 415.129 125.121 415.129 143.975 425.964C153.757 431.614 158.432 439.09 158.03 446.489C157.658 439.678 152.968 432.93 143.975 427.729C125.168 416.894 94.7054 416.894 75.8676 427.729C66.8589 432.93 62.1842 439.678 61.8128 446.489C61.4722 439.09 66.1468 431.614 75.8676 425.964Z" fill="white"/>
<path d="M70.8831 468.16C92.4606 480.62 127.443 480.62 149.021 468.16C159.422 462.154 164.793 454.352 165.165 446.489C165.567 454.941 160.196 463.516 149.021 469.924C127.443 482.385 92.4606 482.385 70.8831 469.924C59.7073 463.47 54.3361 454.941 54.7541 446.489C55.1256 454.352 60.4967 462.154 70.8831 468.16Z" fill="white"/>
<path d="M254.726 426.196C254.726 426.196 248.921 423.271 245.361 427.62C241.801 431.97 236.693 442.279 236.538 449.291C236.383 456.303 242.033 455.776 245.408 454.12C248.782 452.464 258.596 438.223 259.184 435.437C259.772 432.651 258.487 428.859 257.543 428.116C256.599 427.373 254.726 426.196 254.726 426.196Z" fill="#A3B4FA"/>
<path d="M255.995 424.803L256.258 430.809C256.287 431.432 256.143 432.05 255.842 432.596C255.542 433.142 255.097 433.595 254.556 433.905C253.191 434.651 251.609 434.898 250.082 434.601C245.702 433.905 245.315 432.651 245.005 426.645C244.696 420.639 255.995 424.803 255.995 424.803Z" fill="#D4ECFF"/>
<path d="M233.473 414.634C233.473 414.634 227.669 411.708 224.186 416.073C220.703 420.438 215.533 430.716 215.363 437.666C215.193 444.616 220.874 444.152 224.233 442.496C227.591 440.839 237.421 426.599 238.024 423.812C238.628 421.026 237.312 417.234 236.368 416.491C235.424 415.748 233.473 414.634 233.473 414.634Z" fill="#A3B4FA"/>
<path d="M234.743 413.287L235.006 419.293C235.035 419.914 234.894 420.531 234.596 421.077C234.299 421.623 233.857 422.077 233.318 422.388C231.948 423.135 230.361 423.381 228.83 423.085C224.465 422.388 224.078 421.135 223.768 415.129C223.458 409.123 234.743 413.287 234.743 413.287Z" fill="#D4ECFF"/>
<path d="M286.535 302.845C284.817 274.89 256.258 306.947 256.258 306.947L236.724 326.11L219.124 345.443C217.427 347.308 216.158 349.521 215.404 351.927C214.65 354.333 214.43 356.874 214.759 359.374L221.864 413.55C222.038 414.844 222.678 416.03 223.664 416.885C224.65 417.74 225.915 418.205 227.22 418.194C228.101 418.175 228.98 418.097 229.851 417.962C231.548 417.774 233.107 416.938 234.203 415.629C235.299 414.32 235.847 412.638 235.733 410.934L234.433 360.241L271.381 337.951C271.381 337.951 288.253 330.784 286.535 302.845Z" fill="#6782F7"/>
<path d="M307.772 313.494C306.054 285.54 277.511 317.596 277.511 317.596L257.961 336.759L240.361 356.092C238.664 357.957 237.393 360.169 236.64 362.576C235.886 364.982 235.666 367.524 235.996 370.023L243.117 424.199C243.29 425.491 243.928 426.674 244.911 427.529C245.894 428.384 247.154 428.851 248.457 428.843C249.338 428.825 250.217 428.747 251.088 428.611C252.787 428.427 254.348 427.592 255.445 426.282C256.542 424.972 257.088 423.288 256.97 421.584L255.717 372.345L292.572 348.616C292.572 348.616 309.49 341.434 307.772 313.494Z" fill="#6782F7"/>
<path d="M290.884 223.763C312.555 232.741 312.09 245.542 312.09 245.542C312.09 245.542 307.865 292.443 309.304 323.773C309.908 336.868 239.727 337.874 250.19 302.938C262.573 261.733 257.93 228.392 263.688 223.361C269.446 218.33 285.281 221.442 290.884 223.763Z" fill="#A3B4FA"/>
<path d="M297.85 235.11C296.72 239.506 290.962 241.827 284.987 240.295C279.012 238.763 275.096 233.933 276.226 229.553C277.356 225.172 283.114 222.835 289.089 224.367C295.064 225.9 298.98 230.714 297.85 235.11Z" fill="#FFC2B0"/>
<path d="M289.182 240.388L285.204 244.706C284.945 244.981 284.75 245.309 284.632 245.667C284.514 246.026 284.477 246.406 284.523 246.78L287.263 270.463C287.34 271.125 287.156 271.791 286.752 272.321L278.176 283.527C278.094 283.643 277.98 283.734 277.848 283.788C277.716 283.842 277.571 283.858 277.43 283.834C277.29 283.81 277.159 283.746 277.052 283.651C276.946 283.556 276.869 283.432 276.83 283.295L272.186 268.621C271.993 268.07 271.993 267.47 272.186 266.918L280.39 245.418C280.576 244.924 280.614 244.386 280.498 243.87L279.306 238.174L289.182 240.388Z" fill="white"/>
<path d="M288.687 241.796C287.35 241.792 286.018 241.621 284.724 241.285C281.768 240.579 279.113 238.953 277.139 236.642C276.257 235.658 275.622 234.477 275.289 233.198C274.955 231.919 274.931 230.579 275.22 229.289C276.505 224.352 282.82 221.689 289.352 223.376C295.884 225.064 300.188 230.435 298.856 235.372C298.487 236.642 297.82 237.805 296.91 238.763C296 239.722 294.873 240.449 293.624 240.883C292.051 241.498 290.376 241.807 288.687 241.796ZM285.39 224.924C281.365 224.924 278.006 226.797 277.232 229.8C277.032 230.78 277.068 231.794 277.337 232.758C277.606 233.721 278.101 234.607 278.78 235.342C280.51 237.271 282.772 238.645 285.282 239.29C287.792 239.934 290.436 239.821 292.882 238.964C293.824 238.645 294.678 238.107 295.373 237.394C296.067 236.681 296.582 235.813 296.875 234.862C297.866 231.023 294.275 226.766 288.857 225.373C287.724 225.081 286.56 224.93 285.39 224.924Z" fill="white"/>
<path d="M282.201 222.788C282.324 225.369 282.262 227.956 282.015 230.528C281.906 232.679 289.445 234.691 291.411 232.741C293.376 230.791 292.571 228.763 293.036 221.426C293.5 214.089 282.201 222.788 282.201 222.788Z" fill="#FFC2B0"/>
<path d="M293.036 221.426C293.036 221.426 291.178 228.221 282.015 230.837L282.154 224.646L293.036 221.426Z" fill="#EA9C92"/>
<path d="M298.851 212.467C301.14 203.558 295.774 194.48 286.865 192.191C277.956 189.902 268.878 195.269 266.589 204.178C264.3 213.087 269.666 222.165 278.575 224.454C287.484 226.743 296.562 221.376 298.851 212.467Z" fill="#FFC2B0"/>
<path d="M286.55 208.966C286.55 208.966 277.371 212.882 271.071 212.928C264.771 212.975 266.118 207.665 266.118 207.665L284.971 204.941L286.55 208.966Z" fill="#EA9C92"/>
<path d="M269.121 209.941C269.121 209.941 277.124 206.551 284.12 207.975C285.782 208.292 287.282 209.179 288.361 210.483C288.677 210.924 289.128 211.25 289.646 211.411C290.884 211.69 292.928 206.535 295.342 206.427C297.757 206.319 299.367 207.975 297.386 211.195C295.404 214.414 296.07 217.912 296.983 218.423C297.896 218.934 309.18 211.055 300.652 194.152C292.123 177.249 268.842 186.831 265.468 190.252C265.468 190.252 261.923 193.347 259.044 190.592C259.044 190.592 255.809 214.832 269.121 209.941Z" fill="#263238"/>
<path d="M299.955 279.812V292.552C299.954 293.269 299.804 293.978 299.513 294.633C299.223 295.289 298.799 295.877 298.268 296.359L272.232 320.104L275.189 324.624L311.146 301.049C311.937 300.468 312.598 299.729 313.089 298.879C313.579 298.029 313.887 297.087 313.994 296.112L316.44 272.599L299.955 279.812Z" fill="#FFC2B0"/>
<path d="M310.264 239.196C310.264 239.196 318.158 251.084 321.099 282.351C321.099 282.351 307.602 286.716 299.94 284.239C292.277 281.763 310.264 239.196 310.264 239.196Z" fill="#A3B4FA"/>
<path d="M298.516 254.226C298.516 254.226 295.42 270.773 295.25 278.559C295.223 279.598 295.525 280.619 296.111 281.477C296.697 282.336 297.538 282.988 298.516 283.342V254.226Z" fill="#E7E7E7"/>
<path d="M291.751 336.527L286.009 335.769L248.859 314.315C248.124 313.983 247.322 313.826 246.516 313.858C245.71 313.891 244.922 314.111 244.216 314.501L217.902 329.701L214.419 329.237V332.704C214.419 332.964 214.495 333.219 214.638 333.436C214.781 333.653 214.985 333.824 215.224 333.927L257.326 358.229C258.061 358.565 258.864 358.723 259.67 358.691C260.477 358.658 261.265 358.436 261.97 358.043L290.637 341.496C290.948 341.365 291.218 341.152 291.417 340.879C291.616 340.606 291.737 340.284 291.767 339.948L291.751 336.527Z" fill="#5793CE"/>
<path d="M263.843 322.968L261.196 321.42H232.204L217.886 329.701L214.403 329.237V332.704C214.403 332.964 214.48 333.218 214.623 333.436C214.766 333.653 214.969 333.824 215.208 333.927L257.311 358.228C258.044 358.609 258.873 358.765 259.695 358.677L263.843 322.968Z" fill="#396CAA"/>
<path d="M215.951 329.453L214.403 329.236V332.704C214.403 332.964 214.48 333.218 214.623 333.436C214.766 333.653 214.969 333.824 215.208 333.927L215.951 334.36V329.453Z" fill="#5793CE"/>
<path d="M257.729 358.43C259.027 358.857 260.44 358.768 261.676 358.182V352.285H257.729V358.43Z" fill="#5793CE"/>
<path d="M257.311 354.777L215.177 330.459C213.985 329.778 214.124 328.571 215.502 327.782L244.169 311.235C244.874 310.841 245.662 310.619 246.469 310.587C247.275 310.555 248.078 310.713 248.813 311.049L290.915 335.351C292.107 336.032 291.968 337.239 290.59 338.029L261.923 354.576C261.223 354.965 260.441 355.187 259.641 355.222C258.84 355.256 258.042 355.104 257.311 354.777Z" fill="white"/>
<path d="M256.599 351.093L221.585 330.877C220.595 330.305 220.719 329.329 221.864 328.648L237.219 320.011C237.805 319.681 238.461 319.494 239.134 319.464C239.806 319.435 240.476 319.564 241.089 319.841L276.102 340.056C277.093 340.629 276.969 341.604 275.823 342.285L260.453 350.922C259.869 351.252 259.216 351.44 258.546 351.469C257.876 351.499 257.209 351.37 256.599 351.093Z" fill="#D4ECFF"/>
<path d="M245.826 310.43L245.392 313.34C245.018 315.814 245.086 318.335 245.594 320.785L246.104 323.355C246.25 324.057 246.601 324.701 247.114 325.203C247.627 325.704 248.278 326.042 248.983 326.172C249.251 326.223 249.526 326.218 249.791 326.157C250.057 326.097 250.307 325.983 250.526 325.822C250.745 325.66 250.929 325.456 251.066 325.22C251.203 324.985 251.289 324.724 251.321 324.454L252.017 318.262C252.017 318.262 253.565 320.352 254.37 320.352C255.175 320.352 253.503 314.16 251.77 310.615C250.036 307.071 245.826 310.43 245.826 310.43Z" fill="#FFC2B0"/>
<path d="M260.066 264.272L255.562 273.203C254.493 275.32 253.861 277.631 253.704 279.998L251.739 310.584L245.795 310.43L243.101 276.097C243.021 275.037 243.073 273.971 243.256 272.924L246.352 255.495L260.066 264.272Z" fill="#FFC2B0"/>
<path d="M255.871 357.114L252.342 352.47L215.193 330.97C214.537 330.5 214.001 329.883 213.627 329.168C213.253 328.453 213.053 327.66 213.041 326.853V296.452L210.905 293.666L212.918 292.505C213.144 292.381 213.401 292.324 213.659 292.341C213.916 292.357 214.164 292.446 214.373 292.598L256.444 316.946C257.1 317.42 257.637 318.04 258.01 318.758C258.384 319.475 258.584 320.27 258.596 321.079V354.173C258.637 354.511 258.585 354.854 258.446 355.165C258.307 355.476 258.086 355.743 257.806 355.938L255.871 357.114Z" fill="#5793CE"/>
<path d="M230.207 339.685L227.561 338.137L213.088 312.984V296.483L210.952 293.697L212.964 292.536C213.19 292.412 213.447 292.355 213.705 292.371C213.962 292.388 214.21 292.477 214.419 292.629L256.491 316.977C257.173 317.436 257.711 318.08 258.038 318.835L230.207 339.685Z" fill="#5793CE"/>
<path d="M211.911 294.935L210.967 293.697L212.979 292.536C213.205 292.412 213.462 292.355 213.72 292.371C213.978 292.388 214.225 292.477 214.434 292.629L215.177 293.047L211.911 294.935Z" fill="#5793CE"/>
<path d="M256.97 317.318C257.983 318.234 258.608 319.501 258.719 320.862L254.618 323.231L252.636 319.81L256.97 317.318Z" fill="#5793CE"/>
<path d="M254.509 318.138L212.422 293.79C211.246 293.093 210.271 293.79 210.271 295.338V328.432C210.282 329.241 210.482 330.036 210.856 330.753C211.23 331.471 211.766 332.091 212.422 332.564L254.494 356.913C255.686 357.609 256.645 356.913 256.645 355.365V322.271C256.632 321.464 256.432 320.671 256.062 319.954C255.691 319.237 255.16 318.616 254.509 318.138Z" fill="#5793CE"/>
<path d="M275.189 324.562L274.508 325.97C273.733 327.576 272.514 328.925 270.994 329.856L266.815 332.441C266.181 332.843 265.449 333.064 264.699 333.08C263.949 333.096 263.209 332.907 262.558 332.533L262.403 332.456C262.098 332.245 261.843 331.97 261.656 331.649C261.47 331.329 261.356 330.971 261.324 330.601C261.291 330.232 261.341 329.86 261.468 329.511C261.596 329.163 261.799 328.847 262.063 328.586L266.428 324.097C266.428 324.097 263.967 325.97 263.332 325.227C262.697 324.484 265.7 321.961 267.976 321.869C269.57 321.668 271.079 321.036 272.341 320.042L275.189 324.562Z" fill="#FFC2B0"/>
<path d="M264.122 223.283C264.122 223.283 248.101 240.713 241.646 256.687C246.038 263.431 252.761 268.319 260.531 270.417C273.997 274.286 264.122 223.283 264.122 223.283Z" fill="#A3B4FA"/>
<path d="M257.512 269.333L260.097 244.257L253.905 267.739C255.078 268.334 256.282 268.866 257.512 269.333Z" fill="#E7E7E7"/>
<path d="M276.102 219.801L271.799 218.624C273.01 220.482 274.784 221.903 276.86 222.68C279.848 223.5 280.328 220.962 280.328 220.962L276.102 219.801Z" fill="white"/>
<path d="M296.689 215.281C298.014 215.281 299.089 214.207 299.089 212.882C299.089 211.557 298.014 210.482 296.689 210.482C295.364 210.482 294.29 211.557 294.29 212.882C294.29 214.207 295.364 215.281 296.689 215.281Z" fill="white"/>
<path opacity="0.5" d="M64.7379 374.048C51.0391 381.958 28.8269 381.958 15.1281 374.048C1.4293 366.138 1.4293 353.322 15.1281 345.412C28.8269 337.502 51.0391 337.502 64.7379 345.412C78.4368 353.322 78.4368 366.138 64.7379 374.048Z" fill="#173D7A"/>
<path d="M79.8297 342.409V331.249H77.7245C75.3678 327.463 72.0585 324.362 68.1276 322.255C52.5404 313.247 27.2788 313.247 11.6916 322.255C7.77599 324.366 4.48281 327.467 2.14112 331.249H0.0205078V342.393C0.0205078 348.306 3.89023 354.235 11.7071 358.755C27.2943 367.748 52.5559 367.748 68.1431 358.755C75.9445 354.204 79.8297 348.275 79.8297 342.409Z" fill="#8DA1F8"/>
<path d="M39.9251 354.25C61.9638 354.25 79.8297 343.932 79.8297 331.202C79.8297 318.473 61.9638 308.154 39.9251 308.154C17.8864 308.154 0.0205078 318.473 0.0205078 331.202C0.0205078 343.932 17.8864 354.25 39.9251 354.25Z" fill="#8DA1F8"/>
<path d="M68.1278 347.502C52.5406 356.495 27.2791 356.495 11.6918 347.502C4.24647 343.183 0.392223 337.58 0.0207296 331.93C-0.319806 338.121 3.53444 344.313 11.6454 348.957C27.2326 357.965 52.4942 357.965 68.0814 348.957C76.2078 344.313 80.0466 338.121 79.706 331.93C79.4584 337.58 75.6196 343.183 68.1278 347.502Z" fill="white"/>
<path d="M20.7005 338.833C20.3965 338.701 20.1361 338.486 19.9497 338.212C19.7634 337.938 19.6587 337.617 19.6479 337.285V322.271C19.6479 321.125 21.1958 320.197 23.2545 320.197C25.3132 320.197 26.8302 321.141 26.8302 322.286V334.669L62.9579 330.243C64.8927 330.01 66.8121 330.722 67.2146 331.79C67.617 332.858 66.3942 334.019 64.4438 334.252L23.982 339.205C22.9314 339.363 21.8572 339.218 20.8863 338.787L20.7005 338.833Z" fill="white"/>
<path d="M300.311 108.012L240.795 73.6336C240.297 73.317 239.728 73.1286 239.139 73.0854C238.55 73.0422 237.96 73.1454 237.421 73.386L230.316 76.7139L234.541 78.2618L225.951 121.603C225.254 125.132 226.833 129.218 229.48 130.751L286.38 163.55L285.374 168.643L292.541 165.284C293.234 164.887 293.826 164.336 294.272 163.672C294.718 163.009 295.004 162.253 295.11 161.461L303.887 117.191C304.599 113.647 303.02 109.545 300.311 108.012Z" fill="#8DA1F8"/>
<path d="M281.829 168.457L222.266 134.079C219.62 132.531 218.041 128.46 218.737 124.931L227.56 80.6456C228.257 77.1164 230.966 75.4912 233.613 77.0236L293.144 111.449C295.791 112.997 297.37 117.083 296.673 120.612L287.928 164.835C287.185 168.364 284.476 169.99 281.829 168.457Z" fill="#8DA1F8"/>
<path d="M294.491 110.876L234.928 76.4972C234.347 76.1144 233.666 75.9104 232.97 75.9104C232.274 75.9104 231.594 76.1144 231.012 76.4972C231.895 76.3546 232.8 76.5302 233.566 76.9925L293.144 111.449C295.791 112.996 297.37 117.083 296.674 120.612L287.928 164.835C287.823 165.546 287.579 166.229 287.21 166.845C286.841 167.461 286.354 167.999 285.777 168.426C286.716 168.191 287.559 167.667 288.186 166.929C288.813 166.19 289.194 165.274 289.275 164.309L298.051 120.024C298.763 116.495 297.215 112.408 294.491 110.876Z" fill="white"/>
<path d="M247.683 118.816C247.653 119.376 247.473 119.916 247.16 120.381C246.848 120.845 246.415 121.217 245.909 121.455C245.402 121.693 244.84 121.789 244.283 121.734C243.726 121.678 243.194 121.472 242.745 121.138C241.612 120.403 240.717 119.356 240.167 118.122C239.618 116.888 239.438 115.522 239.649 114.188C239.679 113.629 239.859 113.089 240.172 112.624C240.484 112.159 240.917 111.788 241.423 111.55C241.93 111.312 242.492 111.215 243.049 111.271C243.606 111.327 244.137 111.533 244.587 111.866C245.723 112.599 246.62 113.646 247.17 114.88C247.72 116.115 247.898 117.482 247.683 118.816Z" fill="white"/>
<path d="M257.841 128.487C259.803 127.662 260.459 124.77 259.306 122.028C258.154 119.285 255.628 117.731 253.666 118.555C251.704 119.38 251.047 122.272 252.2 125.015C253.353 127.757 255.878 129.312 257.841 128.487Z" fill="white"/>
<path d="M271.969 132.871C271.94 133.43 271.759 133.971 271.447 134.436C271.134 134.9 270.702 135.271 270.195 135.51C269.688 135.748 269.127 135.844 268.57 135.789C268.012 135.733 267.481 135.527 267.031 135.193C265.897 134.46 265 133.412 264.451 132.178C263.901 130.944 263.722 129.577 263.936 128.243C263.965 127.684 264.146 127.143 264.458 126.679C264.771 126.214 265.203 125.843 265.71 125.605C266.217 125.366 266.778 125.27 267.335 125.326C267.892 125.382 268.424 125.587 268.873 125.921C270.006 126.656 270.902 127.704 271.451 128.937C272.001 130.171 272.181 131.537 271.969 132.871Z" fill="white"/>
<path d="M532.68 34.9364L473.102 0.557809C472.604 0.241152 472.035 0.0528081 471.446 0.00959255C470.857 -0.033623 470.267 0.0696346 469.728 0.310147L462.638 3.63811L466.864 5.186L458.273 48.5269C457.577 52.0406 459.156 56.1425 461.803 57.6749L518.734 90.5366L517.728 95.6291L524.895 92.2702C525.586 91.8722 526.176 91.3202 526.619 90.6571C527.061 89.994 527.346 89.2377 527.449 88.4469L536.225 44.1773C536.906 40.5707 535.312 36.4688 532.68 34.9364Z" fill="#8DA1F8"/>
<path d="M514.136 95.3816L454.574 61.0029C451.927 59.4551 450.348 55.3841 451.044 51.8549L459.821 7.56983C460.517 4.04064 463.226 2.41536 465.873 3.94777L525.436 38.3264C528.083 39.8743 529.662 43.9607 528.965 47.4899L520.189 91.7595C519.492 95.2887 516.783 96.914 514.136 95.3816Z" fill="#8DA1F8"/>
<path d="M526.798 37.8L467.235 3.4214C466.654 3.03859 465.973 2.83456 465.277 2.83456C464.581 2.83456 463.9 3.03859 463.319 3.4214C464.202 3.27184 465.11 3.44784 465.873 3.91673L525.436 38.2953C528.083 39.8432 529.661 43.9296 528.965 47.4588L520.188 91.7285C520.086 92.4398 519.843 93.1237 519.473 93.7402C519.104 94.3568 518.616 94.8936 518.037 95.3196C518.979 95.0867 519.825 94.5643 520.456 93.8258C521.086 93.0872 521.469 92.1697 521.55 91.2022L530.327 46.9171C531.024 43.4188 529.398 39.3169 526.798 37.8Z" fill="white"/>
<path d="M479.866 45.7406C479.837 46.2997 479.656 46.8404 479.344 47.305C479.031 47.7696 478.599 48.1408 478.092 48.379C477.585 48.6173 477.024 48.7136 476.467 48.6579C475.909 48.6021 475.378 48.3964 474.929 48.0625C473.796 47.3276 472.9 46.2798 472.351 45.0463C471.801 43.8127 471.621 42.4462 471.833 41.1124C471.862 40.5533 472.043 40.0127 472.355 39.5481C472.668 39.0835 473.1 38.7123 473.607 38.4741C474.114 38.2358 474.675 38.1394 475.232 38.1952C475.79 38.2509 476.321 38.4567 476.771 38.7906C477.905 39.5241 478.801 40.5716 479.351 41.8056C479.901 43.0396 480.08 44.4067 479.866 45.7406Z" fill="white"/>
<path d="M492.094 52.7682C492.065 53.3273 491.884 53.8679 491.572 54.3325C491.259 54.7971 490.827 55.1683 490.32 55.4065C489.814 55.6448 489.252 55.7412 488.695 55.6854C488.138 55.6297 487.606 55.4239 487.157 55.09C486.025 54.3537 485.131 53.3058 484.581 52.0726C484.032 50.8394 483.851 49.4736 484.061 48.14C484.09 47.5809 484.271 47.0402 484.583 46.5756C484.896 46.111 485.328 45.7398 485.835 45.5016C486.342 45.2633 486.903 45.167 487.461 45.2227C488.018 45.2784 488.549 45.4842 488.999 45.8181C490.134 46.5502 491.032 47.5975 491.582 48.8319C492.132 50.0663 492.31 51.4342 492.094 52.7682Z" fill="white"/>
<path d="M504.261 59.7955C504.231 60.3546 504.051 60.8952 503.738 61.3598C503.426 61.8244 502.993 62.1956 502.487 62.4338C501.98 62.6721 501.418 62.7685 500.861 62.7127C500.304 62.657 499.772 62.4512 499.323 62.1173C498.19 61.3824 497.295 60.3347 496.745 59.1011C496.196 57.8675 496.016 56.501 496.227 55.1673C496.257 54.6082 496.437 54.0675 496.75 53.6029C497.062 53.1383 497.495 52.7671 498.001 52.5289C498.508 52.2906 499.07 52.1943 499.627 52.25C500.184 52.3057 500.716 52.5115 501.165 52.8454C502.299 53.5789 503.196 54.6265 503.746 55.8604C504.295 57.0944 504.474 58.4616 504.261 59.7955Z" fill="white"/>
</svg>
