<svg width="36" height="36" viewBox="0 0 36 36" fill="none" xmlns="http://www.w3.org/2000/svg">
<g filter="url(#filter0_d)">
<rect x="6" y="5" width="24" height="24" rx="5" fill="white"/>
<rect x="6.1" y="5.1" width="23.8" height="23.8" rx="4.9" stroke="#F3F3F3" stroke-width="0.2"/>
</g>
<path d="M24.1673 9.70617L20.4108 9.70866C20.6262 9.86262 20.8036 10.0638 20.9294 10.2969C21.0551 10.5299 21.1259 10.7886 21.1363 11.0532C21.1467 11.3178 21.0965 11.5812 20.9895 11.8234C20.8824 12.0656 20.7214 12.2801 20.5188 12.4506L24.1684 12.4516C24.3665 12.4824 24.569 12.4699 24.7618 12.415C24.9547 12.3601 25.1333 12.2641 25.2856 12.1336C25.4378 12.0031 25.56 11.8412 25.6437 11.6591C25.7275 11.4769 25.7708 11.2787 25.7707 11.0782C25.7706 10.8777 25.7272 10.6796 25.6433 10.4975C25.5594 10.3154 25.4371 10.1536 25.2847 10.0233C25.1324 9.89291 24.9536 9.79707 24.7607 9.74233C24.5679 9.68759 24.3654 9.67526 24.1673 9.70617Z" fill="#6286ED"/>
<path d="M20.41 9.70882L11.4004 9.68916C11.0729 9.74026 10.7745 9.90674 10.559 10.1586C10.3435 10.4104 10.2252 10.7309 10.2253 11.0624C10.2254 11.3938 10.3441 11.7142 10.5597 11.9659C10.7754 12.2175 11.074 12.3838 11.4015 12.4346L20.5186 12.4369C20.7213 12.2664 20.8823 12.0519 20.9893 11.8097C21.0964 11.5675 21.1466 11.3041 21.1362 11.0395C21.1258 10.7749 21.055 10.5162 20.9292 10.2831C20.8035 10.0501 20.6261 9.84891 20.4107 9.69495L20.41 9.70882Z" fill="#6286ED"/>
<path d="M24.1673 21.4385L20.4108 21.441C20.6262 21.5949 20.8036 21.7961 20.9294 22.0292C21.0551 22.2622 21.1259 22.5209 21.1363 22.7855C21.1467 23.0501 21.0965 23.3135 20.9895 23.5557C20.8824 23.7979 20.7214 24.0124 20.5188 24.1829L24.1684 24.1839C24.3665 24.2147 24.569 24.2022 24.7618 24.1473C24.9547 24.0924 25.1333 23.9964 25.2856 23.8659C25.4378 23.7354 25.56 23.5735 25.6437 23.3914C25.7275 23.2092 25.7708 23.011 25.7707 22.8105C25.7706 22.61 25.7272 22.4119 25.6433 22.2298C25.5594 22.0477 25.4371 21.8859 25.2847 21.7556C25.1324 21.6252 24.9536 21.5294 24.7607 21.4746C24.5679 21.4199 24.3654 21.4076 24.1673 21.4385Z" fill="#6286ED"/>
<path d="M20.41 21.4411L11.4004 21.4215C11.0729 21.4726 10.7745 21.639 10.559 21.8909C10.3435 22.1427 10.2252 22.4632 10.2253 22.7947C10.2254 23.1261 10.3441 23.4465 10.5597 23.6982C10.7754 23.9498 11.074 24.1161 11.4015 24.1669L20.5186 24.1692C20.7213 23.9987 20.8823 23.7842 20.9893 23.542C21.0964 23.2998 21.1466 23.0364 21.1362 22.7718C21.1258 22.5072 21.055 22.2485 20.9292 22.0154C20.8035 21.7824 20.6261 21.5812 20.4107 21.4272L20.41 21.4411Z" fill="#6286ED"/>
<path d="M24.1673 15.4385L20.4108 15.441C20.6262 15.5949 20.8036 15.7961 20.9294 16.0292C21.0551 16.2622 21.1259 16.5209 21.1363 16.7855C21.1467 17.0501 21.0965 17.3135 20.9895 17.5557C20.8824 17.7979 20.7214 18.0124 20.5188 18.1829L24.1684 18.1839C24.3665 18.2147 24.569 18.2022 24.7618 18.1473C24.9547 18.0924 25.1333 17.9964 25.2856 17.8659C25.4378 17.7354 25.56 17.5735 25.6437 17.3914C25.7275 17.2092 25.7708 17.011 25.7707 16.8105C25.7706 16.61 25.7272 16.4119 25.6433 16.2298C25.5594 16.0477 25.4371 15.8859 25.2847 15.7556C25.1324 15.6252 24.9536 15.5294 24.7607 15.4746C24.5679 15.4199 24.3654 15.4076 24.1673 15.4385Z" fill="#6286ED"/>
<path d="M20.41 15.4411L11.4004 15.4215C11.0729 15.4726 10.7745 15.639 10.559 15.8909C10.3435 16.1427 10.2252 16.4632 10.2253 16.7947C10.2254 17.1261 10.3441 17.4465 10.5597 17.6982C10.7754 17.9498 11.074 18.1161 11.4015 18.1669L20.5186 18.1692C20.7213 17.9987 20.8823 17.7842 20.9893 17.542C21.0964 17.2998 21.1466 17.0364 21.1362 16.7718C21.1258 16.5072 21.055 16.2485 20.9292 16.0154C20.8035 15.7824 20.6261 15.5812 20.4107 15.4272L20.41 15.4411Z" fill="#6286ED"/>
<defs>
<filter id="filter0_d" x="0" y="0" width="36" height="36" filterUnits="userSpaceOnUse" color-interpolation-filters="sRGB">
<feFlood flood-opacity="0" result="BackgroundImageFix"/>
<feColorMatrix in="SourceAlpha" type="matrix" values="0 0 0 0 0 0 0 0 0 0 0 0 0 0 0 0 0 0 127 0"/>
<feOffset dy="1"/>
<feGaussianBlur stdDeviation="3"/>
<feColorMatrix type="matrix" values="0 0 0 0 0.466667 0 0 0 0 0.466667 0 0 0 0 0.466667 0 0 0 0.1 0"/>
<feBlend mode="normal" in2="BackgroundImageFix" result="effect1_dropShadow"/>
<feBlend mode="normal" in="SourceGraphic" in2="effect1_dropShadow" result="shape"/>
</filter>
</defs>
</svg>
