<svg width="103" height="25" viewBox="0 0 103 25" fill="none" xmlns="http://www.w3.org/2000/svg">
            <path d="M37.8598 0H3.91654C1.75349 0 0 1.75349 0 3.91654V20.2354C0 22.3985 1.75349 24.152 3.91654 24.152H37.8598C40.0229 24.152 41.7764 22.3985 41.7764 20.2354V3.91654C41.7764 1.75349 40.0229 0 37.8598 0Z" fill="#6286ED" />
            <path
              d="M14.3254 11.1974C14.3254 12.0303 14.0381 12.7244 13.4637 13.2797C12.8989 13.8254 12.0324 14.0982 10.8644 14.0982H8.94012V18.2772H7.6333V8.26781H10.8644C11.9941 8.26781 12.851 8.54066 13.435 9.08636C14.0286 9.63207 14.3254 10.3357 14.3254 11.1974ZM10.8644 13.0212C11.592 13.0212 12.1282 12.8632 12.4728 12.5473C12.8175 12.2313 12.9898 11.7814 12.9898 11.1974C12.9898 9.96236 12.2814 9.34486 10.8644 9.34486H8.94012V13.0212H10.8644Z"
              fill="white" />
            <path
              d="M21.2199 18.2772L18.8361 14.1844H17.2564V18.2772H15.9496V8.26781H19.1807C19.937 8.26781 20.5737 8.39705 21.0907 8.65555C21.6172 8.91404 22.0098 9.26348 22.2682 9.70387C22.5267 10.1443 22.656 10.6469 22.656 11.2117C22.656 11.901 22.4549 12.509 22.0528 13.0355C21.6603 13.5621 21.0667 13.9115 20.2721 14.0839L22.7852 18.2772H21.2199ZM17.2564 13.1361H19.1807C19.8892 13.1361 20.4205 12.9637 20.7747 12.6191C21.129 12.2649 21.3061 11.7957 21.3061 11.2117C21.3061 10.6182 21.129 10.1586 20.7747 9.83312C20.4301 9.50761 19.8987 9.34486 19.1807 9.34486H17.2564V13.1361Z"
              fill="white" />
            <path
              d="M29.2245 18.3777C28.2959 18.3777 27.4486 18.1623 26.6827 17.7315C25.9168 17.2911 25.3088 16.6831 24.8589 15.9077C24.4185 15.1226 24.1983 14.2418 24.1983 13.2653C24.1983 12.2888 24.4185 11.4128 24.8589 10.6373C25.3088 9.85227 25.9168 9.24433 26.6827 8.81351C27.4486 8.37312 28.2959 8.15292 29.2245 8.15292C30.1627 8.15292 31.0148 8.37312 31.7807 8.81351C32.5466 9.24433 33.1497 9.84748 33.5901 10.623C34.0305 11.3984 34.2507 12.2792 34.2507 13.2653C34.2507 14.2514 34.0305 15.1322 33.5901 15.9077C33.1497 16.6831 32.5466 17.2911 31.7807 17.7315C31.0148 18.1623 30.1627 18.3777 29.2245 18.3777ZM29.2245 17.2432C29.9234 17.2432 30.5505 17.0805 31.1058 16.7549C31.6706 16.4294 32.111 15.9651 32.4269 15.362C32.7524 14.7588 32.9152 14.0599 32.9152 13.2653C32.9152 12.4611 32.7524 11.7622 32.4269 11.1687C32.111 10.5655 31.6754 10.1012 31.1201 9.77568C30.5648 9.45017 29.933 9.28741 29.2245 9.28741C28.5161 9.28741 27.8842 9.45017 27.3289 9.77568C26.7736 10.1012 26.3332 10.5655 26.0077 11.1687C25.6918 11.7622 25.5338 12.4611 25.5338 13.2653C25.5338 14.0599 25.6918 14.7588 26.0077 15.362C26.3332 15.9651 26.7736 16.4294 27.3289 16.7549C27.8938 17.0805 28.5256 17.2432 29.2245 17.2432Z"
              fill="white" />
            <path
              d="M49.3196 18.3777C48.659 18.3777 48.0654 18.2628 47.5388 18.033C47.0219 17.7937 46.615 17.4682 46.3182 17.0565C46.0214 16.6353 45.8682 16.1518 45.8586 15.6061H47.2516C47.2995 16.0752 47.491 16.4725 47.826 16.798C48.1707 17.1139 48.6685 17.2719 49.3196 17.2719C49.9418 17.2719 50.4301 17.1187 50.7843 16.8124C51.1481 16.4964 51.33 16.0943 51.33 15.6061C51.33 15.2231 51.2247 14.912 51.0141 14.6726C50.8035 14.4333 50.5402 14.2514 50.2243 14.1269C49.9083 14.0025 49.4823 13.8684 48.9462 13.7248C48.2856 13.5525 47.7542 13.3802 47.3521 13.2079C46.9596 13.0355 46.6198 12.7675 46.3325 12.4037C46.0549 12.0303 45.9161 11.5324 45.9161 10.9102C45.9161 10.3644 46.0549 9.88097 46.3325 9.45973C46.6102 9.03848 46.9979 8.71297 47.4958 8.4832C48.0032 8.25343 48.5824 8.13855 49.2334 8.13855C50.1716 8.13855 50.9375 8.37311 51.5311 8.84222C52.1342 9.31133 52.4741 9.93363 52.5507 10.7091H51.1146C51.0668 10.3262 50.8657 9.99107 50.5115 9.70386C50.1573 9.40707 49.6881 9.25868 49.1041 9.25868C48.5584 9.25868 48.1133 9.40229 47.7686 9.6895C47.424 9.96714 47.2516 10.3597 47.2516 10.8671C47.2516 11.2309 47.3521 11.5277 47.5532 11.7574C47.7638 11.9872 48.0175 12.1643 48.3143 12.2888C48.6207 12.4037 49.0467 12.5377 49.5924 12.6909C50.253 12.8728 50.7843 13.0547 51.1864 13.2366C51.5885 13.4089 51.9332 13.6818 52.2204 14.0551C52.5076 14.4189 52.6512 14.9168 52.6512 15.5486C52.6512 16.0369 52.522 16.4964 52.2635 16.9273C52.005 17.3581 51.622 17.7075 51.1146 17.9756C50.6072 18.2436 50.0089 18.3777 49.3196 18.3777Z"
              fill="#6286ED" />
            <path
              d="M54.0861 13.2653C54.0861 12.2888 54.3062 11.4128 54.7466 10.6373C55.187 9.85225 55.7854 9.23953 56.5417 8.79914C57.3076 8.35875 58.1549 8.13855 59.0835 8.13855C60.175 8.13855 61.1275 8.40183 61.9413 8.92838C62.7551 9.45494 63.3487 10.2017 63.722 11.1686H62.1567C61.8791 10.5655 61.477 10.1012 60.9504 9.77566C60.4334 9.45015 59.8112 9.2874 59.0835 9.2874C58.3847 9.2874 57.7576 9.45015 57.2023 9.77566C56.647 10.1012 56.2114 10.5655 55.8955 11.1686C55.5796 11.7622 55.4216 12.4611 55.4216 13.2653C55.4216 14.0599 55.5796 14.7588 55.8955 15.3619C56.2114 15.9555 56.647 16.4151 57.2023 16.7406C57.7576 17.0661 58.3847 17.2288 59.0835 17.2288C59.8112 17.2288 60.4334 17.0709 60.9504 16.7549C61.477 16.4294 61.8791 15.9651 62.1567 15.3619H63.722C63.3487 16.3193 62.7551 17.0613 61.9413 17.5878C61.1275 18.1048 60.175 18.3633 59.0835 18.3633C58.1549 18.3633 57.3076 18.1479 56.5417 17.7171C55.7854 17.2767 55.187 16.6688 54.7466 15.8933C54.3062 15.1178 54.0861 14.2418 54.0861 13.2653Z"
              fill="#6286ED" />
            <path d="M73.379 8.2678V18.2772H72.0722V13.7392H66.9742V18.2772H65.6673V8.2678H66.9742V12.6621H72.0722V8.2678H73.379Z" fill="#6286ED" />
            <path
              d="M80.1483 18.3777C79.2197 18.3777 78.3724 18.1623 77.6065 17.7315C76.8406 17.2911 76.2327 16.6831 75.7827 15.9077C75.3423 15.1226 75.1221 14.2418 75.1221 13.2653C75.1221 12.2888 75.3423 11.4128 75.7827 10.6373C76.2327 9.85225 76.8406 9.24432 77.6065 8.8135C78.3724 8.37311 79.2197 8.15291 80.1483 8.15291C81.0866 8.15291 81.9386 8.37311 82.7045 8.8135C83.4704 9.24432 84.0736 9.84746 84.514 10.6229C84.9544 11.3984 85.1746 12.2792 85.1746 13.2653C85.1746 14.2514 84.9544 15.1322 84.514 15.9077C84.0736 16.6831 83.4704 17.2911 82.7045 17.7315C81.9386 18.1623 81.0866 18.3777 80.1483 18.3777ZM80.1483 17.2432C80.8472 17.2432 81.4743 17.0804 82.0296 16.7549C82.5944 16.4294 83.0348 15.9651 83.3508 15.3619C83.6763 14.7588 83.839 14.0599 83.839 13.2653C83.839 12.4611 83.6763 11.7622 83.3508 11.1686C83.0348 10.5655 82.5992 10.1012 82.044 9.77566C81.4887 9.45015 80.8568 9.2874 80.1483 9.2874C79.4399 9.2874 78.808 9.45015 78.2527 9.77566C77.6975 10.1012 77.2571 10.5655 76.9316 11.1686C76.6156 11.7622 76.4577 12.4611 76.4577 13.2653C76.4577 14.0599 76.6156 14.7588 76.9316 15.3619C77.2571 15.9651 77.6975 16.4294 78.2527 16.7549C78.8176 17.0804 79.4495 17.2432 80.1483 17.2432Z"
              fill="#6286ED" />
            <path
              d="M91.4377 18.3777C90.5091 18.3777 89.6618 18.1623 88.8959 17.7315C88.13 17.2911 87.522 16.6831 87.0721 15.9077C86.6317 15.1226 86.4115 14.2418 86.4115 13.2653C86.4115 12.2888 86.6317 11.4128 87.0721 10.6373C87.522 9.85225 88.13 9.24432 88.8959 8.8135C89.6618 8.37311 90.5091 8.15291 91.4377 8.15291C92.3759 8.15291 93.228 8.37311 93.9939 8.8135C94.7598 9.24432 95.363 9.84746 95.8033 10.6229C96.2437 11.3984 96.4639 12.2792 96.4639 13.2653C96.4639 14.2514 96.2437 15.1322 95.8033 15.9077C95.363 16.6831 94.7598 17.2911 93.9939 17.7315C93.228 18.1623 92.3759 18.3777 91.4377 18.3777ZM91.4377 17.2432C92.1366 17.2432 92.7637 17.0804 93.319 16.7549C93.8838 16.4294 94.3242 15.9651 94.6401 15.3619C94.9656 14.7588 95.1284 14.0599 95.1284 13.2653C95.1284 12.4611 94.9656 11.7622 94.6401 11.1686C94.3242 10.5655 93.8886 10.1012 93.3333 9.77566C92.778 9.45015 92.1462 9.2874 91.4377 9.2874C90.7293 9.2874 90.0974 9.45015 89.5421 9.77566C88.9868 10.1012 88.5464 10.5655 88.2209 11.1686C87.905 11.7622 87.747 12.4611 87.747 13.2653C87.747 14.0599 87.905 14.7588 88.2209 15.3619C88.5464 15.9651 88.9868 16.4294 89.5421 16.7549C90.107 17.0804 90.7388 17.2432 91.4377 17.2432Z"
              fill="#6286ED" />
            <path d="M99.4959 17.2145H103V18.2772H98.1891V8.2678H99.4959V17.2145Z" fill="#6286ED" />
        </svg>
