<svg width="103" height="25" viewBox="0 0 103 25" fill="none" xmlns="http://www.w3.org/2000/svg">
<path d="M37.8598 0H3.91654C1.75349 0 0 1.75349 0 3.91654V20.2354C0 22.3985 1.75349 24.152 3.91654 24.152H37.8598C40.0229 24.152 41.7764 22.3985 41.7764 20.2354V3.91654C41.7764 1.75349 40.0229 0 37.8598 0Z" fill="white"/>
<path d="M14.3254 11.1974C14.3254 12.0303 14.0381 12.7244 13.4637 13.2797C12.8989 13.8254 12.0324 14.0982 10.8644 14.0982H8.94012V18.2772H7.6333V8.26781H10.8644C11.9941 8.26781 12.851 8.54066 13.435 9.08636C14.0286 9.63207 14.3254 10.3357 14.3254 11.1974ZM10.8644 13.0212C11.592 13.0212 12.1282 12.8632 12.4728 12.5473C12.8175 12.2313 12.9898 11.7814 12.9898 11.1974C12.9898 9.96236 12.2814 9.34486 10.8644 9.34486H8.94012V13.0212H10.8644Z" fill="#8DA1F8"/>
<path d="M21.2199 18.2772L18.8361 14.1844H17.2564V18.2772H15.9496V8.26781H19.1807C19.937 8.26781 20.5737 8.39705 21.0907 8.65555C21.6172 8.91404 22.0098 9.26348 22.2682 9.70387C22.5267 10.1443 22.656 10.6469 22.656 11.2117C22.656 11.901 22.4549 12.509 22.0528 13.0355C21.6603 13.5621 21.0667 13.9115 20.2721 14.0839L22.7852 18.2772H21.2199ZM17.2564 13.1361H19.1807C19.8892 13.1361 20.4205 12.9637 20.7747 12.6191C21.129 12.2649 21.3061 11.7957 21.3061 11.2117C21.3061 10.6182 21.129 10.1586 20.7747 9.83312C20.4301 9.50761 19.8987 9.34486 19.1807 9.34486H17.2564V13.1361Z" fill="#8DA1F8"/>
<path d="M29.2245 18.3777C28.2959 18.3777 27.4486 18.1623 26.6827 17.7315C25.9168 17.2911 25.3088 16.6831 24.8589 15.9077C24.4185 15.1226 24.1983 14.2418 24.1983 13.2653C24.1983 12.2888 24.4185 11.4128 24.8589 10.6373C25.3088 9.85227 25.9168 9.24433 26.6827 8.81351C27.4486 8.37312 28.2959 8.15292 29.2245 8.15292C30.1627 8.15292 31.0148 8.37312 31.7807 8.81351C32.5466 9.24433 33.1497 9.84748 33.5901 10.623C34.0305 11.3984 34.2507 12.2792 34.2507 13.2653C34.2507 14.2514 34.0305 15.1322 33.5901 15.9077C33.1497 16.6831 32.5466 17.2911 31.7807 17.7315C31.0148 18.1623 30.1627 18.3777 29.2245 18.3777ZM29.2245 17.2432C29.9234 17.2432 30.5505 17.0805 31.1058 16.7549C31.6706 16.4294 32.111 15.9651 32.4269 15.362C32.7524 14.7588 32.9152 14.0599 32.9152 13.2653C32.9152 12.4611 32.7524 11.7622 32.4269 11.1687C32.111 10.5655 31.6754 10.1012 31.1201 9.77568C30.5648 9.45017 29.933 9.28741 29.2245 9.28741C28.5161 9.28741 27.8842 9.45017 27.3289 9.77568C26.7736 10.1012 26.3332 10.5655 26.0077 11.1687C25.6918 11.7622 25.5338 12.4611 25.5338 13.2653C25.5338 14.0599 25.6918 14.7588 26.0077 15.362C26.3332 15.9651 26.7736 16.4294 27.3289 16.7549C27.8938 17.0805 28.5256 17.2432 29.2245 17.2432Z" fill="#8DA1F8"/>
<path d="M49.3198 18.3777C48.6592 18.3777 48.0656 18.2628 47.5391 18.033C47.0221 17.7937 46.6152 17.4682 46.3184 17.0565C46.0216 16.6353 45.8685 16.1518 45.8589 15.6061H47.2519C47.2997 16.0752 47.4912 16.4725 47.8263 16.798C48.1709 17.1139 48.6688 17.2719 49.3198 17.2719C49.9421 17.2719 50.4304 17.1187 50.7846 16.8124C51.1484 16.4964 51.3303 16.0943 51.3303 15.6061C51.3303 15.2231 51.225 14.912 51.0144 14.6726C50.8037 14.4333 50.5405 14.2514 50.2245 14.1269C49.9086 14.0025 49.4826 13.8684 48.9464 13.7248C48.2858 13.5525 47.7545 13.3802 47.3524 13.2079C46.9599 13.0355 46.62 12.7675 46.3328 12.4037C46.0551 12.0303 45.9163 11.5324 45.9163 10.9102C45.9163 10.3644 46.0551 9.88097 46.3328 9.45973C46.6104 9.03848 46.9982 8.71297 47.496 8.4832C48.0034 8.25343 48.5826 8.13855 49.2336 8.13855C50.1719 8.13855 50.9378 8.37311 51.5313 8.84222C52.1345 9.31133 52.4744 9.93363 52.5509 10.7091H51.1149C51.067 10.3262 50.866 9.99107 50.5117 9.70386C50.1575 9.40707 49.6884 9.25868 49.1044 9.25868C48.5587 9.25868 48.1135 9.40229 47.7689 9.6895C47.4242 9.96714 47.2519 10.3597 47.2519 10.8671C47.2519 11.2309 47.3524 11.5277 47.5534 11.7574C47.7641 11.9872 48.0178 12.1643 48.3146 12.2888C48.6209 12.4037 49.0469 12.5377 49.5927 12.6909C50.2532 12.8728 50.7846 13.0547 51.1867 13.2366C51.5888 13.4089 51.9334 13.6818 52.2206 14.0551C52.5079 14.4189 52.6515 14.9168 52.6515 15.5486C52.6515 16.0369 52.5222 16.4964 52.2637 16.9273C52.0052 17.3581 51.6223 17.7075 51.1149 17.9756C50.6075 18.2436 50.0091 18.3777 49.3198 18.3777Z" fill="white"/>
<path d="M54.0863 13.2653C54.0863 12.2888 54.3065 11.4128 54.7469 10.6373C55.1873 9.85225 55.7856 9.23953 56.542 8.79914C57.3079 8.35875 58.1551 8.13855 59.0838 8.13855C60.1752 8.13855 61.1278 8.40183 61.9416 8.92838C62.7553 9.45494 63.3489 10.2017 63.7223 11.1686H62.157C61.8793 10.5655 61.4772 10.1012 60.9507 9.77566C60.4337 9.45015 59.8114 9.2874 59.0838 9.2874C58.3849 9.2874 57.7578 9.45015 57.2025 9.77566C56.6473 10.1012 56.2117 10.5655 55.8957 11.1686C55.5798 11.7622 55.4218 12.4611 55.4218 13.2653C55.4218 14.0599 55.5798 14.7588 55.8957 15.3619C56.2117 15.9555 56.6473 16.4151 57.2025 16.7406C57.7578 17.0661 58.3849 17.2288 59.0838 17.2288C59.8114 17.2288 60.4337 17.0709 60.9507 16.7549C61.4772 16.4294 61.8793 15.9651 62.157 15.3619H63.7223C63.3489 16.3193 62.7553 17.0613 61.9416 17.5878C61.1278 18.1048 60.1752 18.3633 59.0838 18.3633C58.1551 18.3633 57.3079 18.1479 56.542 17.7171C55.7856 17.2767 55.1873 16.6688 54.7469 15.8933C54.3065 15.1178 54.0863 14.2418 54.0863 13.2653Z" fill="white"/>
<path d="M73.3792 8.2678V18.2772H72.0724V13.7392H66.9744V18.2772H65.6676V8.2678H66.9744V12.6621H72.0724V8.2678H73.3792Z" fill="white"/>
<path d="M80.1486 18.3777C79.2199 18.3777 78.3727 18.1623 77.6068 17.7315C76.8409 17.2911 76.2329 16.6831 75.783 15.9077C75.3426 15.1226 75.1224 14.2418 75.1224 13.2653C75.1224 12.2888 75.3426 11.4128 75.783 10.6373C76.2329 9.85225 76.8409 9.24432 77.6068 8.8135C78.3727 8.37311 79.2199 8.15291 80.1486 8.15291C81.0868 8.15291 81.9389 8.37311 82.7048 8.8135C83.4707 9.24432 84.0738 9.84746 84.5142 10.6229C84.9546 11.3984 85.1748 12.2792 85.1748 13.2653C85.1748 14.2514 84.9546 15.1322 84.5142 15.9077C84.0738 16.6831 83.4707 17.2911 82.7048 17.7315C81.9389 18.1623 81.0868 18.3777 80.1486 18.3777ZM80.1486 17.2432C80.8475 17.2432 81.4746 17.0804 82.0298 16.7549C82.5947 16.4294 83.0351 15.9651 83.351 15.3619C83.6765 14.7588 83.8393 14.0599 83.8393 13.2653C83.8393 12.4611 83.6765 11.7622 83.351 11.1686C83.0351 10.5655 82.5995 10.1012 82.0442 9.77566C81.4889 9.45015 80.8571 9.2874 80.1486 9.2874C79.4401 9.2874 78.8083 9.45015 78.253 9.77566C77.6977 10.1012 77.2573 10.5655 76.9318 11.1686C76.6159 11.7622 76.4579 12.4611 76.4579 13.2653C76.4579 14.0599 76.6159 14.7588 76.9318 15.3619C77.2573 15.9651 77.6977 16.4294 78.253 16.7549C78.8178 17.0804 79.4497 17.2432 80.1486 17.2432Z" fill="white"/>
<path d="M91.438 18.3777C90.5093 18.3777 89.662 18.1623 88.8961 17.7315C88.1302 17.2911 87.5223 16.6831 87.0723 15.9077C86.6319 15.1226 86.4117 14.2418 86.4117 13.2653C86.4117 12.2888 86.6319 11.4128 87.0723 10.6373C87.5223 9.85225 88.1302 9.24432 88.8961 8.8135C89.662 8.37311 90.5093 8.15291 91.438 8.15291C92.3762 8.15291 93.2282 8.37311 93.9941 8.8135C94.76 9.24432 95.3632 9.84746 95.8036 10.6229C96.244 11.3984 96.4642 12.2792 96.4642 13.2653C96.4642 14.2514 96.244 15.1322 95.8036 15.9077C95.3632 16.6831 94.76 17.2911 93.9941 17.7315C93.2282 18.1623 92.3762 18.3777 91.438 18.3777ZM91.438 17.2432C92.1368 17.2432 92.7639 17.0804 93.3192 16.7549C93.8841 16.4294 94.3244 15.9651 94.6404 15.3619C94.9659 14.7588 95.1286 14.0599 95.1286 13.2653C95.1286 12.4611 94.9659 11.7622 94.6404 11.1686C94.3244 10.5655 93.8888 10.1012 93.3336 9.77566C92.7783 9.45015 92.1464 9.2874 91.438 9.2874C90.7295 9.2874 90.0976 9.45015 89.5424 9.77566C88.9871 10.1012 88.5467 10.5655 88.2212 11.1686C87.9052 11.7622 87.7473 12.4611 87.7473 13.2653C87.7473 14.0599 87.9052 14.7588 88.2212 15.3619C88.5467 15.9651 88.9871 16.4294 89.5424 16.7549C90.1072 17.0804 90.7391 17.2432 91.438 17.2432Z" fill="white"/>
<path d="M99.4962 17.2145H103V18.2772H98.1894V8.2678H99.4962V17.2145Z" fill="white"/>
</svg>
