<svg width="159" height="37" viewBox="0 0 159 37" fill="none" xmlns="http://www.w3.org/2000/svg">
<path d="M58 0H6C2.68629 0 0 2.68629 0 6V31C0 34.3137 2.68629 37 6 37H58C61.3137 37 64 34.3137 64 31V6C64 2.68629 61.3137 0 58 0Z" fill="#6286ED"/>
<path d="M21.946 17.154C21.946 18.43 21.506 19.4933 20.626 20.344C19.7607 21.18 18.4333 21.598 16.644 21.598H13.696V28H11.694V12.666H16.644C18.3747 12.666 19.6873 13.084 20.582 13.92C21.4913 14.756 21.946 15.834 21.946 17.154ZM16.644 19.948C17.7587 19.948 18.58 19.706 19.108 19.222C19.636 18.738 19.9 18.0487 19.9 17.154C19.9 15.262 18.8147 14.316 16.644 14.316H13.696V19.948H16.644ZM32.5082 28L28.8562 21.73H26.4362V28H24.4342V12.666H29.3842C30.5429 12.666 31.5182 12.864 32.3102 13.26C33.1169 13.656 33.7182 14.1913 34.1142 14.866C34.5102 15.5407 34.7082 16.3107 34.7082 17.176C34.7082 18.232 34.4002 19.1633 33.7842 19.97C33.1829 20.7767 32.2736 21.312 31.0562 21.576L34.9062 28H32.5082ZM26.4362 20.124H29.3842C30.4696 20.124 31.2836 19.86 31.8262 19.332C32.3689 18.7893 32.6402 18.0707 32.6402 17.176C32.6402 16.2667 32.3689 15.5627 31.8262 15.064C31.2982 14.5653 30.4842 14.316 29.3842 14.316H26.4362V20.124ZM44.771 28.154C43.3483 28.154 42.0503 27.824 40.877 27.164C39.7037 26.4893 38.7723 25.558 38.083 24.37C37.4083 23.1673 37.071 21.818 37.071 20.322C37.071 18.826 37.4083 17.484 38.083 16.296C38.7723 15.0933 39.7037 14.162 40.877 13.502C42.0503 12.8273 43.3483 12.49 44.771 12.49C46.2083 12.49 47.5137 12.8273 48.687 13.502C49.8603 14.162 50.7843 15.086 51.459 16.274C52.1337 17.462 52.471 18.8113 52.471 20.322C52.471 21.8327 52.1337 23.182 51.459 24.37C50.7843 25.558 49.8603 26.4893 48.687 27.164C47.5137 27.824 46.2083 28.154 44.771 28.154ZM44.771 26.416C45.8417 26.416 46.8023 26.1667 47.653 25.668C48.5183 25.1693 49.193 24.458 49.677 23.534C50.1757 22.61 50.425 21.5393 50.425 20.322C50.425 19.09 50.1757 18.0193 49.677 17.11C49.193 16.186 48.5257 15.4747 47.675 14.976C46.8243 14.4773 45.8563 14.228 44.771 14.228C43.6857 14.228 42.7177 14.4773 41.867 14.976C41.0163 15.4747 40.3417 16.186 39.843 17.11C39.359 18.0193 39.117 19.09 39.117 20.322C39.117 21.5393 39.359 22.61 39.843 23.534C40.3417 24.458 41.0163 25.1693 41.867 25.668C42.7323 26.1667 43.7003 26.416 44.771 26.416Z" fill="white"/>
<path d="M75.556 28.154C74.544 28.154 73.6347 27.978 72.828 27.626C72.036 27.2593 71.4127 26.7607 70.958 26.13C70.5033 25.4847 70.2687 24.744 70.254 23.908H72.388C72.4613 24.6267 72.7547 25.2353 73.268 25.734C73.796 26.218 74.5587 26.46 75.556 26.46C76.5093 26.46 77.2573 26.2253 77.8 25.756C78.3573 25.272 78.636 24.656 78.636 23.908C78.636 23.3213 78.4747 22.8447 78.152 22.478C77.8293 22.1113 77.426 21.8327 76.942 21.642C76.458 21.4513 75.8053 21.246 74.984 21.026C73.972 20.762 73.158 20.498 72.542 20.234C71.9407 19.97 71.42 19.5593 70.98 19.002C70.5547 18.43 70.342 17.6673 70.342 16.714C70.342 15.878 70.5547 15.1373 70.98 14.492C71.4053 13.8467 71.9993 13.348 72.762 12.996C73.5393 12.644 74.4267 12.468 75.424 12.468C76.8613 12.468 78.0347 12.8273 78.944 13.546C79.868 14.2647 80.3887 15.218 80.506 16.406H78.306C78.2327 15.8193 77.9247 15.306 77.382 14.866C76.8393 14.4113 76.1207 14.184 75.226 14.184C74.39 14.184 73.708 14.404 73.18 14.844C72.652 15.2693 72.388 15.8707 72.388 16.648C72.388 17.2053 72.542 17.66 72.85 18.012C73.1727 18.364 73.5613 18.6353 74.016 18.826C74.4853 19.002 75.138 19.2073 75.974 19.442C76.986 19.7207 77.8 19.9993 78.416 20.278C79.032 20.542 79.56 20.96 80 21.532C80.44 22.0893 80.66 22.852 80.66 23.82C80.66 24.568 80.462 25.272 80.066 25.932C79.67 26.592 79.0833 27.1273 78.306 27.538C77.5287 27.9487 76.612 28.154 75.556 28.154ZM82.8581 20.322C82.8581 18.826 83.1954 17.484 83.8701 16.296C84.5448 15.0933 85.4614 14.1547 86.6201 13.48C87.7934 12.8053 89.0914 12.468 90.5141 12.468C92.1861 12.468 93.6454 12.8713 94.8921 13.678C96.1388 14.4847 97.0481 15.6287 97.6201 17.11H95.2221C94.7968 16.186 94.1808 15.4747 93.3741 14.976C92.5821 14.4773 91.6288 14.228 90.5141 14.228C89.4434 14.228 88.4828 14.4773 87.6321 14.976C86.7814 15.4747 86.1141 16.186 85.6301 17.11C85.1461 18.0193 84.9041 19.09 84.9041 20.322C84.9041 21.5393 85.1461 22.61 85.6301 23.534C86.1141 24.4433 86.7814 25.1473 87.6321 25.646C88.4828 26.1447 89.4434 26.394 90.5141 26.394C91.6288 26.394 92.5821 26.152 93.3741 25.668C94.1808 25.1693 94.7968 24.458 95.2221 23.534H97.6201C97.0481 25.0007 96.1388 26.1373 94.8921 26.944C93.6454 27.736 92.1861 28.132 90.5141 28.132C89.0914 28.132 87.7934 27.802 86.6201 27.142C85.4614 26.4673 84.5448 25.536 83.8701 24.348C83.1954 23.16 82.8581 21.818 82.8581 20.322ZM112.414 12.666V28H110.412V21.048H102.602V28H100.6V12.666H102.602V19.398H110.412V12.666H112.414ZM122.785 28.154C121.362 28.154 120.064 27.824 118.891 27.164C117.717 26.4893 116.786 25.558 116.097 24.37C115.422 23.1673 115.085 21.818 115.085 20.322C115.085 18.826 115.422 17.484 116.097 16.296C116.786 15.0933 117.717 14.162 118.891 13.502C120.064 12.8273 121.362 12.49 122.785 12.49C124.222 12.49 125.527 12.8273 126.701 13.502C127.874 14.162 128.798 15.086 129.473 16.274C130.147 17.462 130.485 18.8113 130.485 20.322C130.485 21.8327 130.147 23.182 129.473 24.37C128.798 25.558 127.874 26.4893 126.701 27.164C125.527 27.824 124.222 28.154 122.785 28.154ZM122.785 26.416C123.855 26.416 124.816 26.1667 125.667 25.668C126.532 25.1693 127.207 24.458 127.691 23.534C128.189 22.61 128.439 21.5393 128.439 20.322C128.439 19.09 128.189 18.0193 127.691 17.11C127.207 16.186 126.539 15.4747 125.689 14.976C124.838 14.4773 123.87 14.228 122.785 14.228C121.699 14.228 120.731 14.4773 119.881 14.976C119.03 15.4747 118.355 16.186 117.857 17.11C117.373 18.0193 117.131 19.09 117.131 20.322C117.131 21.5393 117.373 22.61 117.857 23.534C118.355 24.458 119.03 25.1693 119.881 25.668C120.746 26.1667 121.714 26.416 122.785 26.416ZM140.08 28.154C138.657 28.154 137.359 27.824 136.186 27.164C135.012 26.4893 134.081 25.558 133.392 24.37C132.717 23.1673 132.38 21.818 132.38 20.322C132.38 18.826 132.717 17.484 133.392 16.296C134.081 15.0933 135.012 14.162 136.186 13.502C137.359 12.8273 138.657 12.49 140.08 12.49C141.517 12.49 142.822 12.8273 143.996 13.502C145.169 14.162 146.093 15.086 146.768 16.274C147.442 17.462 147.78 18.8113 147.78 20.322C147.78 21.8327 147.442 23.182 146.768 24.37C146.093 25.558 145.169 26.4893 143.996 27.164C142.822 27.824 141.517 28.154 140.08 28.154ZM140.08 26.416C141.15 26.416 142.111 26.1667 142.962 25.668C143.827 25.1693 144.502 24.458 144.986 23.534C145.484 22.61 145.734 21.5393 145.734 20.322C145.734 19.09 145.484 18.0193 144.986 17.11C144.502 16.186 143.834 15.4747 142.984 14.976C142.133 14.4773 141.165 14.228 140.08 14.228C138.994 14.228 138.026 14.4773 137.176 14.976C136.325 15.4747 135.65 16.186 135.152 17.11C134.668 18.0193 134.426 19.09 134.426 20.322C134.426 21.5393 134.668 22.61 135.152 23.534C135.65 24.458 136.325 25.1693 137.176 25.668C138.041 26.1667 139.009 26.416 140.08 26.416ZM152.425 26.372H157.793V28H150.423V12.666H152.425V26.372Z" fill="#6286ED"/>
</svg>
